{
copyright = "vernon adams \U00A9 2011-2012";
customParameters = (
{
name = openTypeOS2FamilyClass;
value = (
    0,
    0
);
},
{
name = openTypeOS2StrikeoutPosition;
value = "-459";
},
{
name = openTypeOS2StrikeoutSize;
value = "-38";
},
{
name = openTypeOS2SubscriptXOffset;
value = 0;
},
{
name = openTypeOS2SubscriptXSize;
value = "-1002";
},
{
name = openTypeOS2SubscriptYOffset;
value = "-115";
},
{
name = openTypeOS2SubscriptYSize;
value = "-925";
},
{
name = openTypeOS2SuperscriptXOffset;
value = 0;
},
{
name = openTypeOS2SuperscriptXSize;
value = "-1002";
},
{
name = openTypeOS2SuperscriptYOffset;
value = "-539";
},
{
name = openTypeOS2SuperscriptYSize;
value = "-925";
},
{
name = postscriptFontName;
value = "OxygenSans-Thin";
},
{
name = postscriptFullName;
value = "OxygenSans Thin";
},
{
name = styleMapStyleName;
value = regular;
},
{
name = styleName;
value = "Extra-light";
}
);
date = "2012-08-17 20:52:53 +0000";
designer = "vernon adams";
designerURL = newtypography.co.uk;
familyName = "OxygenSans";
fontMaster = (
{
ascender = 1706;
capHeight = 1354;
customParameters = (
{
name = openTypeHheaAscender;
value = 1600;
},
{
name = TypoAscender;
value = 1600;
},
{
name = openTypeHheaDescender;
value = "-448";
},
{
name = TypoDescender;
value = "-448";
},
{
name = openTypeHheaLineGap;
value = 0;
},
{
name = TypoLineGap;
value = 0;
},
{
name = winAscent;
value = 1600;
},
{
name = winDescent;
value = 448;
}
);
descender = "-442";
id = "9209D6FA-1952-4593-83C2-3566FC124D27";
weight = Light;
xHeight = 986;
}
);
glyphs = (
{
glyphname = A;
lastChange = "2013-02-09 20:30:40 -0800";
layers = (
{
anchors = (
{
name = ogonek;
position = "{1063, 0}";
},
{
name = top;
position = "{603, 1339}";
}
);
layerId = "9209D6FA-1952-4593-83C2-3566FC124D27";
name = Light;
paths = (
{
closed = 1;
nodes = (
"46 0 LINE",
"160 0 LINE",
"350 499 LINE",
"297 461 LINE",
"932 461 LINE",
"878 497 LINE",
"1064 0 LINE",
"1171 0 LINE",
"659 1354 LINE",
"558 1354 LINE"
);
},
{
closed = 1;
nodes = (
"352 508 LINE SMOOTH",
"631 1288 LINE",
"586 1290 LINE",
"875 508 LINE",
"908 544 LINE",
"323 544 LINE"
);
}
);
width = 1217;
}
);
unicode = 0041;
},
{
glyphname = AE;
layers = (
{
anchors = (
{
name = top;
position = "{1010, 1349}";
}
);
layerId = "9209D6FA-1952-4593-83C2-3566FC124D27";
name = Light;
paths = (
{
closed = 1;
nodes = (
"130 0 LINE",
"185 0 LINE",
"434 425 LINE",
"1139 425 LINE",
"1167 0 LINE",
"1860 0 LINE",
"1849 111 LINE",
"1233 111 LINE",
"1190 703 LINE",
"1813 703 LINE",
"1813 815 LINE",
"1173 815 LINE",
"1132 1362 LINE",
"1853 1362 LINE",
"1841 1474 LINE",
"1019 1474 LINE"
);
},
{
closed = 1;
nodes = (
"496 535 LINE",
"1048 1410 LINE",
"1116 535 LINE"
);
}
);
width = 2021;
}
);
unicode = 00C6;
},
{
glyphname = B;
layers = (
{
layerId = "9209D6FA-1952-4593-83C2-3566FC124D27";
name = Light;
paths = (
{
closed = 1;
nodes = (
"214 0 LINE",
"709 0 LINE SMOOTH",
"1045 0 OFFCURVE",
"1181 153 OFFCURVE",
"1181 376 CURVE SMOOTH",
"1181 582 OFFCURVE",
"1036 686 OFFCURVE",
"807 725 CURVE",
"807 690 LINE",
"1059 755 OFFCURVE",
"1115 859 OFFCURVE",
"1115 1025 CURVE SMOOTH",
"1115 1246 OFFCURVE",
"956 1354 OFFCURVE",
"606 1354 CURVE SMOOTH",
"214 1354 LINE"
);
},
{
closed = 1;
nodes = (
"285 88 LINE",
"328 44 LINE",
"328 703 LINE",
"284 668 LINE",
"624 668 LINE SMOOTH",
"923 668 OFFCURVE",
"1067 599 OFFCURVE",
"1067 374 CURVE SMOOTH",
"1067 169 OFFCURVE",
"956 88 OFFCURVE",
"693 88 CURVE SMOOTH"
);
},
{
closed = 1;
nodes = (
"283 756 LINE",
"328 722 LINE",
"328 1308 LINE",
"286 1266 LINE",
"618 1266 LINE SMOOTH",
"876 1266 OFFCURVE",
"1009 1217 OFFCURVE",
"1009 1014 CURVE SMOOTH",
"1009 801 OFFCURVE",
"884 756 OFFCURVE",
"693 756 CURVE SMOOTH"
);
}
);
width = 1297;
}
);
unicode = 0042;
},
{
glyphname = C;
layers = (
{
anchors = (
{
name = bottom;
position = "{637, 4}";
},
{
name = top;
position = "{637, 1349}";
}
);
layerId = "9209D6FA-1952-4593-83C2-3566FC124D27";
name = Light;
paths = (
{
closed = 1;
nodes = (
"140 265 OFFCURVE",
"392 -18 OFFCURVE",
"779 -18 CURVE SMOOTH",
"958 -18 OFFCURVE",
"1111 38 OFFCURVE",
"1129 63 CURVE",
"1097 147 LINE",
"1005 107 OFFCURVE",
"924 72 OFFCURVE",
"801 72 CURVE SMOOTH",
"427 72 OFFCURVE",
"254 340 OFFCURVE",
"254 675 CURVE SMOOTH",
"254 1010 OFFCURVE",
"428 1282 OFFCURVE",
"781 1282 CURVE SMOOTH",
"899 1282 OFFCURVE",
"1016 1248 OFFCURVE",
"1097 1195 CURVE",
"1143 1267 LINE",
"1065 1327 OFFCURVE",
"936 1372 OFFCURVE",
"768 1372 CURVE SMOOTH",
"355 1372 OFFCURVE",
"140 1064 OFFCURVE",
"140 681 CURVE SMOOTH"
);
}
);
width = 1227;
}
);
unicode = 0043;
},
{
glyphname = D;
layers = (
{
anchors = (
{
name = center;
position = "{705, 675}";
},
{
name = top;
position = "{705, 1349}";
}
);
layerId = "9209D6FA-1952-4593-83C2-3566FC124D27";
name = Light;
paths = (
{
closed = 1;
nodes = (
"328 41 LINE",
"328 1313 LINE",
"280 1266 LINE",
"577 1266 LINE SMOOTH",
"967 1266 OFFCURVE",
"1196 1107 OFFCURVE",
"1196 675 CURVE SMOOTH",
"1196 282 OFFCURVE",
"1002 88 OFFCURVE",
"602 88 CURVE SMOOTH",
"280 88 LINE"
);
},
{
closed = 1;
nodes = (
"214 0 LINE",
"621 0 LINE SMOOTH",
"1051 0 OFFCURVE",
"1310 229 OFFCURVE",
"1310 679 CURVE SMOOTH",
"1310 1156 OFFCURVE",
"1021 1354 OFFCURVE",
"592 1354 CURVE SMOOTH",
"214 1354 LINE"
);
}
);
width = 1450;
}
);
unicode = 0044;
},
{
glyphname = Eth;
layers = (
{
layerId = "9209D6FA-1952-4593-83C2-3566FC124D27";
name = Light;
paths = (
{
closed = 1;
nodes = (
"397 95 LINE",
"397 663 LINE",
"651 663 LINE",
"651 747 LINE",
"397 747 LINE",
"397 1276 LINE",
"654 1276 LINE SMOOTH",
"1037 1276 OFFCURVE",
"1334 1144 OFFCURVE",
"1334 667 CURVE SMOOTH",
"1334 279 OFFCURVE",
"1111 95 OFFCURVE",
"751 95 CURVE SMOOTH"
);
},
{
closed = 1;
nodes = (
"308 -1 LINE",
"733 -1 LINE SMOOTH",
"1159 -1 OFFCURVE",
"1439 212 OFFCURVE",
"1439 675 CURVE SMOOTH",
"1439 1219 OFFCURVE",
"1094 1375 OFFCURVE",
"632 1375 CURVE SMOOTH",
"308 1375 LINE",
"308 750 LINE",
"204 750 LINE",
"204 666 LINE",
"308 666 LINE"
);
}
);
width = 1603;
}
);
unicode = 00D0;
},
{
glyphname = Dcroat;
layers = (
{
layerId = "9209D6FA-1952-4593-83C2-3566FC124D27";
name = Light;
paths = (
{
closed = 1;
nodes = (
"384 141 LINE",
"384 634 LINE",
"604 634 LINE",
"604 757 LINE",
"384 757 LINE",
"384 1220 LINE",
"581 1220 LINE SMOOTH",
"953 1220 OFFCURVE",
"1202 1097 OFFCURVE",
"1202 668 CURVE SMOOTH",
"1202 316 OFFCURVE",
"1004 141 OFFCURVE",
"671 141 CURVE SMOOTH"
);
},
{
closed = 1;
nodes = (
"223 0 LINE",
"654 0 LINE SMOOTH",
"1084 0 OFFCURVE",
"1374 219 OFFCURVE",
"1374 672 CURVE SMOOTH",
"1374 1197 OFFCURVE",
"1031 1361 OFFCURVE",
"561 1361 CURVE SMOOTH",
"223 1361 LINE",
"223 757 LINE",
"116 757 LINE",
"116 634 LINE",
"223 634 LINE"
);
}
);
width = 1490;
}
);
unicode = 0110;
},
{
glyphname = E;
layers = (
{
anchors = (
{
name = bottom;
position = "{581, 0}";
},
{
name = ogonek;
position = "{1008, 10}";
},
{
name = top;
position = "{581, 1349}";
}
);
layerId = "9209D6FA-1952-4593-83C2-3566FC124D27";
name = Light;
paths = (
{
closed = 1;
nodes = (
"214 0 LINE",
"1011 0 LINE",
"1020 88 LINE",
"287 88 LINE",
"328 46 LINE",
"328 685 LINE",
"287 652 LINE",
"945 652 LINE",
"945 740 LINE",
"287 740 LINE",
"328 702 LINE",
"328 1302 LINE",
"289 1266 LINE",
"1016 1266 LINE",
"1020 1354 LINE",
"214 1354 LINE"
);
}
);
width = 1140;
}
);
unicode = 0045;
},
{
glyphname = F;
layers = (
{
layerId = "9209D6FA-1952-4593-83C2-3566FC124D27";
name = Light;
paths = (
{
closed = 1;
nodes = (
"214 0 LINE",
"332 0 LINE",
"332 670 LINE",
"284 639 LINE",
"899 639 LINE",
"899 722 LINE",
"278 722 LINE",
"332 685 LINE",
"332 1315 LINE",
"278 1266 LINE",
"941 1266 LINE",
"950 1354 LINE",
"214 1354 LINE"
);
}
);
width = 1016;
}
);
unicode = 0046;
},
{
glyphname = G;
layers = (
{
anchors = (
{
name = bottom;
position = "{704, 0}";
},
{
name = top;
position = "{704, 1349}";
}
);
layerId = "9209D6FA-1952-4593-83C2-3566FC124D27";
name = Light;
paths = (
{
closed = 1;
nodes = (
"140 286 OFFCURVE",
"350 -18 OFFCURVE",
"782 -18 CURVE SMOOTH",
"967 -18 OFFCURVE",
"1111 11 OFFCURVE",
"1245 60 CURVE",
"1245 676 LINE",
"827 676 LINE",
"818 577 LINE",
"1179 577 LINE",
"1131 625 LINE",
"1131 70 LINE",
"1169 124 LINE",
"1117 105 OFFCURVE",
"970 72 OFFCURVE",
"819 72 CURVE SMOOTH",
"412 72 OFFCURVE",
"254 313 OFFCURVE",
"254 673 CURVE SMOOTH",
"254 1009 OFFCURVE",
"448 1282 OFFCURVE",
"790 1282 CURVE SMOOTH",
"1030 1282 OFFCURVE",
"1127 1207 OFFCURVE",
"1175 1177 CURVE",
"1204 1265 LINE",
"1106 1344 OFFCURVE",
"947 1372 OFFCURVE",
"793 1372 CURVE SMOOTH",
"363 1372 OFFCURVE",
"140 1060 OFFCURVE",
"140 672 CURVE SMOOTH"
);
}
);
width = 1399;
}
);
unicode = 0047;
},
{
glyphname = H;
lastChange = "2013-02-09 20:31:12 -0800";
layers = (
{
anchors = (
{
name = center;
position = "{707, 675}";
},
{
name = top;
position = "{707, 1349}";
}
);
layerId = "9209D6FA-1952-4593-83C2-3566FC124D27";
name = Light;
paths = (
{
closed = 1;
nodes = (
"210 0 LINE",
"324 0 LINE",
"324 688 LINE",
"273 655 LINE",
"1156 655 LINE",
"1100 688 LINE",
"1100 0 LINE",
"1214 0 LINE",
"1214 1354 LINE",
"1100 1354 LINE",
"1100 703 LINE",
"1154 736 LINE",
"273 736 LINE",
"324 703 LINE",
"324 1354 LINE",
"210 1354 LINE"
);
}
);
width = 1424;
}
);
unicode = 0048;
},
{
glyphname = Hbar;
layers = (
{
layerId = "9209D6FA-1952-4593-83C2-3566FC124D27";
name = Light;
paths = (
{
closed = 1;
nodes = (
"261 0 LINE",
"349 0 LINE",
"349 658 LINE",
"1204 658 LINE",
"1204 0 LINE",
"1292 0 LINE",
"1292 1027 LINE",
"1379 1027 LINE",
"1379 1094 LINE",
"1292 1094 LINE",
"1292 1378 LINE",
"1204 1378 LINE",
"1204 1094 LINE",
"349 1094 LINE",
"349 1378 LINE",
"261 1378 LINE",
"261 1094 LINE",
"173 1094 LINE",
"173 1027 LINE",
"261 1027 LINE"
);
},
{
closed = 1;
nodes = (
"349 761 LINE",
"349 1027 LINE",
"1204 1027 LINE",
"1204 761 LINE"
);
}
);
width = 1569;
}
);
unicode = 0126;
},
{
glyphname = I;
layers = (
{
anchors = (
{
name = ogonek;
position = "{449, 10}";
},
{
name = top;
position = "{273, 1354}";
}
);
layerId = "9209D6FA-1952-4593-83C2-3566FC124D27";
name = Light;
paths = (
{
closed = 1;
nodes = (
"216 0 LINE",
"330 0 LINE",
"330 1354 LINE",
"216 1354 LINE"
);
}
);
width = 546;
}
);
unicode = 0049;
},
{
glyphname = IJ;
layers = (
{
layerId = "9209D6FA-1952-4593-83C2-3566FC124D27";
name = Light;
paths = (
{
closed = 1;
nodes = (
"632 -136 LINE",
"609 -131 OFFCURVE",
"641 -130 OFFCURVE",
"619 -130 CURVE SMOOTH",
"942 -130 OFFCURVE",
"925 0 OFFCURVE",
"925 268 CURVE SMOOTH",
"925 1349 LINE",
"835 1349 LINE",
"835 226 LINE SMOOTH",
"835 98 OFFCURVE",
"840 -19 OFFCURVE",
"648 -19 CURVE SMOOTH",
"665 -19 OFFCURVE",
"579 -21 OFFCURVE",
"608 -25 CURVE"
);
},
{
closed = 1;
nodes = (
"141 0 LINE",
"230 0 LINE",
"230 1349 LINE",
"141 1349 LINE"
);
}
);
width = 1127;
}
);
unicode = 0132;
},
{
glyphname = J;
layers = (
{
anchors = (
{
name = top;
position = "{289, 1349}";
}
);
layerId = "9209D6FA-1952-4593-83C2-3566FC124D27";
name = Light;
paths = (
{
closed = 1;
nodes = (
"136 -131 LINE",
"443 -131 OFFCURVE",
"452 0 OFFCURVE",
"452 268 CURVE SMOOTH",
"452 1354 LINE",
"338 1354 LINE",
"338 226 LINE SMOOTH",
"338 12 OFFCURVE",
"322 -37 OFFCURVE",
"120 -37 CURVE"
);
}
);
width = 666;
}
);
unicode = 004A;
},
{
glyphname = K;
layers = (
{
anchors = (
{
name = bottom;
position = "{606, 0}";
},
{
name = top;
position = "{606, 1349}";
}
);
layerId = "9209D6FA-1952-4593-83C2-3566FC124D27";
name = Light;
paths = (
{
closed = 1;
nodes = (
"214 0 LINE",
"328 0 LINE",
"328 621 LINE",
"285 531 LINE",
"490 726 LINE",
"432 728 LINE",
"1010 0 LINE",
"1147 0 LINE",
"498 798 LINE",
"505 737 LINE",
"1119 1354 LINE",
"984 1354 LINE",
"289 653 LINE",
"328 644 LINE",
"328 1354 LINE",
"214 1354 LINE"
);
}
);
width = 1211;
}
);
unicode = 004B;
},
{
glyphname = L;
layers = (
{
anchors = (
{
name = bottom;
position = "{508, 0}";
},
{
name = top;
position = "{508, 1349}";
}
);
layerId = "9209D6FA-1952-4593-83C2-3566FC124D27";
name = Light;
paths = (
{
closed = 1;
nodes = (
"214 0 LINE",
"974 0 LINE",
"974 88 LINE",
"275 88 LINE",
"328 33 LINE",
"328 1354 LINE",
"214 1354 LINE"
);
}
);
width = 1042;
}
);
unicode = 004C;
},
{
glyphname = M;
layers = (
{
layerId = "9209D6FA-1952-4593-83C2-3566FC124D27";
name = Light;
paths = (
{
closed = 1;
nodes = (
"214 0 LINE",
"321 0 LINE",
"321 1000 LINE",
"313 1324 LINE",
"290 1324 LINE",
"790 98 LINE",
"909 98 LINE",
"1411 1324 LINE",
"1380 1324 LINE",
"1371 1004 LINE",
"1371 0 LINE",
"1476 0 LINE",
"1476 1354 LINE",
"1314 1354 LINE",
"821 149 LINE",
"876 149 LINE",
"383 1354 LINE",
"214 1354 LINE"
);
}
);
width = 1690;
}
);
unicode = 004D;
},
{
glyphname = N;
layers = (
{
anchors = (
{
name = bottom;
position = "{762, 0}";
},
{
name = top;
position = "{762, 1349}";
}
);
layerId = "9209D6FA-1952-4593-83C2-3566FC124D27";
name = Light;
paths = (
{
closed = 1;
nodes = (
"214 0 LINE",
"312 0 LINE",
"312 844 LINE",
"300 1282 LINE",
"267 1262 LINE",
"1156 0 LINE",
"1264 0 LINE",
"1264 1354 LINE",
"1166 1354 LINE",
"1166 497 LINE",
"1174 80 LINE",
"1211 85 LINE",
"318 1354 LINE",
"214 1354 LINE"
);
}
);
width = 1478;
}
);
unicode = 004E;
},
{
glyphname = Eng;
layers = (
{
layerId = "9209D6FA-1952-4593-83C2-3566FC124D27";
name = Light;
paths = (
{
closed = 1;
nodes = (
"703 -292 OFFCURVE",
"753 -293 OFFCURVE",
"792 -293 CURVE SMOOTH",
"1110 -293 OFFCURVE",
"1118 -118 OFFCURVE",
"1118 155 CURVE SMOOTH",
"1118 947 LINE SMOOTH",
"1118 1248 OFFCURVE",
"1003 1396 OFFCURVE",
"787 1396 CURVE SMOOTH",
"617 1396 OFFCURVE",
"460 1378 OFFCURVE",
"241 1150 CURVE",
"229 1374 LINE",
"166 1374 LINE",
"170 0 LINE",
"233 0 LINE",
"233 1009 LINE",
"325 1135 OFFCURVE",
"481 1289 OFFCURVE",
"748 1289 CURVE SMOOTH",
"983 1289 OFFCURVE",
"1056 1206 OFFCURVE",
"1056 945 CURVE SMOOTH",
"1056 167 LINE SMOOTH",
"1056 -135 OFFCURVE",
"1039 -212 OFFCURVE",
"717 -212 CURVE SMOOTH",
"688 -212 OFFCURVE",
"700 -211 OFFCURVE",
"513 -201 CURVE",
"534 -276 LINE"
);
}
);
width = 1327;
}
);
unicode = 014A;
},
{
glyphname = O;
layers = (
{
anchors = (
{
name = top;
position = "{777, 1349}";
}
);
layerId = "9209D6FA-1952-4593-83C2-3566FC124D27";
name = Light;
paths = (
{
closed = 1;
nodes = (
"1299 319 OFFCURVE",
"1149 72 OFFCURVE",
"778 72 CURVE SMOOTH",
"407 72 OFFCURVE",
"254 319 OFFCURVE",
"254 666 CURVE SMOOTH",
"254 1031 OFFCURVE",
"420 1282 OFFCURVE",
"779 1282 CURVE SMOOTH",
"1139 1282 OFFCURVE",
"1299 1029 OFFCURVE",
"1299 666 CURVE SMOOTH"
);
},
{
closed = 1;
nodes = (
"140 259 OFFCURVE",
"347 -18 OFFCURVE",
"779 -18 CURVE SMOOTH",
"1203 -18 OFFCURVE",
"1413 268 OFFCURVE",
"1413 664 CURVE SMOOTH",
"1413 1083 OFFCURVE",
"1188 1372 OFFCURVE",
"780 1372 CURVE SMOOTH",
"359 1372 OFFCURVE",
"140 1087 OFFCURVE",
"140 666 CURVE SMOOTH"
);
}
);
width = 1553;
}
);
unicode = 004F;
},
{
glyphname = Oslash;
layers = (
{
anchors = (
{
name = top;
position = "{827, 1349}";
}
);
layerId = "9209D6FA-1952-4593-83C2-3566FC124D27";
name = Light;
paths = (
{
closed = 1;
nodes = (
"553 -154 LINE",
"610 2 LINE",
"672 -16 OFFCURVE",
"741 -26 OFFCURVE",
"820 -26 CURVE SMOOTH",
"1291 -26 OFFCURVE",
"1484 307 OFFCURVE",
"1484 729 CURVE SMOOTH",
"1484 1047 OFFCURVE",
"1378 1286 OFFCURVE",
"1163 1405 CURVE",
"1234 1586 LINE",
"1109 1626 LINE",
"1045 1455 LINE",
"978 1475 OFFCURVE",
"899 1486 OFFCURVE",
"817 1486 CURVE SMOOTH",
"370 1486 OFFCURVE",
"153 1183 OFFCURVE",
"153 728 CURVE SMOOTH",
"153 422 OFFCURVE",
"257 163 OFFCURVE",
"494 44 CURVE",
"433 -119 LINE"
);
},
{
closed = 1;
nodes = (
"538 160 LINE",
"349 264 OFFCURVE",
"257 484 OFFCURVE",
"257 735 CURVE SMOOTH",
"257 1078 OFFCURVE",
"442 1364 OFFCURVE",
"817 1364 CURVE SMOOTH",
"886 1364 OFFCURVE",
"945 1356 OFFCURVE",
"1003 1338 CURVE"
);
},
{
closed = 1;
nodes = (
"1375 393 OFFCURVE",
"1197 101 OFFCURVE",
"817 101 CURVE SMOOTH",
"756 101 OFFCURVE",
"706 106 OFFCURVE",
"654 121 CURVE",
"1120 1294 LINE",
"1291 1184 OFFCURVE",
"1375 978 OFFCURVE",
"1375 746 CURVE SMOOTH"
);
}
);
width = 1654;
}
);
unicode = 00D8;
},
{
glyphname = OE;
layers = (
{
anchors = (
{
name = top;
position = "{912, 1349}";
}
);
layerId = "9209D6FA-1952-4593-83C2-3566FC124D27";
name = Light;
paths = (
{
closed = 1;
nodes = (
"149 271 OFFCURVE",
"338 -24 OFFCURVE",
"802 -24 CURVE SMOOTH",
"902 -24 OFFCURVE",
"1082 42 OFFCURVE",
"1093 80 CURVE",
"1093 -3 LINE",
"1619 -3 LINE",
"1630 99 LINE",
"1189 99 LINE",
"1189 652 LINE",
"1560 652 LINE",
"1560 750 LINE",
"1189 750 LINE",
"1189 1277 LINE",
"1598 1277 LINE",
"1611 1374 LINE",
"1093 1374 LINE",
"1093 1291 LINE",
"1038 1354 OFFCURVE",
"914 1403 OFFCURVE",
"769 1403 CURVE SMOOTH",
"409 1403 OFFCURVE",
"163 1116 OFFCURVE",
"149 719 CURVE"
);
},
{
closed = 1;
nodes = (
"1062 137 OFFCURVE",
"907 71 OFFCURVE",
"806 71 CURVE SMOOTH",
"388 77 OFFCURVE",
"262 357 OFFCURVE",
"262 723 CURVE",
"273 1081 OFFCURVE",
"473 1308 OFFCURVE",
"794 1308 CURVE SMOOTH",
"910 1308 OFFCURVE",
"1019 1264 OFFCURVE",
"1093 1211 CURVE",
"1093 145 LINE"
);
}
);
width = 1824;
}
);
unicode = 0152;
},
{
glyphname = P;
layers = (
{
layerId = "9209D6FA-1952-4593-83C2-3566FC124D27";
name = Light;
paths = (
{
closed = 1;
nodes = (
"214 0 LINE",
"328 0 LINE",
"328 666 LINE",
"275 627 LINE",
"650 627 LINE SMOOTH",
"938 627 OFFCURVE",
"1064 772 OFFCURVE",
"1064 1009 CURVE SMOOTH",
"1064 1241 OFFCURVE",
"891 1354 OFFCURVE",
"655 1354 CURVE SMOOTH",
"214 1354 LINE"
);
},
{
closed = 1;
nodes = (
"950 800 OFFCURVE",
"847 715 OFFCURVE",
"652 715 CURVE SMOOTH",
"274 715 LINE",
"328 680 LINE",
"328 1317 LINE",
"274 1266 LINE",
"648 1266 LINE SMOOTH",
"821 1266 OFFCURVE",
"945 1185 OFFCURVE",
"950 1010 CURVE SMOOTH"
);
}
);
width = 1164;
}
);
unicode = 0050;
},
{
glyphname = Thorn;
layers = (
{
layerId = "9209D6FA-1952-4593-83C2-3566FC124D27";
name = Light;
paths = (
{
closed = 1;
nodes = (
"123 -11 LINE",
"244 -11 LINE",
"244 323 LINE",
"204 323 OFFCURVE",
"655 312 OFFCURVE",
"666 312 CURVE SMOOTH",
"1010 312 OFFCURVE",
"1075 494 OFFCURVE",
"1075 720 CURVE SMOOTH",
"1075 1003 OFFCURVE",
"929 1094 OFFCURVE",
"576 1094 CURVE SMOOTH",
"244 1094 LINE",
"244 1384 LINE",
"123 1384 LINE"
);
},
{
closed = 1;
nodes = (
"243 412 LINE",
"244 989 LINE",
"592 989 LINE SMOOTH",
"886 989 OFFCURVE",
"970 897 OFFCURVE",
"970 703 CURVE SMOOTH",
"970 544 OFFCURVE",
"908 412 OFFCURVE",
"639 412 CURVE SMOOTH"
);
}
);
width = 1250;
}
);
unicode = 00DE;
},
{
glyphname = Q;
layers = (
{
components = (
{
name = O;
transform = "{1, 0, 0, 1, 0, 0}";
}
);
layerId = "9209D6FA-1952-4593-83C2-3566FC124D27";
name = Light;
paths = (
{
closed = 1;
nodes = (
"991 -159 OFFCURVE",
"1137 -328 OFFCURVE",
"1185 -382 CURVE",
"1248 -321 LINE",
"1173 -243 OFFCURVE",
"1045 -85 OFFCURVE",
"996 20 CURVE",
"906 8 LINE"
);
}
);
width = 1553;
}
);
unicode = 0051;
},
{
glyphname = R;
layers = (
{
anchors = (
{
name = bottom;
position = "{678, 0}";
},
{
name = top;
position = "{678, 1349}";
}
);
layerId = "9209D6FA-1952-4593-83C2-3566FC124D27";
name = Light;
paths = (
{
closed = 1;
nodes = (
"214 0 LINE",
"328 0 LINE",
"328 715 LINE",
"275 675 LINE",
"275 675 OFFCURVE",
"840 687 OFFCURVE",
"873 691 CURVE",
"799 727 LINE",
"909 472 LINE",
"1099 0 LINE",
"1215 0 LINE",
"998 520 LINE SMOOTH",
"903 752 LINE",
"883 693 LINE",
"1061 730 OFFCURVE",
"1158 821 OFFCURVE",
"1158 1022 CURVE SMOOTH",
"1158 1232 OFFCURVE",
"1052 1354 OFFCURVE",
"775 1354 CURVE SMOOTH",
"214 1354 LINE"
);
},
{
closed = 1;
nodes = (
"328 725 LINE",
"328 1315 LINE",
"273 1266 LINE",
"773 1266 LINE SMOOTH",
"987 1266 OFFCURVE",
"1049 1177 OFFCURVE",
"1049 1021 CURVE SMOOTH",
"1049 847 OFFCURVE",
"1004 765 OFFCURVE",
"686 765 CURVE SMOOTH",
"275 765 LINE"
);
}
);
width = 1341;
}
);
unicode = 0052;
},
{
glyphname = S;
layers = (
{
anchors = (
{
name = bottom;
position = "{582, 0}";
},
{
name = top;
position = "{582, 1349}";
}
);
layerId = "9209D6FA-1952-4593-83C2-3566FC124D27";
name = Light;
paths = (
{
closed = 1;
nodes = (
"193 84 OFFCURVE",
"309 -18 OFFCURVE",
"566 -18 CURVE SMOOTH",
"807 -18 OFFCURVE",
"998 71 OFFCURVE",
"1013 343 CURVE SMOOTH",
"1026 583 OFFCURVE",
"864 647 OFFCURVE",
"684 720 CURVE SMOOTH",
"471 806 LINE SMOOTH",
"312 870 OFFCURVE",
"260 916 OFFCURVE",
"266 1049 CURVE SMOOTH",
"274 1233 OFFCURVE",
"438 1282 OFFCURVE",
"592 1282 CURVE SMOOTH",
"759 1282 OFFCURVE",
"875 1203 OFFCURVE",
"902 1184 CURVE",
"954 1255 LINE",
"894 1306 OFFCURVE",
"756 1372 OFFCURVE",
"604 1372 CURVE SMOOTH",
"397 1372 OFFCURVE",
"174 1311 OFFCURVE",
"160 1044 CURVE SMOOTH",
"151 865 OFFCURVE",
"266 786 OFFCURVE",
"441 717 CURVE SMOOTH",
"663 630 LINE SMOOTH",
"865 551 OFFCURVE",
"920 497 OFFCURVE",
"913 339 CURVE SMOOTH",
"904 146 OFFCURVE",
"782 72 OFFCURVE",
"571 72 CURVE SMOOTH",
"385 72 OFFCURVE",
"282 136 OFFCURVE",
"191 205 CURVE",
"146 125 LINE"
);
}
);
width = 1125.61;
}
);
unicode = 0053;
},
{
glyphname = T;
layers = (
{
anchors = (
{
name = bottom;
position = "{536, 0}";
},
{
name = center;
position = "{536, 675}";
},
{
name = top;
position = "{536, 1349}";
}
);
layerId = "9209D6FA-1952-4593-83C2-3566FC124D27";
name = Light;
paths = (
{
closed = 1;
nodes = (
"473 0 LINE",
"587 0 LINE",
"587 1315 LINE",
"547 1272 LINE",
"1011 1272 LINE",
"1011 1354 LINE",
"54 1354 LINE",
"54 1272 LINE",
"513 1272 LINE",
"473 1313 LINE"
);
}
);
width = 1065;
}
);
unicode = 0054;
},
{
glyphname = Tbar;
layers = (
{
layerId = "9209D6FA-1952-4593-83C2-3566FC124D27";
name = Light;
paths = (
{
closed = 1;
nodes = (
"484 0 LINE",
"645 0 LINE",
"645 483 LINE",
"793 483 LINE",
"793 595 LINE",
"645 595 LINE",
"645 1220 LINE",
"1053 1220 LINE",
"1053 1361 LINE",
"77 1361 LINE",
"77 1220 LINE",
"484 1220 LINE",
"484 595 LINE",
"330 595 LINE",
"330 483 LINE",
"484 483 LINE"
);
}
);
width = 1131;
}
);
unicode = 0166;
},
{
glyphname = U;
layers = (
{
anchors = (
{
name = ogonek;
position = "{1207, 10}";
},
{
name = top;
position = "{692, 1349}";
}
);
layerId = "9209D6FA-1952-4593-83C2-3566FC124D27";
name = Light;
paths = (
{
closed = 1;
nodes = (
"164 213 OFFCURVE",
"323 -18 OFFCURVE",
"688 -18 CURVE SMOOTH",
"1055 -18 OFFCURVE",
"1214 210 OFFCURVE",
"1214 499 CURVE SMOOTH",
"1214 1354 LINE",
"1100 1354 LINE",
"1100 498 LINE SMOOTH",
"1100 222 OFFCURVE",
"963 72 OFFCURVE",
"688 72 CURVE SMOOTH",
"398 72 OFFCURVE",
"278 223 OFFCURVE",
"278 499 CURVE SMOOTH",
"278 1354 LINE",
"164 1354 LINE",
"164 502 LINE SMOOTH"
);
}
);
width = 1378;
}
);
unicode = 0055;
},
{
glyphname = V;
layers = (
{
layerId = "9209D6FA-1952-4593-83C2-3566FC124D27";
name = Light;
paths = (
{
closed = 1;
nodes = (
"597 0 LINE",
"666 0 LINE",
"1194 1354 LINE",
"1081 1354 LINE",
"744 455 LINE",
"604 90 LINE",
"658 90 LINE",
"519 450 LINE",
"182 1354 LINE",
"68 1354 LINE"
);
}
);
width = 1262;
}
);
unicode = 0056;
},
{
glyphname = W;
layers = (
{
anchors = (
{
name = top;
position = "{978, 1349}";
}
);
layerId = "9209D6FA-1952-4593-83C2-3566FC124D27";
name = Light;
paths = (
{
closed = 1;
nodes = (
"496 0 LINE",
"607 0 LINE",
"1004 1272 LINE",
"957 1272 LINE",
"957 1272 OFFCURVE",
"1352 0 OFFCURVE",
"1352 0 CURVE",
"1466 0 LINE",
"1892 1353 LINE",
"1783 1353 LINE",
"1391 76 LINE",
"1431 76 LINE",
"1037 1315 LINE",
"920 1315 LINE",
"529 78 LINE",
"568 78 LINE",
"169 1353 LINE",
"64 1353 LINE"
);
}
);
width = 1956;
}
);
unicode = 0057;
},
{
glyphname = X;
layers = (
{
layerId = "9209D6FA-1952-4593-83C2-3566FC124D27";
name = Light;
paths = (
{
closed = 1;
nodes = (
"1032 0 LINE",
"1132 0 LINE",
"237 1354 LINE",
"134 1354 LINE"
);
},
{
closed = 1;
nodes = (
"150 0 LINE",
"255 0 LINE",
"649 619 LINE",
"691 650 LINE",
"1132 1354 LINE",
"1020 1354 LINE",
"639 726 LINE",
"585 689 LINE"
);
}
);
width = 1266;
}
);
unicode = 0058;
},
{
glyphname = Y;
layers = (
{
anchors = (
{
name = top;
position = "{586, 1349}";
}
);
layerId = "9209D6FA-1952-4593-83C2-3566FC124D27";
name = Light;
paths = (
{
closed = 1;
nodes = (
"534 0 LINE",
"648 0 LINE",
"648 624 LINE",
"609 501 LINE",
"1084 1354 LINE",
"978 1354 LINE",
"569 604 LINE",
"614 604 LINE",
"167 1354 LINE",
"62 1354 LINE",
"578 495 LINE",
"534 625 LINE"
);
}
);
width = 1146;
}
);
unicode = 0059;
},
{
glyphname = Z;
layers = (
{
anchors = (
{
name = top;
position = "{609, 1349}";
}
);
layerId = "9209D6FA-1952-4593-83C2-3566FC124D27";
name = Light;
paths = (
{
closed = 1;
nodes = (
"136 0 LINE",
"1008 0 LINE",
"1019 88 LINE",
"202 88 LINE",
"221 44 LINE",
"1013 1271 LINE",
"1004 1354 LINE",
"178 1354 LINE",
"178 1266 LINE",
"941 1266 LINE",
"914 1297 LINE",
"136 93 LINE"
);
}
);
width = 1131;
}
);
unicode = 005A;
},
{
glyphname = uni01C4;
layers = (
{
layerId = "9209D6FA-1952-4593-83C2-3566FC124D27";
name = Light;
paths = (
{
closed = 1;
nodes = (
"1506 0 LINE",
"2400 0 LINE",
"2409 87 LINE",
"1607 87 LINE",
"2401 1279 LINE",
"2401 1349 LINE",
"1536 1349 LINE",
"1537 1261 LINE",
"2283 1261 LINE",
"1506 92 LINE"
);
},
{
closed = 1;
nodes = (
"1964 1583 LINE",
"2161 1583 LINE",
"2272 1947 LINE",
"2213 1947 LINE",
"2070 1588 LINE",
"1910 1947 LINE",
"1853 1947 LINE"
);
},
{
closed = 1;
nodes = (
"230 82 LINE",
"230 1265 LINE",
"479 1265 LINE SMOOTH",
"875 1265 OFFCURVE",
"1123 1101 OFFCURVE",
"1123 669 CURVE SMOOTH",
"1123 276 OFFCURVE",
"902 82 OFFCURVE",
"505 82 CURVE SMOOTH"
);
},
{
closed = 1;
nodes = (
"141 0 LINE",
"525 0 LINE SMOOTH",
"961 0 OFFCURVE",
"1214 223 OFFCURVE",
"1214 673 CURVE SMOOTH",
"1214 1150 OFFCURVE",
"931 1349 OFFCURVE",
"496 1349 CURVE SMOOTH",
"141 1349 LINE"
);
}
);
width = 2598;
}
);
unicode = 01C4;
},
{
glyphname = uni01C7;
layers = (
{
layerId = "9209D6FA-1952-4593-83C2-3566FC124D27";
name = Light;
paths = (
{
closed = 1;
nodes = (
"1806 -130 OFFCURVE",
"1774 -131 OFFCURVE",
"1797 -136 CURVE",
"1773 -25 LINE",
"1743 -21 OFFCURVE",
"1830 -19 OFFCURVE",
"1813 -19 CURVE SMOOTH",
"2004 -19 OFFCURVE",
"2000 98 OFFCURVE",
"2000 226 CURVE SMOOTH",
"2000 1349 LINE",
"2088 1349 LINE",
"2088 268 LINE SMOOTH",
"2088 0 OFFCURVE",
"2106 -130 OFFCURVE",
"1783 -130 CURVE SMOOTH"
);
},
{
closed = 1;
nodes = (
"-277 0 LINE",
"415 0 LINE",
"419 92 LINE",
"-187 92 LINE",
"-187 1349 LINE",
"-277 1349 LINE"
);
}
);
width = 1586;
}
);
unicode = 01C7;
},
{
glyphname = uni01CA;
layers = (
{
layerId = "9209D6FA-1952-4593-83C2-3566FC124D27";
name = Light;
paths = (
{
closed = 1;
nodes = (
"-278 0 LINE",
"-225 0 LINE",
"-225 1034 LINE SMOOTH",
"-225 1200 OFFCURVE",
"-212 1247 OFFCURVE",
"-212 1247 CURVE",
"237 617 OFFCURVE",
"260 625 OFFCURVE",
"714 0 CURVE",
"795 0 LINE",
"795 1349 LINE",
"742 1349 LINE",
"742 393 LINE SMOOTH",
"742 322 OFFCURVE",
"739 60 OFFCURVE",
"738 110 CURVE",
"286 739 OFFCURVE",
"263 725 OFFCURVE",
"-193 1349 CURVE",
"-278 1349 LINE"
);
},
{
closed = 1;
nodes = (
"2586 -136 LINE",
"2563 -131 OFFCURVE",
"2595 -130 OFFCURVE",
"2572 -130 CURVE SMOOTH",
"2895 -130 OFFCURVE",
"2879 0 OFFCURVE",
"2879 268 CURVE SMOOTH",
"2879 1349 LINE",
"2789 1349 LINE",
"2789 226 LINE SMOOTH",
"2789 98 OFFCURVE",
"2793 -19 OFFCURVE",
"2602 -19 CURVE SMOOTH",
"2619 -19 OFFCURVE",
"2532 -21 OFFCURVE",
"2562 -25 CURVE"
);
}
);
width = 2051;
}
);
unicode = 01CA;
},
{
glyphname = uni01F1;
layers = (
{
layerId = "9209D6FA-1952-4593-83C2-3566FC124D27";
name = Light;
paths = (
{
closed = 1;
nodes = (
"1506 0 LINE",
"2400 0 LINE",
"2409 87 LINE",
"1607 87 LINE",
"2401 1279 LINE",
"2401 1349 LINE",
"1536 1349 LINE",
"1537 1261 LINE",
"2283 1261 LINE",
"1506 92 LINE"
);
},
{
closed = 1;
nodes = (
"230 82 LINE",
"230 1265 LINE",
"479 1265 LINE SMOOTH",
"875 1265 OFFCURVE",
"1123 1101 OFFCURVE",
"1123 669 CURVE SMOOTH",
"1123 276 OFFCURVE",
"902 82 OFFCURVE",
"505 82 CURVE SMOOTH"
);
},
{
closed = 1;
nodes = (
"141 0 LINE",
"525 0 LINE SMOOTH",
"961 0 OFFCURVE",
"1214 223 OFFCURVE",
"1214 673 CURVE SMOOTH",
"1214 1150 OFFCURVE",
"931 1349 OFFCURVE",
"496 1349 CURVE SMOOTH",
"141 1349 LINE"
);
}
);
width = 2598;
}
);
unicode = 01F1;
},
{
glyphname = a;
layers = (
{
anchors = (
{
name = ogonek;
position = "{936, 10}";
},
{
name = top;
position = "{519, 986}";
}
);
layerId = "9209D6FA-1952-4593-83C2-3566FC124D27";
name = Light;
paths = (
{
closed = 1;
nodes = (
"118 74 OFFCURVE",
"245 -14 OFFCURVE",
"425 -14 CURVE SMOOTH",
"546 -14 OFFCURVE",
"705 16 OFFCURVE",
"828 198 CURVE",
"795 198 LINE",
"818 4 LINE",
"898 4 LINE",
"898 656 LINE SMOOTH",
"898 918 OFFCURVE",
"742 1005 OFFCURVE",
"519 1005 CURVE SMOOTH",
"406 1005 OFFCURVE",
"257 968 OFFCURVE",
"182 923 CURVE",
"190 900 OFFCURVE",
"209 864 OFFCURVE",
"219 842 CURVE",
"308 891 OFFCURVE",
"438 919 OFFCURVE",
"539 919 CURVE SMOOTH",
"710 919 OFFCURVE",
"787 828 OFFCURVE",
"787 676 CURVE SMOOTH",
"787 550 LINE",
"817 583 LINE",
"615 577 LINE SMOOTH",
"282 567 OFFCURVE",
"118 458 OFFCURVE",
"118 249 CURVE SMOOTH"
);
},
{
closed = 1;
nodes = (
"715 134 OFFCURVE",
"577 72 OFFCURVE",
"415 72 CURVE SMOOTH",
"325 72 OFFCURVE",
"230 115 OFFCURVE",
"230 246 CURVE SMOOTH",
"230 401 OFFCURVE",
"324 479 OFFCURVE",
"646 500 CURVE SMOOTH",
"817 511 LINE",
"787 538 LINE",
"787 221 LINE",
"817 329 LINE"
);
}
);
width = 1076;
}
);
unicode = 0061;
},
{
glyphname = b;
layers = (
{
layerId = "9209D6FA-1952-4593-83C2-3566FC124D27";
name = Light;
paths = (
{
closed = 1;
nodes = (
"277 171 OFFCURVE",
"398 -18 OFFCURVE",
"630 -18 CURVE SMOOTH",
"917 -18 OFFCURVE",
"1065 180 OFFCURVE",
"1065 486 CURVE SMOOTH",
"1065 800 OFFCURVE",
"929 1004 OFFCURVE",
"638 1004 CURVE SMOOTH",
"468 1004 OFFCURVE",
"327 896 OFFCURVE",
"267 747 CURVE",
"297 747 LINE",
"297 985 LINE",
"297 1392 LINE",
"180 1382 LINE",
"180 0 LINE",
"268 0 LINE",
"285 293 LINE",
"240 291 LINE"
);
},
{
closed = 1;
nodes = (
"951 240 OFFCURVE",
"866 68 OFFCURVE",
"635 68 CURVE SMOOTH",
"424 68 OFFCURVE",
"294 223 OFFCURVE",
"294 506 CURVE",
"293 739 OFFCURVE",
"393 918 OFFCURVE",
"643 918 CURVE SMOOTH",
"878 918 OFFCURVE",
"951 724 OFFCURVE",
"951 488 CURVE SMOOTH"
);
}
);
width = 1185;
}
);
unicode = 0062;
},
{
glyphname = c;
layers = (
{
anchors = (
{
name = bottom;
position = "{471, 0}";
},
{
name = top;
position = "{471, 986}";
}
);
layerId = "9209D6FA-1952-4593-83C2-3566FC124D27";
name = Light;
paths = (
{
closed = 1;
nodes = (
"120 204 OFFCURVE",
"298 -18 OFFCURVE",
"579 -18 CURVE SMOOTH",
"690 -18 OFFCURVE",
"795 15 OFFCURVE",
"832 46 CURVE",
"804 118 LINE",
"762 94 OFFCURVE",
"676 68 OFFCURVE",
"595 68 CURVE SMOOTH",
"342 68 OFFCURVE",
"232 265 OFFCURVE",
"232 483 CURVE SMOOTH",
"232 732 OFFCURVE",
"358 918 OFFCURVE",
"609 918 CURVE SMOOTH",
"624 918 OFFCURVE",
"699 921 OFFCURVE",
"794 869 CURVE",
"832 942 LINE",
"776 975 OFFCURVE",
"687 1004 OFFCURVE",
"592 1004 CURVE SMOOTH",
"309 1004 OFFCURVE",
"120 784 OFFCURVE",
"120 483 CURVE SMOOTH"
);
}
);
width = 937;
}
);
unicode = 0063;
},
{
glyphname = d;
layers = (
{
anchors = (
{
name = center;
position = "{566, 492}";
}
);
layerId = "9209D6FA-1952-4593-83C2-3566FC124D27";
name = Light;
paths = (
{
closed = 1;
nodes = (
"120 185 OFFCURVE",
"264 -18 OFFCURVE",
"551 -18 CURVE SMOOTH",
"771 -18 OFFCURVE",
"875 134 OFFCURVE",
"924 292 CURVE",
"891 296 LINE",
"906 0 LINE",
"997 0 LINE",
"997 1392 LINE",
"883 1382 LINE",
"883 1067 LINE SMOOTH",
"894 711 LINE",
"923 716 LINE",
"862 860 OFFCURVE",
"786 1004 OFFCURVE",
"548 1004 CURVE SMOOTH",
"280 1004 OFFCURVE",
"120 797 OFFCURVE",
"120 499 CURVE SMOOTH"
);
},
{
closed = 1;
nodes = (
"886 249 OFFCURVE",
"794 68 OFFCURVE",
"547 68 CURVE SMOOTH",
"315 68 OFFCURVE",
"234 261 OFFCURVE",
"234 497 CURVE SMOOTH",
"234 745 OFFCURVE",
"326 918 OFFCURVE",
"554 918 CURVE SMOOTH",
"762 918 OFFCURVE",
"886 753 OFFCURVE",
"886 482 CURVE SMOOTH"
);
}
);
width = 1177;
}
);
unicode = 0064;
},
{
glyphname = eth;
layers = (
{
layerId = "9209D6FA-1952-4593-83C2-3566FC124D27";
name = Light;
paths = (
{
closed = 1;
nodes = (
"148 210 OFFCURVE",
"292 -27 OFFCURVE",
"603 -27 CURVE SMOOTH",
"923 -27 OFFCURVE",
"1059 204 OFFCURVE",
"1059 464 CURVE",
"1059 587 OFFCURVE",
"1035 693 OFFCURVE",
"966 826 CURVE",
"903 942 OFFCURVE",
"794 1079 OFFCURVE",
"620 1261 CURVE",
"870 1354 LINE",
"844 1436 LINE",
"563 1330 LINE",
"410 1490 LINE",
"272 1490 LINE",
"508 1288 LINE",
"276 1200 LINE",
"299 1112 LINE",
"565 1222 LINE",
"795 1002 OFFCURVE",
"886 868 OFFCURVE",
"931 769 CURVE",
"865 825 OFFCURVE",
"761 900 OFFCURVE",
"580 900 CURVE SMOOTH",
"319 900 OFFCURVE",
"148 718 OFFCURVE",
"148 448 CURVE SMOOTH"
);
},
{
closed = 1;
nodes = (
"953 227 OFFCURVE",
"831 55 OFFCURVE",
"608 55 CURVE SMOOTH",
"369 55 OFFCURVE",
"262 255 OFFCURVE",
"262 446 CURVE SMOOTH",
"262 630 OFFCURVE",
"388 804 OFFCURVE",
"602 804 CURVE SMOOTH",
"832 804 OFFCURVE",
"953 604 OFFCURVE",
"953 430 CURVE SMOOTH"
);
}
);
width = 1231;
}
);
unicode = 00F0;
},
{
glyphname = dcroat;
layers = (
{
layerId = "9209D6FA-1952-4593-83C2-3566FC124D27";
name = Light;
paths = (
{
closed = 1;
nodes = (
"126 198 OFFCURVE",
"286 -21 OFFCURVE",
"565 -21 CURVE SMOOTH",
"702 -21 OFFCURVE",
"829 45 OFFCURVE",
"884 163 CURVE",
"901 0 LINE",
"1058 0 LINE",
"1058 1431 LINE",
"884 1417 LINE",
"884 1053 LINE SMOOTH",
"884 991 OFFCURVE",
"884 928 OFFCURVE",
"888 862 CURVE",
"822 955 OFFCURVE",
"696 1019 OFFCURVE",
"564 1019 CURVE SMOOTH",
"304 1019 OFFCURVE",
"126 807 OFFCURVE",
"126 504 CURVE SMOOTH"
);
},
{
closed = 1;
nodes = (
"128 1118 LINE",
"591 1118 LINE",
"591 1220 LINE",
"128 1220 LINE"
);
},
{
closed = 1;
nodes = (
"884 252 OFFCURVE",
"798 108 OFFCURVE",
"592 108 CURVE SMOOTH",
"398 108 OFFCURVE",
"301 265 OFFCURVE",
"301 499 CURVE SMOOTH",
"301 738 OFFCURVE",
"401 891 OFFCURVE",
"592 891 CURVE SMOOTH",
"807 891 OFFCURVE",
"884 741 OFFCURVE",
"884 482 CURVE SMOOTH"
);
}
);
width = 1193;
}
);
unicode = 0111;
},
{
glyphname = e;
lastChange = "2013-02-09 20:34:09 -0800";
layers = (
{
anchors = (
{
name = bottom;
position = "{530, 0}";
},
{
name = ogonek;
position = "{934, 10}";
},
{
name = top;
position = "{530, 986}";
}
);
layerId = "9209D6FA-1952-4593-83C2-3566FC124D27";
name = Light;
paths = (
{
closed = 1;
nodes = (
"120 171 OFFCURVE",
"312 -18 OFFCURVE",
"581 -18 CURVE SMOOTH",
"725 -18 OFFCURVE",
"836 17 OFFCURVE",
"930 69 CURVE",
"896 143 LINE",
"780 86 OFFCURVE",
"687 70 OFFCURVE",
"590 70 CURVE SMOOTH",
"387 70 OFFCURVE",
"228 194 OFFCURVE",
"228 511 CURVE",
"190 487 LINE",
"947 487 LINE",
"947 487 OFFCURVE",
"952 521 OFFCURVE",
"952 550 CURVE SMOOTH",
"952 827 OFFCURVE",
"816 1004 OFFCURVE",
"576 1004 CURVE SMOOTH",
"333 1004 OFFCURVE",
"120 812 OFFCURVE",
"120 485 CURVE SMOOTH"
);
},
{
closed = 1;
nodes = (
"231 527 LINE",
"242 754 OFFCURVE",
"375 918 OFFCURVE",
"581 918 CURVE SMOOTH",
"775 918 OFFCURVE",
"859 778 OFFCURVE",
"859 518 CURVE",
"905 558 LINE",
"190 558 LINE"
);
}
);
width = 1074;
}
);
unicode = 0065;
},
{
glyphname = f;
layers = (
{
layerId = "9209D6FA-1952-4593-83C2-3566FC124D27";
name = Light;
paths = (
{
closed = 1;
nodes = (
"267 0 LINE",
"381 0 LINE",
"381 947 LINE",
"341 919 LINE",
"617 919 LINE",
"617 986 LINE",
"343 986 LINE",
"381 963 LINE",
"381 1065 LINE SMOOTH",
"381 1279 OFFCURVE",
"444 1304 OFFCURVE",
"544 1304 CURVE SMOOTH",
"588 1304 OFFCURVE",
"650 1294 OFFCURVE",
"650 1294 CURVE",
"657 1371 LINE",
"657 1371 OFFCURVE",
"596 1385 OFFCURVE",
"522 1385 CURVE SMOOTH",
"357 1385 OFFCURVE",
"267 1297 OFFCURVE",
"267 1061 CURVE SMOOTH",
"267 963 LINE",
"307 989 LINE",
"77 970 LINE",
"72 919 LINE",
"297 919 LINE",
"267 949 LINE"
);
}
);
width = 701;
}
);
unicode = 0066;
},
{
glyphname = g;
layers = (
{
anchors = (
{
name = top;
position = "{604, 986}";
}
);
layerId = "9209D6FA-1952-4593-83C2-3566FC124D27";
name = Light;
paths = (
{
closed = 1;
nodes = (
"378 -394 OFFCURVE",
"453 -398 OFFCURVE",
"519 -398 CURVE SMOOTH",
"957 -398 OFFCURVE",
"1030 -194 OFFCURVE",
"1030 89 CURVE SMOOTH",
"1030 986 LINE",
"923 986 LINE",
"910 756 LINE",
"941 756 LINE",
"891 892 OFFCURVE",
"775 1004 OFFCURVE",
"580 1004 CURVE SMOOTH",
"232 1004 OFFCURVE",
"120 731 OFFCURVE",
"120 481 CURVE SMOOTH",
"120 273 OFFCURVE",
"243 0 OFFCURVE",
"566 0 CURVE SMOOTH",
"789 0 OFFCURVE",
"913 151 OFFCURVE",
"947 268 CURVE",
"913 266 LINE",
"913 89 LINE SMOOTH",
"913 -204 OFFCURVE",
"838 -304 OFFCURVE",
"493 -304 CURVE SMOOTH",
"433 -304 OFFCURVE",
"364 -301 OFFCURVE",
"286 -295 CURVE",
"295 -384 LINE"
);
},
{
closed = 1;
nodes = (
"916 267 OFFCURVE",
"808 87 OFFCURVE",
"561 87 CURVE SMOOTH",
"310 87 OFFCURVE",
"234 326 OFFCURVE",
"234 490 CURVE SMOOTH",
"234 651 OFFCURVE",
"304 918 OFFCURVE",
"559 918 CURVE",
"813 918 OFFCURVE",
"916 739 OFFCURVE",
"916 548 CURVE SMOOTH",
"916 440 LINE SMOOTH"
);
}
);
width = 1200;
}
);
unicode = 0067;
},
{
glyphname = h;
layers = (
{
anchors = (
{
name = center;
position = "{551, 494}";
},
{
name = top;
position = "{551, 986}";
}
);
layerId = "9209D6FA-1952-4593-83C2-3566FC124D27";
name = Light;
paths = (
{
closed = 1;
nodes = (
"180 0 LINE",
"294 0 LINE",
"294 567 LINE SMOOTH",
"294 725 OFFCURVE",
"361 918 OFFCURVE",
"621 918 CURVE SMOOTH",
"789 918 OFFCURVE",
"850 812 OFFCURVE",
"850 606 CURVE SMOOTH",
"850 0 LINE",
"964 0 LINE",
"964 605 LINE SMOOTH",
"964 851 OFFCURVE",
"857 1004 OFFCURVE",
"637 1004 CURVE SMOOTH",
"454 1004 OFFCURVE",
"315 919 OFFCURVE",
"255 753 CURVE",
"288 743 LINE",
"294 1029 LINE",
"294 1392 LINE",
"180 1382 LINE"
);
}
);
width = 1134;
}
);
unicode = 0068;
},
{
glyphname = hbar;
layers = (
{
layerId = "9209D6FA-1952-4593-83C2-3566FC124D27";
name = Light;
paths = (
{
closed = 1;
nodes = (
"275 0 LINE",
"358 0 LINE",
"358 678 LINE",
"370 779 OFFCURVE",
"517 924 OFFCURVE",
"705 924 CURVE SMOOTH",
"912 924 OFFCURVE",
"944 797 OFFCURVE",
"944 532 CURVE SMOOTH",
"944 0 LINE",
"1027 0 LINE",
"1027 597 LINE SMOOTH",
"1027 829 OFFCURVE",
"972 1016 OFFCURVE",
"751 1016 CURVE SMOOTH",
"578 1016 OFFCURVE",
"448 948 OFFCURVE",
"358 828 CURVE",
"358 1188 LINE",
"602 1188 LINE",
"602 1269 LINE",
"358 1269 LINE",
"358 1365 LINE",
"275 1347 LINE",
"275 1269 LINE",
"194 1269 LINE",
"194 1188 LINE",
"275 1188 LINE"
);
}
);
width = 1196;
}
);
unicode = 0127;
},
{
glyphname = i;
layers = (
{
layerId = "9209D6FA-1952-4593-83C2-3566FC124D27";
name = Light;
paths = (
{
closed = 1;
nodes = (
"180 0 LINE",
"294 0 LINE",
"294 986 LINE",
"180 986 LINE"
);
},
{
closed = 1;
nodes = (
"180 1209 LINE",
"294 1209 LINE",
"294 1354 LINE",
"180 1354 LINE"
);
}
);
width = 470;
}
);
unicode = 0069;
},
{
glyphname = dotlessi;
layers = (
{
anchors = (
{
name = ogonek;
position = "{327, 10}";
},
{
name = top;
position = "{182, 986}";
}
);
layerId = "9209D6FA-1952-4593-83C2-3566FC124D27";
name = Light;
paths = (
{
closed = 1;
nodes = (
"146 0 LINE",
"230 0 LINE",
"230 988 LINE",
"146 988 LINE"
);
}
);
width = 363;
}
);
unicode = 0131;
},
{
glyphname = j;
layers = (
{
layerId = "9209D6FA-1952-4593-83C2-3566FC124D27";
name = Light;
paths = (
{
closed = 1;
nodes = (
"47 -411 LINE",
"86 -411 LINE SMOOTH",
"281 -411 OFFCURVE",
"331 -359 OFFCURVE",
"331 -139 CURVE SMOOTH",
"331 986 LINE",
"215 986 LINE",
"215 -84 LINE SMOOTH",
"215 -270 OFFCURVE",
"214 -303 OFFCURVE",
"71 -303 CURVE SMOOTH",
"34 -303 LINE"
);
},
{
closed = 1;
nodes = (
"215 1209 LINE",
"331 1209 LINE",
"331 1354 LINE",
"215 1354 LINE"
);
}
);
width = 501;
}
);
unicode = 006A;
},
{
glyphname = uni0237;
layers = (
{
anchors = (
{
name = top;
position = "{192, 986}";
}
);
layerId = "9209D6FA-1952-4593-83C2-3566FC124D27";
name = Light;
paths = (
{
closed = 1;
nodes = (
"-64 -448 LINE",
"-13 -448 LINE SMOOTH",
"193 -448 OFFCURVE",
"237 -397 OFFCURVE",
"237 -178 CURVE SMOOTH",
"237 1005 LINE",
"104 1005 LINE",
"104 -126 LINE SMOOTH",
"104 -283 OFFCURVE",
"142 -343 OFFCURVE",
"-42 -343 CURVE SMOOTH",
"-95 -343 LINE"
);
}
);
width = 384;
}
);
unicode = 0237;
},
{
glyphname = k;
layers = (
{
anchors = (
{
name = bottom;
position = "{505, 0}";
}
);
layerId = "9209D6FA-1952-4593-83C2-3566FC124D27";
name = Light;
paths = (
{
closed = 1;
nodes = (
"180 0 LINE",
"294 0 LINE",
"294 393 LINE",
"262 328 LINE",
"449 496 LINE",
"394 496 LINE",
"851 0 LINE",
"983 0 LINE",
"461 556 LINE",
"461 504 LINE",
"977 986 LINE",
"844 986 LINE",
"257 435 LINE",
"288 435 LINE",
"294 657 LINE",
"294 1392 LINE",
"180 1382 LINE"
);
}
);
width = 1021;
}
);
unicode = 006B;
},
{
glyphname = kgreenlandic;
layers = (
{
layerId = "9209D6FA-1952-4593-83C2-3566FC124D27";
name = Light;
paths = (
{
closed = 1;
nodes = (
"130 0 LINE",
"281 0 LINE",
"281 373 LINE",
"392 469 LINE",
"757 0 LINE",
"946 0 LINE",
"502 555 LINE",
"917 998 LINE",
"724 998 LINE",
"589 855 OFFCURVE",
"431 690 OFFCURVE",
"315 557 CURVE SMOOTH",
"303 544 OFFCURVE",
"292 532 OFFCURVE",
"281 520 CURVE",
"281 999 LINE",
"130 999 LINE"
);
}
);
width = 1047;
}
);
unicode = 0138;
},
{
glyphname = l;
layers = (
{
anchors = (
{
name = bottom;
position = "{236, 0}";
},
{
name = top;
position = "{236, 986}";
},
{
name = topright;
position = "{437, 986}";
}
);
layerId = "9209D6FA-1952-4593-83C2-3566FC124D27";
name = Light;
paths = (
{
closed = 1;
nodes = (
"180 28 OFFCURVE",
"276 -11 OFFCURVE",
"398 -11 CURVE SMOOTH",
"421 -11 OFFCURVE",
"445 -10 OFFCURVE",
"469 -8 CURVE",
"462 72 LINE",
"453 72 OFFCURVE",
"445 71 OFFCURVE",
"437 71 CURVE SMOOTH",
"313 71 OFFCURVE",
"294 117 OFFCURVE",
"294 232 CURVE SMOOTH",
"294 1392 LINE",
"180 1382 LINE",
"180 242 LINE SMOOTH"
);
}
);
width = 533;
}
);
unicode = 006C;
},
{
glyphname = ldot;
layers = (
{
layerId = "9209D6FA-1952-4593-83C2-3566FC124D27";
name = Light;
paths = (
{
closed = 1;
nodes = (
"135 45 OFFCURVE",
"244 -18 OFFCURVE",
"401 -18 CURVE SMOOTH",
"427 -18 OFFCURVE",
"485 -14 OFFCURVE",
"551 -3 CURVE",
"542 122 LINE",
"513 118 OFFCURVE",
"471 116 OFFCURVE",
"445 116 CURVE SMOOTH",
"313 116 OFFCURVE",
"309 163 OFFCURVE",
"309 360 CURVE SMOOTH",
"309 1431 LINE",
"135 1417 LINE",
"135 305 LINE SMOOTH"
);
},
{
closed = 1;
nodes = (
"802 511 LINE",
"955 511 LINE",
"955 691 LINE",
"802 691 LINE"
);
}
);
width = 1062;
}
);
unicode = 0140;
},
{
glyphname = m;
layers = (
{
layerId = "9209D6FA-1952-4593-83C2-3566FC124D27";
name = Light;
paths = (
{
closed = 1;
nodes = (
"180 0 LINE",
"294 0 LINE",
"294 653 LINE",
"329 802 OFFCURVE",
"439 918 OFFCURVE",
"589 918 CURVE SMOOTH",
"743 918 OFFCURVE",
"790 809 OFFCURVE",
"790 545 CURVE SMOOTH",
"790 0 LINE",
"904 0 LINE",
"904 475 LINE SMOOTH",
"904 566 OFFCURVE",
"903 618 OFFCURVE",
"907 641 CURVE SMOOTH",
"949 848 OFFCURVE",
"1071 918 OFFCURVE",
"1189 918 CURVE SMOOTH",
"1395 918 OFFCURVE",
"1386 694 OFFCURVE",
"1386 561 CURVE SMOOTH",
"1386 0 LINE",
"1500 0 LINE",
"1500 639 LINE SMOOTH",
"1500 879 OFFCURVE",
"1404 1004 OFFCURVE",
"1209 1004 CURVE SMOOTH",
"1019 1004 OFFCURVE",
"906 874 OFFCURVE",
"849 734 CURVE",
"879 734 LINE",
"849 865 OFFCURVE",
"791 1004 OFFCURVE",
"593 1004 CURVE SMOOTH",
"437 1004 OFFCURVE",
"327 895 OFFCURVE",
"254 762 CURVE",
"293 751 LINE",
"272 986 LINE",
"180 986 LINE"
);
}
);
width = 1670;
}
);
unicode = 006D;
},
{
glyphname = n;
layers = (
{
anchors = (
{
name = bottom;
position = "{545, 0}";
},
{
name = top;
position = "{545, 986}";
}
);
layerId = "9209D6FA-1952-4593-83C2-3566FC124D27";
name = Light;
paths = (
{
closed = 1;
nodes = (
"180 0 LINE",
"294 0 LINE",
"294 579 LINE SMOOTH",
"294 745 OFFCURVE",
"361 918 OFFCURVE",
"621 918 CURVE SMOOTH",
"795 918 OFFCURVE",
"845 806 OFFCURVE",
"844 630 CURVE SMOOTH",
"844 0 LINE",
"958 0 LINE",
"958 594 LINE SMOOTH",
"958 873 OFFCURVE",
"858 1004 OFFCURVE",
"632 1004 CURVE SMOOTH",
"437 1004 OFFCURVE",
"324 914 OFFCURVE",
"270 786 CURVE",
"304 786 LINE",
"285 986 LINE",
"180 986 LINE"
);
}
);
width = 1128;
}
);
unicode = 006E;
},
{
glyphname = eng;
layers = (
{
layerId = "9209D6FA-1952-4593-83C2-3566FC124D27";
name = Light;
paths = (
{
closed = 1;
nodes = (
"594 -237 LINE",
"658 -237 LINE",
"893 -237 OFFCURVE",
"921 -100 OFFCURVE",
"921 172 CURVE",
"921 594 LINE SMOOTH",
"921 873 OFFCURVE",
"830 1005 OFFCURVE",
"604 1005 CURVE SMOOTH",
"460 1005 OFFCURVE",
"354 952 OFFCURVE",
"288 824 CURVE",
"273 986 LINE",
"169 986 LINE",
"169 0 LINE",
"283 0 LINE",
"283 579 LINE SMOOTH",
"283 607 OFFCURVE",
"286 634 OFFCURVE",
"286 668 CURVE",
"312 809 OFFCURVE",
"383 919 OFFCURVE",
"593 919 CURVE SMOOTH",
"767 919 OFFCURVE",
"807 806 OFFCURVE",
"807 630 CURVE",
"807 122 LINE SMOOTH",
"807 -94 OFFCURVE",
"790 -119 OFFCURVE",
"617 -119 CURVE SMOOTH",
"594 -119 LINE"
);
}
);
width = 1137;
}
);
unicode = 014B;
},
{
glyphname = o;
lastChange = "2013-02-09 20:32:42 -0800";
layers = (
{
anchors = (
{
name = top;
position = "{575, 986}";
}
);
layerId = "9209D6FA-1952-4593-83C2-3566FC124D27";
name = Light;
paths = (
{
closed = 1;
nodes = (
"919 259 OFFCURVE",
"816 68 OFFCURVE",
"576 68 CURVE SMOOTH",
"345 68 OFFCURVE",
"233 259 OFFCURVE",
"233 488 CURVE SMOOTH",
"233 726 OFFCURVE",
"345 918 OFFCURVE",
"576 918 CURVE SMOOTH",
"813 918 OFFCURVE",
"919 725 OFFCURVE",
"919 487 CURVE SMOOTH"
);
},
{
closed = 1;
nodes = (
"121 200 OFFCURVE",
"291 -18 OFFCURVE",
"576 -18 CURVE SMOOTH",
"844 -18 OFFCURVE",
"1031 203 OFFCURVE",
"1031 490 CURVE SMOOTH",
"1031 790 OFFCURVE",
"869 1004 OFFCURVE",
"576 1004 CURVE SMOOTH",
"291 1004 OFFCURVE",
"121 785 OFFCURVE",
"121 490 CURVE SMOOTH"
);
}
);
width = 1150;
}
);
unicode = 006F;
},
{
glyphname = oslash;
layers = (
{
anchors = (
{
name = top;
position = "{623, 986}";
}
);
layerId = "9209D6FA-1952-4593-83C2-3566FC124D27";
name = Light;
paths = (
{
closed = 1;
nodes = (
"316 -281 LINE",
"441 4 LINE",
"493 -18 OFFCURVE",
"553 -29 OFFCURVE",
"618 -29 CURVE SMOOTH",
"908 -29 OFFCURVE",
"1069 230 OFFCURVE",
"1069 493 CURVE SMOOTH",
"1069 688 OFFCURVE",
"995 871 OFFCURVE",
"844 958 CURVE",
"967 1258 LINE",
"904 1288 LINE",
"784 987 LINE",
"737 1004 OFFCURVE",
"678 1016 OFFCURVE",
"619 1016 CURVE SMOOTH",
"324 1016 OFFCURVE",
"150 764 OFFCURVE",
"150 490 CURVE SMOOTH",
"150 299 OFFCURVE",
"232 121 OFFCURVE",
"380 33 CURVE",
"259 -250 LINE"
);
},
{
closed = 1;
nodes = (
"414 112 LINE",
"300 194 OFFCURVE",
"247 342 OFFCURVE",
"247 481 CURVE SMOOTH",
"247 679 OFFCURVE",
"354 926 OFFCURVE",
"618 926 CURVE SMOOTH",
"669 926 OFFCURVE",
"713 918 OFFCURVE",
"752 904 CURVE"
);
},
{
closed = 1;
nodes = (
"973 296 OFFCURVE",
"885 63 OFFCURVE",
"620 63 CURVE SMOOTH",
"565 63 OFFCURVE",
"515 72 OFFCURVE",
"473 90 CURVE",
"812 886 LINE",
"929 806 OFFCURVE",
"973 651 OFFCURVE",
"973 497 CURVE SMOOTH"
);
}
);
width = 1248;
}
);
unicode = 00F8;
},
{
glyphname = p;
layers = (
{
layerId = "9209D6FA-1952-4593-83C2-3566FC124D27";
name = Light;
paths = (
{
closed = 1;
nodes = (
"180 -449 LINE",
"294 -441 LINE",
"294 -81 LINE SMOOTH",
"282 324 LINE",
"249 294 LINE",
"299 139 OFFCURVE",
"421 -18 OFFCURVE",
"637 -18 CURVE SMOOTH",
"905 -18 OFFCURVE",
"1057 188 OFFCURVE",
"1057 486 CURVE SMOOTH",
"1057 800 OFFCURVE",
"916 1004 OFFCURVE",
"629 1004 CURVE SMOOTH",
"442 1004 OFFCURVE",
"317 886 OFFCURVE",
"265 728 CURVE",
"287 723 LINE",
"271 986 LINE",
"180 986 LINE"
);
},
{
closed = 1;
nodes = (
"943 240 OFFCURVE",
"851 68 OFFCURVE",
"623 68 CURVE SMOOTH",
"415 68 OFFCURVE",
"291 242 OFFCURVE",
"291 505 CURVE",
"291 736 OFFCURVE",
"389 918 OFFCURVE",
"635 918 CURVE SMOOTH",
"867 918 OFFCURVE",
"943 724 OFFCURVE",
"943 488 CURVE SMOOTH"
);
}
);
width = 1177;
}
);
unicode = 0070;
},
{
glyphname = thorn;
layers = (
{
layerId = "9209D6FA-1952-4593-83C2-3566FC124D27";
name = Light;
paths = (
{
closed = 1;
nodes = (
"136 -418 LINE",
"289 -418 LINE",
"289 147 LINE",
"357 31 OFFCURVE",
"471 -23 OFFCURVE",
"609 -23 CURVE SMOOTH",
"889 -23 OFFCURVE",
"1024 244 OFFCURVE",
"1024 510 CURVE SMOOTH",
"1024 800 OFFCURVE",
"860 1021 OFFCURVE",
"609 1023 CURVE",
"473 1023 OFFCURVE",
"367 965 OFFCURVE",
"289 849 CURVE",
"289 1374 LINE",
"136 1374 LINE"
);
},
{
closed = 1;
nodes = (
"866 327 OFFCURVE",
"805 103 OFFCURVE",
"592 103 CURVE SMOOTH",
"375 103 OFFCURVE",
"288 291 OFFCURVE",
"288 501 CURVE SMOOTH",
"288 710 OFFCURVE",
"392 897 OFFCURVE",
"598 897 CURVE SMOOTH",
"806 897 OFFCURVE",
"866 676 OFFCURVE",
"866 501 CURVE SMOOTH"
);
}
);
width = 1136;
}
);
unicode = 00FE;
},
{
glyphname = q;
layers = (
{
layerId = "9209D6FA-1952-4593-83C2-3566FC124D27";
name = Light;
paths = (
{
closed = 1;
nodes = (
"927 -449 LINE",
"1039 -443 LINE",
"1039 986 LINE",
"933 986 LINE",
"912 745 LINE",
"936 748 LINE",
"877 900 OFFCURVE",
"759 1004 OFFCURVE",
"566 1004 CURVE SMOOTH",
"282 1004 OFFCURVE",
"120 789 OFFCURVE",
"120 481 CURVE SMOOTH",
"120 192 OFFCURVE",
"300 -18 OFFCURVE",
"561 -18 CURVE SMOOTH",
"814 -18 OFFCURVE",
"922 139 OFFCURVE",
"963 288 CURVE",
"934 305 LINE",
"927 -102 LINE"
);
},
{
closed = 1;
nodes = (
"922 253 OFFCURVE",
"848 68 OFFCURVE",
"576 68 CURVE SMOOTH",
"341 68 OFFCURVE",
"232 247 OFFCURVE",
"232 493 CURVE SMOOTH",
"232 727 OFFCURVE",
"333 918 OFFCURVE",
"578 918 CURVE SMOOTH",
"830 918 OFFCURVE",
"919 746 OFFCURVE",
"919 530 CURVE SMOOTH"
);
}
);
width = 1219;
}
);
unicode = 0071;
},
{
glyphname = r;
layers = (
{
anchors = (
{
name = bottom;
position = "{350, 0}";
},
{
name = top;
position = "{350, 986}";
}
);
layerId = "9209D6FA-1952-4593-83C2-3566FC124D27";
name = Light;
paths = (
{
closed = 1;
nodes = (
"180 0 LINE",
"294 0 LINE",
"294 568 LINE SMOOTH",
"294 748 OFFCURVE",
"430 910 OFFCURVE",
"605 910 CURVE SMOOTH",
"624 910 OFFCURVE",
"648 908 OFFCURVE",
"668 903 CURVE",
"676 993 LINE",
"656 996 OFFCURVE",
"628 998 OFFCURVE",
"598 998 CURVE SMOOTH",
"469 998 OFFCURVE",
"332 915 OFFCURVE",
"256 709 CURVE",
"282 705 LINE",
"266 986 LINE",
"180 986 LINE"
);
}
);
width = 756;
}
);
unicode = 0072;
},
{
glyphname = s;
layers = (
{
anchors = (
{
name = bottom;
position = "{458, 0}";
},
{
name = top;
position = "{458, 984}";
}
);
layerId = "9209D6FA-1952-4593-83C2-3566FC124D27";
name = Light;
paths = (
{
closed = 1;
nodes = (
"196 17 OFFCURVE",
"319 -18 OFFCURVE",
"453 -18 CURVE SMOOTH",
"662 -18 OFFCURVE",
"784 71 OFFCURVE",
"789 244 CURVE SMOOTH",
"789 389 OFFCURVE",
"740 470 OFFCURVE",
"506 542 CURVE SMOOTH",
"421 569 LINE SMOOTH",
"287 608 OFFCURVE",
"235 652 OFFCURVE",
"235 752 CURVE SMOOTH",
"235 843 OFFCURVE",
"321 918 OFFCURVE",
"483 918 CURVE SMOOTH",
"588 918 OFFCURVE",
"649 896 OFFCURVE",
"708 870 CURVE",
"738 955 LINE",
"657 990 OFFCURVE",
"589 1004 OFFCURVE",
"471 1004 CURVE SMOOTH",
"253 1004 OFFCURVE",
"136 879 OFFCURVE",
"136 743 CURVE",
"137 643 OFFCURVE",
"191 546 OFFCURVE",
"379 489 CURVE SMOOTH",
"471 461 LINE SMOOTH",
"661 403 OFFCURVE",
"693 349 OFFCURVE",
"693 245 CURVE SMOOTH",
"693 130 OFFCURVE",
"623 68 OFFCURVE",
"460 68 CURVE SMOOTH",
"320 68 OFFCURVE",
"238 98 OFFCURVE",
"187 116 CURVE",
"157 36 LINE"
);
}
);
width = 899;
}
);
unicode = 0073;
},
{
glyphname = t;
layers = (
{
anchors = (
{
name = bottom;
position = "{353, 0}";
},
{
name = center;
position = "{353, 494}";
}
);
layerId = "9209D6FA-1952-4593-83C2-3566FC124D27";
name = Light;
paths = (
{
closed = 1;
nodes = (
"228 68 OFFCURVE",
"336 -10 OFFCURVE",
"486 -10 CURVE SMOOTH",
"583 -10 OFFCURVE",
"654 5 OFFCURVE",
"654 5 CURVE",
"642 78 LINE",
"642 78 OFFCURVE",
"571 68 OFFCURVE",
"505 68 CURVE SMOOTH",
"407 68 OFFCURVE",
"342 106 OFFCURVE",
"342 265 CURVE SMOOTH",
"342 946 LINE",
"312 919 LINE",
"645 919 LINE",
"645 986 LINE",
"312 986 LINE",
"342 957 LINE",
"342 1240 LINE",
"267 1235 LINE",
"239 956 LINE",
"266 989 LINE",
"90 974 LINE",
"90 919 LINE",
"258 919 LINE",
"228 947 LINE",
"228 261 LINE SMOOTH"
);
}
);
width = 744;
}
);
unicode = 0074;
},
{
glyphname = tbar;
layers = (
{
layerId = "9209D6FA-1952-4593-83C2-3566FC124D27";
name = Light;
paths = (
{
closed = 1;
nodes = (
"266 101 OFFCURVE",
"285 -18 OFFCURVE",
"528 -18 CURVE SMOOTH",
"559 -18 OFFCURVE",
"587 -16 OFFCURVE",
"701 -6 CURVE",
"687 117 LINE",
"617 112 OFFCURVE",
"580 107 OFFCURVE",
"563 107 CURVE SMOOTH",
"441 107 OFFCURVE",
"419 147 OFFCURVE",
"419 334 CURVE SMOOTH",
"419 581 LINE",
"609 581 LINE",
"609 695 LINE",
"419 695 LINE",
"419 892 LINE",
"683 892 LINE",
"683 999 LINE",
"419 999 LINE",
"419 1233 LINE",
"306 1225 LINE",
"266 999 LINE",
"126 999 LINE",
"114 892 LINE",
"266 892 LINE",
"266 695 LINE",
"125 695 LINE",
"125 581 LINE",
"266 581 LINE",
"266 405 LINE SMOOTH"
);
}
);
width = 815;
}
);
unicode = 0167;
},
{
glyphname = v;
layers = (
{
layerId = "9209D6FA-1952-4593-83C2-3566FC124D27";
name = Light;
paths = (
{
closed = 1;
nodes = (
"440 0 LINE",
"561 0 LINE",
"937 986 LINE",
"824 986 LINE SMOOTH",
"613 409 LINE",
"481 56 LINE",
"519 56 LINE",
"388 406 LINE",
"175 986 LINE",
"62 986 LINE"
);
}
);
width = 999;
}
);
unicode = 0076;
},
{
glyphname = w;
layers = (
{
anchors = (
{
name = top;
position = "{724, 986}";
}
);
layerId = "9209D6FA-1952-4593-83C2-3566FC124D27";
name = Light;
paths = (
{
closed = 1;
nodes = (
"339 0 LINE",
"449 0 LINE SMOOTH",
"740 949 LINE",
"715 949 LINE",
"1036 0 LINE",
"1129 0 LINE",
"1383 986 LINE",
"1283 986 LINE",
"1066 57 LINE",
"1099 57 LINE",
"791 986 LINE",
"661 986 LINE",
"377 57 LINE",
"408 57 LINE",
"170 986 LINE",
"66 986 LINE"
);
}
);
width = 1449;
}
);
unicode = 0077;
},
{
glyphname = x;
layers = (
{
layerId = "9209D6FA-1952-4593-83C2-3566FC124D27";
name = Light;
paths = (
{
closed = 1;
nodes = (
"64 0 LINE",
"165 0 LINE",
"506 450 LINE",
"542 477 LINE",
"913 986 LINE",
"812 986 LINE",
"489 540 LINE",
"454 514 LINE"
);
},
{
closed = 1;
nodes = (
"820 0 LINE",
"927 0 LINE",
"179 986 LINE",
"73 986 LINE"
);
}
);
width = 989;
}
);
unicode = 0078;
},
{
glyphname = y;
layers = (
{
anchors = (
{
name = top;
position = "{488, 986}";
}
);
layerId = "9209D6FA-1952-4593-83C2-3566FC124D27";
name = Light;
paths = (
{
closed = 1;
nodes = (
"425 -374 LINE",
"955 986 LINE",
"848 986 LINE",
"512 110 LINE",
"545 110 LINE",
"191 986 LINE",
"76 986 LINE",
"498 -30 LINE",
"498 75 LINE",
"332 -360 LINE"
);
}
);
width = 1005;
}
);
unicode = 0079;
},
{
glyphname = z;
layers = (
{
anchors = (
{
name = top;
position = "{444, 986}";
}
);
layerId = "9209D6FA-1952-4593-83C2-3566FC124D27";
name = Light;
paths = (
{
closed = 1;
nodes = (
"114 0 LINE",
"752 0 LINE",
"752 78 LINE",
"166 78 LINE",
"189 27 LINE",
"747 908 LINE",
"747 986 LINE",
"134 986 LINE",
"134 908 LINE",
"691 908 LINE",
"670 955 LINE",
"114 77 LINE"
);
}
);
width = 858;
}
);
unicode = 007A;
},
{
glyphname = uniFB01;
layers = (
{
layerId = "9209D6FA-1952-4593-83C2-3566FC124D27";
name = Light;
paths = (
{
closed = 1;
nodes = (
"320 0 LINE",
"405 0 LINE",
"405 928 LINE",
"876 928 LINE",
"876 0 LINE",
"958 0 LINE",
"958 988 LINE",
"405 988 LINE",
"405 1012 LINE SMOOTH",
"406 1240 OFFCURVE",
"422 1319 OFFCURVE",
"609 1319 CURVE SMOOTH",
"705 1319 LINE",
"688 1389 LINE",
"623 1389 LINE SMOOTH",
"438 1389 OFFCURVE",
"329 1355 OFFCURVE",
"320 1037 CURVE",
"320 988 LINE",
"180 988 LINE",
"180 918 LINE",
"320 918 LINE"
);
},
{
closed = 1;
nodes = (
"876 1209 LINE",
"958 1209 LINE",
"958 1364 LINE",
"876 1364 LINE"
);
}
);
width = 1131;
}
);
unicode = FB01;
},
{
glyphname = uni0411;
layers = (
{
layerId = "9209D6FA-1952-4593-83C2-3566FC124D27";
name = Light;
paths = (
{
closed = 1;
nodes = (
"198 0 LINE",
"656 0 LINE SMOOTH",
"1026 0 OFFCURVE",
"1078 181 OFFCURVE",
"1078 389 CURVE SMOOTH",
"1078 588 OFFCURVE",
"1018 766 OFFCURVE",
"650 766 CURVE SMOOTH",
"308 766 LINE",
"308 1267 LINE",
"952 1267 LINE",
"952 1353 LINE",
"198 1353 LINE"
);
},
{
closed = 1;
nodes = (
"308 80 LINE",
"308 688 LINE",
"649 688 LINE SMOOTH",
"873 688 OFFCURVE",
"964 597 OFFCURVE",
"964 385 CURVE SMOOTH",
"964 177 OFFCURVE",
"875 80 OFFCURVE",
"662 80 CURVE SMOOTH"
);
}
);
width = 1198;
}
);
unicode = 0411;
},
{
glyphname = uni0413;
layers = (
{
anchors = (
{
name = top;
position = "{435, 1349}";
}
);
layerId = "9209D6FA-1952-4593-83C2-3566FC124D27";
name = Light;
paths = (
{
closed = 1;
nodes = (
"198 0 LINE",
"308 0 LINE",
"308 1252 LINE",
"1038 1252 LINE",
"1045 1353 LINE",
"198 1353 LINE"
);
}
);
width = 869;
}
);
unicode = 0413;
},
{
glyphname = uni0403;
layers = (
{
layerId = "9209D6FA-1952-4593-83C2-3566FC124D27";
name = Light;
paths = (
{
closed = 1;
nodes = (
"160 0 LINE",
"334 0 LINE",
"334 1205 LINE",
"995 1205 LINE",
"1008 1346 LINE",
"160 1346 LINE"
);
}
);
width = 1047;
}
);
unicode = 0403;
},
{
glyphname = uni0414;
layers = (
{
layerId = "9209D6FA-1952-4593-83C2-3566FC124D27";
name = Light;
paths = (
{
closed = 1;
nodes = (
"-38 -275 LINE",
"126 -275 LINE",
"126 0 LINE",
"1145 0 LINE",
"1145 -275 LINE",
"1306 -275 LINE",
"1306 138 LINE",
"1152 138 LINE",
"1152 1346 LINE",
"321 1346 LINE",
"311 1238 OFFCURVE",
"298 1109 OFFCURVE",
"289 1019 CURVE SMOOTH",
"223 353 OFFCURVE",
"198 199 OFFCURVE",
"112 138 CURVE",
"-38 138 LINE"
);
},
{
closed = 1;
nodes = (
"317 138 LINE",
"391 257 OFFCURVE",
"410 471 OFFCURVE",
"456 938 CURVE",
"460 989 OFFCURVE",
"476 1142 OFFCURVE",
"482 1202 CURVE",
"482 1205 LINE",
"978 1205 LINE",
"978 138 LINE"
);
}
);
width = 1368;
}
);
unicode = 0414;
},
{
glyphname = uni0416;
layers = (
{
layerId = "9209D6FA-1952-4593-83C2-3566FC124D27";
name = Light;
paths = (
{
closed = 1;
nodes = (
"95 0 LINE",
"304 0 LINE",
"832 599 LINE",
"832 0 LINE",
"1006 0 LINE",
"1006 600 LINE",
"1535 0 LINE",
"1744 0 LINE",
"1147 668 LINE",
"1673 1346 LINE",
"1477 1346 LINE",
"1006 733 LINE",
"1006 1346 LINE",
"832 1346 LINE",
"832 735 LINE",
"362 1346 LINE",
"166 1346 LINE",
"692 668 LINE"
);
}
);
width = 1851;
}
);
unicode = 0416;
},
{
glyphname = uni0418;
layers = (
{
anchors = (
{
name = top;
position = "{762, 1349}";
}
);
layerId = "9209D6FA-1952-4593-83C2-3566FC124D27";
name = Light;
paths = (
{
closed = 1;
nodes = (
"1044 -879 LINE",
"1484 -879 LINE",
"1486 1357 LINE SMOOTH",
"1491 1365 OFFCURVE",
"1191 1416 OFFCURVE",
"1193 1422 CURVE",
"779 853 OFFCURVE",
"651 616 OFFCURVE",
"277 83 CURVE",
"277 83 OFFCURVE",
"286 -35 OFFCURVE",
"286 41 CURVE",
"466 1353 LINE",
"198 2232 LINE",
"28 0 LINE",
"-135 -552 LINE",
"319 73 OFFCURVE",
"783 1239 OFFCURVE",
"1232 1869 CURVE",
"1232 1869 OFFCURVE",
"1044 1483 OFFCURVE",
"1044 1304 CURVE"
);
}
);
width = 1525;
}
);
unicode = 0418;
},
{
glyphname = uni041B;
layers = (
{
layerId = "9209D6FA-1952-4593-83C2-3566FC124D27";
name = Light;
paths = (
{
closed = 1;
nodes = (
"-30 -46 LINE",
"323 -10 OFFCURVE",
"337 123 OFFCURVE",
"378 939 CURVE SMOOTH",
"380 991 OFFCURVE",
"389 1148 OFFCURVE",
"391 1205 CURVE",
"914 1205 LINE",
"914 0 LINE",
"1088 0 LINE",
"1088 1346 LINE",
"224 1346 LINE",
"219 1238 OFFCURVE",
"212 1109 OFFCURVE",
"207 1019 CURVE SMOOTH",
"160 94 OFFCURVE",
"145 144 OFFCURVE",
"-60 91 CURVE"
);
}
);
width = 1248;
}
);
unicode = 041B;
},
{
glyphname = uni041F;
layers = (
{
layerId = "9209D6FA-1952-4593-83C2-3566FC124D27";
name = Light;
paths = (
{
closed = 1;
nodes = (
"198 0 LINE",
"308 0 LINE",
"308 1252 LINE",
"1111 1252 LINE",
"1111 0 LINE",
"1221 0 LINE",
"1221 1353 LINE",
"198 1353 LINE"
);
}
);
width = 1436;
}
);
unicode = 041F;
},
{
glyphname = uni0423;
layers = (
{
anchors = (
{
name = top;
position = "{624, 1346}";
}
);
layerId = "9209D6FA-1952-4593-83C2-3566FC124D27";
name = Light;
paths = (
{
closed = 1;
nodes = (
"390 0 LINE",
"577 0 LINE",
"1217 1346 LINE",
"1029 1346 LINE",
"670 580 LINE",
"255 1346 LINE",
"64 1346 LINE",
"567 424 LINE"
);
}
);
width = 1248;
}
);
unicode = 0423;
},
{
glyphname = uni0424;
layers = (
{
layerId = "9209D6FA-1952-4593-83C2-3566FC124D27";
name = Light;
paths = (
{
closed = 1;
nodes = (
"715 0 LINE",
"789 0 LINE",
"789 95 LINE",
"1200 131 OFFCURVE",
"1421 313 OFFCURVE",
"1421 670 CURVE SMOOTH",
"1421 1032 OFFCURVE",
"1203 1219 OFFCURVE",
"789 1255 CURVE",
"789 1378 LINE",
"715 1378 LINE",
"716 1252 LINE",
"298 1204 OFFCURVE",
"107 1004 OFFCURVE",
"107 670 CURVE SMOOTH",
"107 342 OFFCURVE",
"295 145 OFFCURVE",
"716 97 CURVE"
);
},
{
closed = 1;
nodes = (
"716 194 LINE",
"372 239 OFFCURVE",
"217 398 OFFCURVE",
"217 672 CURVE SMOOTH",
"217 949 OFFCURVE",
"370 1112 OFFCURVE",
"716 1157 CURVE"
);
},
{
closed = 1;
nodes = (
"1310 398 OFFCURVE",
"1157 233 OFFCURVE",
"789 192 CURVE",
"789 1159 LINE",
"1154 1118 OFFCURVE",
"1310 951 OFFCURVE",
"1310 672 CURVE SMOOTH"
);
}
);
width = 1543;
}
);
unicode = 0424;
},
{
glyphname = uni0427;
layers = (
{
layerId = "9209D6FA-1952-4593-83C2-3566FC124D27";
name = Light;
paths = (
{
closed = 1;
nodes = (
"768 -11 LINE",
"896 -11 LINE",
"896 1359 LINE",
"768 1359 LINE",
"768 523 LINE",
"794 532 OFFCURVE",
"407 547 OFFCURVE",
"427 547 CURVE SMOOTH",
"290 547 OFFCURVE",
"216 586 OFFCURVE",
"216 831 CURVE SMOOTH",
"216 1359 LINE",
"77 1359 LINE",
"77 791 LINE SMOOTH",
"77 613 OFFCURVE",
"141 431 OFFCURVE",
"349 431 CURVE SMOOTH",
"328 431 OFFCURVE",
"807 424 OFFCURVE",
"768 411 CURVE"
);
}
);
width = 793;
}
);
unicode = 0427;
},
{
glyphname = uni0426;
layers = (
{
layerId = "9209D6FA-1952-4593-83C2-3566FC124D27";
name = Light;
paths = (
{
closed = 1;
nodes = (
"1120 -257 LINE",
"1228 -257 LINE",
"1228 160 LINE",
"1082 160 LINE",
"1082 1353 LINE",
"972 1353 LINE",
"972 101 LINE",
"308 101 LINE",
"308 1353 LINE",
"198 1353 LINE",
"198 0 LINE",
"1121 0 LINE"
);
}
);
width = 1408;
}
);
unicode = 0426;
},
{
glyphname = uni0428;
layers = (
{
layerId = "9209D6FA-1952-4593-83C2-3566FC124D27";
name = Light;
paths = (
{
closed = 1;
nodes = (
"156 0 LINE",
"1285 0 LINE",
"1285 1353 LINE",
"1196 1353 LINE",
"1196 106 LINE",
"752 106 LINE",
"752 1353 LINE",
"663 1353 LINE",
"663 106 LINE",
"245 106 LINE",
"245 1353 LINE",
"156 1353 LINE"
);
}
);
width = 1456;
}
);
unicode = 0428;
},
{
glyphname = uni0429;
layers = (
{
layerId = "9209D6FA-1952-4593-83C2-3566FC124D27";
name = Light;
paths = (
{
closed = 1;
nodes = (
"1301 -257 LINE",
"1407 -257 LINE",
"1407 160 LINE",
"1327 160 LINE",
"1327 1353 LINE",
"1237 1353 LINE",
"1237 106 LINE",
"794 106 LINE",
"794 1353 LINE",
"705 1353 LINE",
"705 106 LINE",
"287 106 LINE",
"287 1353 LINE",
"198 1353 LINE",
"198 0 LINE",
"1302 0 LINE"
);
}
);
width = 1532;
}
);
unicode = 0429;
},
{
glyphname = uni040F;
layers = (
{
layerId = "9209D6FA-1952-4593-83C2-3566FC124D27";
name = Light;
paths = (
{
closed = 1;
nodes = (
"601 -275 LINE",
"760 -275 LINE",
"760 0 LINE",
"1167 0 LINE",
"1167 1346 LINE",
"993 1346 LINE",
"993 138 LINE",
"334 138 LINE",
"334 1346 LINE",
"160 1346 LINE",
"160 0 LINE",
"601 0 LINE"
);
}
);
width = 1327;
}
);
unicode = 040F;
},
{
glyphname = uni042A;
layers = (
{
layerId = "9209D6FA-1952-4593-83C2-3566FC124D27";
name = Light;
paths = (
{
closed = 1;
nodes = (
"531 -11 LINE",
"828 -11 LINE SMOOTH",
"1147 -11 OFFCURVE",
"1311 105 OFFCURVE",
"1311 349 CURVE SMOOTH",
"1311 593 OFFCURVE",
"1167 716 OFFCURVE",
"829 716 CURVE SMOOTH",
"664 716 LINE",
"664 1359 LINE",
"200 1359 LINE",
"200 1258 LINE",
"531 1258 LINE"
);
},
{
closed = 1;
nodes = (
"664 91 LINE",
"664 615 LINE",
"848 615 LINE SMOOTH",
"1115 615 OFFCURVE",
"1168 517 OFFCURVE",
"1168 359 CURVE SMOOTH",
"1168 185 OFFCURVE",
"1125 91 OFFCURVE",
"847 91 CURVE SMOOTH"
);
}
);
width = 1420;
}
);
unicode = 042A;
},
{
glyphname = uni042B;
layers = (
{
layerId = "9209D6FA-1952-4593-83C2-3566FC124D27";
name = Light;
paths = (
{
closed = 1;
nodes = (
"149 0 LINE",
"441 0 LINE SMOOTH",
"781 0 OFFCURVE",
"949 149 OFFCURVE",
"949 387 CURVE SMOOTH",
"949 634 OFFCURVE",
"776 773 OFFCURVE",
"454 773 CURVE SMOOTH",
"324 773 LINE",
"324 1346 LINE",
"149 1346 LINE"
);
},
{
closed = 1;
nodes = (
"324 141 LINE",
"324 633 LINE",
"453 633 LINE SMOOTH",
"692 633 OFFCURVE",
"774 537 OFFCURVE",
"774 383 CURVE SMOOTH",
"774 223 OFFCURVE",
"689 141 OFFCURVE",
"459 141 CURVE SMOOTH"
);
}
);
width = 1032;
}
);
unicode = 042B;
},
{
glyphname = uni0409;
layers = (
{
layerId = "9209D6FA-1952-4593-83C2-3566FC124D27";
name = Light;
paths = (
{
closed = 1;
nodes = (
"101 -29 LINE",
"102 -29 LINE SMOOTH",
"410 -29 OFFCURVE",
"423 115 OFFCURVE",
"423 389 CURVE",
"431 1263 LINE",
"853 1263 LINE",
"832 -3 LINE",
"1279 -3 LINE SMOOTH",
"1506 -3 OFFCURVE",
"1627 130 OFFCURVE",
"1627 378 CURVE SMOOTH",
"1627 662 OFFCURVE",
"1506 781 OFFCURVE",
"1283 781 CURVE SMOOTH",
"981 781 LINE",
"981 1359 LINE",
"305 1359 LINE",
"303 339 LINE SMOOTH",
"303 205 OFFCURVE",
"301 79 OFFCURVE",
"116 81 CURVE SMOOTH",
"101 83 LINE"
);
},
{
closed = 1;
nodes = (
"968 92 LINE",
"968 679 LINE",
"1268 679 LINE SMOOTH",
"1403 679 OFFCURVE",
"1489 555 OFFCURVE",
"1489 377 CURVE SMOOTH",
"1489 200 OFFCURVE",
"1395 92 OFFCURVE",
"1268 92 CURVE SMOOTH"
);
}
);
width = 1831;
}
);
unicode = 0409;
},
{
glyphname = uni040A;
layers = (
{
layerId = "9209D6FA-1952-4593-83C2-3566FC124D27";
name = Light;
paths = (
{
closed = 1;
nodes = (
"160 0 LINE",
"334 0 LINE",
"334 630 LINE",
"946 630 LINE",
"946 0 LINE",
"1334 0 LINE SMOOTH",
"1664 0 OFFCURVE",
"1792 155 OFFCURVE",
"1792 393 CURVE SMOOTH",
"1792 628 OFFCURVE",
"1664 779 OFFCURVE",
"1340 779 CURVE SMOOTH",
"1120 779 LINE",
"1120 1346 LINE",
"946 1346 LINE",
"946 768 LINE",
"334 768 LINE",
"334 1346 LINE",
"160 1346 LINE"
);
},
{
closed = 1;
nodes = (
"1120 129 LINE",
"1120 653 LINE",
"1335 653 LINE",
"1527 653 OFFCURVE",
"1627 573 OFFCURVE",
"1627 392 CURVE SMOOTH",
"1627 212 OFFCURVE",
"1529 129 OFFCURVE",
"1343 129 CURVE SMOOTH"
);
}
);
width = 1853;
}
);
unicode = 040A;
},
{
glyphname = uni0405;
layers = (
{
layerId = "9209D6FA-1952-4593-83C2-3566FC124D27";
name = Light;
paths = (
{
closed = 1;
nodes = (
"216 56 OFFCURVE",
"401 -22 OFFCURVE",
"684 -22 CURVE SMOOTH",
"954 -22 OFFCURVE",
"1145 104 OFFCURVE",
"1145 401 CURVE SMOOTH",
"1145 626 OFFCURVE",
"988 720 OFFCURVE",
"807 750 CURVE",
"515 805 LINE SMOOTH",
"331 845 OFFCURVE",
"240 913 OFFCURVE",
"240 1046 CURVE SMOOTH",
"240 1230 OFFCURVE",
"391 1294 OFFCURVE",
"671 1294 CURVE SMOOTH",
"839 1294 OFFCURVE",
"955 1275 OFFCURVE",
"1052 1225 CURVE",
"1072 1293 LINE",
"1000 1344 OFFCURVE",
"843 1371 OFFCURVE",
"671 1371 CURVE SMOOTH",
"350 1371 OFFCURVE",
"150 1305 OFFCURVE",
"150 1031 CURVE SMOOTH",
"150 858 OFFCURVE",
"282 768 OFFCURVE",
"487 725 CURVE SMOOTH",
"787 660 LINE SMOOTH",
"1017 608 OFFCURVE",
"1058 519 OFFCURVE",
"1058 390 CURVE SMOOTH",
"1058 166 OFFCURVE",
"926 57 OFFCURVE",
"694 57 CURVE SMOOTH",
"488 57 OFFCURVE",
"345 103 OFFCURVE",
"193 171 CURVE",
"157 97 LINE"
);
}
);
width = 1323;
}
);
unicode = 0405;
},
{
glyphname = uni0406;
layers = (
{
anchors = (
{
name = top;
position = "{216, 1346}";
}
);
layerId = "9209D6FA-1952-4593-83C2-3566FC124D27";
name = Light;
paths = (
{
closed = 1;
nodes = (
"136 0 LINE",
"297 0 LINE",
"297 1362 LINE",
"136 1362 LINE"
);
}
);
width = 432;
}
);
unicode = 0406;
},
{
glyphname = uni0408;
layers = (
{
layerId = "9209D6FA-1952-4593-83C2-3566FC124D27";
name = Light;
paths = (
{
closed = 1;
nodes = (
"195 -136 LINE",
"172 -131 OFFCURVE",
"204 -130 OFFCURVE",
"181 -130 CURVE SMOOTH",
"504 -130 OFFCURVE",
"487 0 OFFCURVE",
"487 268 CURVE SMOOTH",
"487 1349 LINE",
"398 1349 LINE",
"398 226 LINE SMOOTH",
"398 98 OFFCURVE",
"402 -19 OFFCURVE",
"211 -19 CURVE SMOOTH",
"228 -19 OFFCURVE",
"141 -21 OFFCURVE",
"171 -25 CURVE"
);
}
);
width = 689;
}
);
unicode = 0408;
},
{
glyphname = uni042E;
layers = (
{
layerId = "9209D6FA-1952-4593-83C2-3566FC124D27";
name = Light;
paths = (
{
closed = 1;
nodes = (
"605 278 OFFCURVE",
"819 -24 OFFCURVE",
"1177 -24 CURVE SMOOTH",
"1555 -24 OFFCURVE",
"1773 295 OFFCURVE",
"1773 678 CURVE SMOOTH",
"1773 1099 OFFCURVE",
"1540 1404 OFFCURVE",
"1164 1404 CURVE SMOOTH",
"811 1404 OFFCURVE",
"607 1140 OFFCURVE",
"587 743 CURVE",
"237 743 LINE",
"237 1379 LINE",
"123 1379 LINE",
"123 -7 LINE",
"237 -7 LINE",
"237 648 LINE",
"584 648 LINE"
);
},
{
closed = 1;
nodes = (
"1652 360 OFFCURVE",
"1489 71 OFFCURVE",
"1181 71 CURVE SMOOTH",
"867 71 OFFCURVE",
"700 235 OFFCURVE",
"700 681 CURVE SMOOTH",
"700 1000 OFFCURVE",
"858 1308 OFFCURVE",
"1167 1308 CURVE SMOOTH",
"1489 1308 OFFCURVE",
"1652 987 OFFCURVE",
"1652 684 CURVE SMOOTH"
);
}
);
width = 2196;
}
);
unicode = 042E;
},
{
glyphname = uni0431;
layers = (
{
layerId = "9209D6FA-1952-4593-83C2-3566FC124D27";
name = Light;
paths = (
{
closed = 1;
nodes = (
"108 496 OFFCURVE",
"58 -19 OFFCURVE",
"528 -19 CURVE SMOOTH",
"761 -19 OFFCURVE",
"895 181 OFFCURVE",
"895 392 CURVE SMOOTH",
"895 536 OFFCURVE",
"793 765 OFFCURVE",
"567 765 CURVE SMOOTH",
"391 765 OFFCURVE",
"351 705 OFFCURVE",
"215 640 CURVE",
"290 1007 OFFCURVE",
"582 1044 OFFCURVE",
"832 1059 CURVE",
"835 1131 LINE",
"267 1098 OFFCURVE",
"108 856 OFFCURVE",
"108 487 CURVE SMOOTH"
);
},
{
closed = 1;
nodes = (
"817 182 OFFCURVE",
"751 67 OFFCURVE",
"524 67 CURVE SMOOTH",
"385 67 OFFCURVE",
"183 180 OFFCURVE",
"232 550 CURVE",
"369 685 OFFCURVE",
"518 697 OFFCURVE",
"567 697 CURVE SMOOTH",
"716 697 OFFCURVE",
"817 559 OFFCURVE",
"817 406 CURVE SMOOTH"
);
}
);
width = 1006;
}
);
unicode = 0431;
},
{
glyphname = uni0432;
layers = (
{
layerId = "9209D6FA-1952-4593-83C2-3566FC124D27";
name = Light;
paths = (
{
closed = 1;
nodes = (
"194 0 LINE",
"609 0 LINE SMOOTH",
"914 0 OFFCURVE",
"974 163 OFFCURVE",
"974 281 CURVE",
"974 364 OFFCURVE",
"925 498 OFFCURVE",
"731 534 CURVE",
"890 575 OFFCURVE",
"938 642 OFFCURVE",
"938 757 CURVE SMOOTH",
"938 857 OFFCURVE",
"878 988 OFFCURVE",
"622 988 CURVE SMOOTH",
"194 988 LINE"
);
},
{
closed = 1;
nodes = (
"315 79 LINE",
"315 469 LINE",
"620 469 LINE SMOOTH",
"823 469 OFFCURVE",
"833 367 OFFCURVE",
"832 281 CURVE",
"832 151 OFFCURVE",
"801 79 OFFCURVE",
"594 79 CURVE SMOOTH"
);
},
{
closed = 1;
nodes = (
"315 564 LINE",
"315 907 LINE",
"595 907 LINE SMOOTH",
"746 907 OFFCURVE",
"797 834 OFFCURVE",
"797 733 CURVE SMOOTH",
"797 651 OFFCURVE",
"768 564 OFFCURVE",
"616 564 CURVE SMOOTH"
);
}
);
width = 1090;
}
);
unicode = 0432;
},
{
glyphname = uni0433;
layers = (
{
anchors = (
{
name = top;
position = "{497, 986}";
}
);
layerId = "9209D6FA-1952-4593-83C2-3566FC124D27";
name = Light;
paths = (
{
closed = 1;
nodes = (
"194 0 LINE",
"315 0 LINE",
"315 917 LINE",
"895 917 LINE",
"914 988 LINE",
"194 988 LINE"
);
}
);
width = 994;
}
);
unicode = 0433;
},
{
glyphname = uni0434;
layers = (
{
layerId = "9209D6FA-1952-4593-83C2-3566FC124D27";
name = Light;
paths = (
{
closed = 1;
nodes = (
"57 -257 LINE",
"144 -257 LINE",
"138 0 LINE",
"952 0 LINE",
"941 -257 LINE",
"1038 -257 LINE",
"1038 71 LINE",
"981 71 LINE",
"981 988 LINE",
"415 988 LINE",
"284 260 LINE",
"249 164 OFFCURVE",
"230 93 OFFCURVE",
"153 71 CURVE",
"57 71 LINE"
);
},
{
closed = 1;
nodes = (
"278 69 LINE",
"317 75 OFFCURVE",
"373 204 OFFCURVE",
"408 367 CURVE",
"406 348 OFFCURVE",
"501 948 OFFCURVE",
"500 923 CURVE",
"858 923 LINE",
"858 69 LINE"
);
}
);
width = 1160;
}
);
unicode = 0434;
},
{
glyphname = uni0436;
layers = (
{
layerId = "9209D6FA-1952-4593-83C2-3566FC124D27";
name = Light;
paths = (
{
closed = 1;
nodes = (
"57 0 LINE",
"168 0 LINE",
"646 490 LINE",
"646 0 LINE",
"767 0 LINE",
"767 490 LINE",
"1248 0 LINE",
"1358 0 LINE",
"852 510 LINE",
"1355 988 LINE",
"1258 988 LINE",
"767 515 LINE",
"767 988 LINE",
"646 988 LINE",
"646 515 LINE",
"159 988 LINE",
"60 988 LINE",
"564 510 LINE"
);
}
);
width = 1438;
}
);
unicode = 0436;
},
{
glyphname = uni0437;
layers = (
{
anchors = (
{
name = bottom;
position = "{430, 0}";
},
{
name = top;
position = "{430, 986}";
}
);
layerId = "9209D6FA-1952-4593-83C2-3566FC124D27";
name = Light;
paths = (
{
closed = 1;
nodes = (
"208 -6 OFFCURVE",
"308 -18 OFFCURVE",
"384 -18 CURVE SMOOTH",
"605 -18 OFFCURVE",
"736 141 OFFCURVE",
"736 259 CURVE",
"737 374 OFFCURVE",
"681 479 OFFCURVE",
"529 523 CURVE",
"684 569 OFFCURVE",
"699 669 OFFCURVE",
"699 751 CURVE SMOOTH",
"699 862 OFFCURVE",
"667 1028 OFFCURVE",
"396 1028 CURVE SMOOTH",
"298 1028 OFFCURVE",
"193 1000 OFFCURVE",
"108 923 CURVE",
"130 870 OFFCURVE",
"141 839 OFFCURVE",
"141 839 CURVE SMOOTH",
"207 887 OFFCURVE",
"297 927 OFFCURVE",
"369 927 CURVE SMOOTH",
"513 927 OFFCURVE",
"589 853 OFFCURVE",
"589 739 CURVE SMOOTH",
"589 649 OFFCURVE",
"512 563 OFFCURVE",
"348 563 CURVE SMOOTH",
"279 563 LINE",
"279 482 LINE",
"348 482 LINE SMOOTH",
"549 482 OFFCURVE",
"604 374 OFFCURVE",
"604 269 CURVE SMOOTH",
"604 159 OFFCURVE",
"498 74 OFFCURVE",
"378 74 CURVE SMOOTH",
"299 74 OFFCURVE",
"195 115 OFFCURVE",
"144 160 CURVE",
"121 64 LINE"
);
}
);
width = 858;
}
);
unicode = 0437;
},
{
glyphname = uni0438;
layers = (
{
anchors = (
{
name = top;
position = "{544, 986}";
}
);
layerId = "9209D6FA-1952-4593-83C2-3566FC124D27";
name = Light;
paths = (
{
closed = 1;
nodes = (
"161 0 LINE",
"253 0 LINE",
"818 759 LINE",
"818 0 LINE",
"913 0 LINE",
"913 988 LINE",
"818 988 LINE",
"818 904 LINE",
"254 147 LINE",
"254 988 LINE",
"161 988 LINE"
);
}
);
width = 1088;
}
);
unicode = 0438;
},
{
glyphname = uni043A;
layers = (
{
anchors = (
{
name = top;
position = "{561, 986}";
}
);
layerId = "9209D6FA-1952-4593-83C2-3566FC124D27";
name = Light;
paths = (
{
closed = 1;
nodes = (
"194 0 LINE",
"315 0 LINE",
"315 482 LINE",
"820 0 LINE",
"957 0 LINE",
"444 493 LINE",
"419 471 OFFCURVE",
"904 987 OFFCURVE",
"904 987 CURVE",
"751 985 LINE SMOOTH",
"751 985 OFFCURVE",
"278 477 OFFCURVE",
"315 511 CURVE",
"315 988 LINE",
"194 988 LINE"
);
}
);
width = 1122;
}
);
unicode = 043A;
},
{
glyphname = uni043B;
layers = (
{
layerId = "9209D6FA-1952-4593-83C2-3566FC124D27";
name = Light;
paths = (
{
closed = 1;
nodes = (
"77 77 OFFCURVE",
"100 -7 OFFCURVE",
"94 -7 CURVE SMOOTH",
"383 -13 OFFCURVE",
"391 215 OFFCURVE",
"463 516 CURVE SMOOTH",
"567 909 LINE",
"839 909 LINE",
"839 -1 LINE",
"960 -1 LINE",
"960 988 LINE",
"484 988 LINE",
"356 541 LINE SMOOTH",
"284 166 OFFCURVE",
"230 69 OFFCURVE",
"77 77 CURVE"
);
}
);
width = 1168;
}
);
unicode = 043B;
},
{
glyphname = uni043C;
layers = (
{
layerId = "9209D6FA-1952-4593-83C2-3566FC124D27";
name = Light;
paths = (
{
closed = 1;
nodes = (
"194 0 LINE",
"287 0 LINE",
"287 766 LINE",
"555 137 LINE",
"645 137 LINE",
"890 766 LINE",
"890 0 LINE",
"985 0 LINE",
"985 988 LINE",
"885 988 LINE",
"589 243 LINE",
"295 988 LINE",
"194 988 LINE"
);
}
);
width = 1195;
}
);
unicode = 043C;
},
{
glyphname = uni043D;
layers = (
{
layerId = "9209D6FA-1952-4593-83C2-3566FC124D27";
name = Light;
paths = (
{
closed = 1;
nodes = (
"194 0 LINE",
"315 0 LINE",
"315 485 LINE",
"885 485 LINE",
"885 0 LINE",
"1006 0 LINE",
"1006 988 LINE",
"885 988 LINE",
"885 563 LINE",
"315 563 LINE",
"315 988 LINE",
"194 988 LINE"
);
}
);
width = 1215;
}
);
unicode = 043D;
},
{
glyphname = uni043F;
layers = (
{
layerId = "9209D6FA-1952-4593-83C2-3566FC124D27";
name = Light;
paths = (
{
closed = 1;
nodes = (
"155 0 LINE",
"238 0 LINE",
"238 902 LINE",
"823 902 LINE",
"823 0 LINE",
"905 0 LINE",
"905 988 LINE",
"155 988 LINE"
);
}
);
width = 1074;
}
);
unicode = 043F;
},
{
glyphname = uni0440;
layers = (
{
layerId = "9209D6FA-1952-4593-83C2-3566FC124D27";
name = Light;
paths = (
{
closed = 1;
nodes = (
"135 -449 LINE",
"251 -441 LINE",
"251 -81 LINE SMOOTH",
"251 3 OFFCURVE",
"251 81 OFFCURVE",
"246 160 CURVE",
"311 53 OFFCURVE",
"461 -23 OFFCURVE",
"606 -23 CURVE SMOOTH",
"866 -23 OFFCURVE",
"1061 189 OFFCURVE",
"1061 481 CURVE SMOOTH",
"1061 796 OFFCURVE",
"891 1005 OFFCURVE",
"588 1005 CURVE SMOOTH",
"445 1005 OFFCURVE",
"313 938 OFFCURVE",
"261 788 CURVE",
"247 985 LINE",
"135 985 LINE"
);
},
{
closed = 1;
nodes = (
"945 241 OFFCURVE",
"833 60 OFFCURVE",
"593 60 CURVE SMOOTH",
"325 60 OFFCURVE",
"252 244 OFFCURVE",
"252 507 CURVE",
"251 740 OFFCURVE",
"339 920 OFFCURVE",
"598 920 CURVE SMOOTH",
"842 920 OFFCURVE",
"945 726 OFFCURVE",
"945 490 CURVE SMOOTH"
);
}
);
width = 1234;
}
);
unicode = 0440;
},
{
glyphname = uni0442;
layers = (
{
layerId = "9209D6FA-1952-4593-83C2-3566FC124D27";
name = Light;
paths = (
{
closed = 1;
nodes = (
"407 0 LINE",
"534 0 LINE",
"534 892 LINE",
"818 892 LINE",
"818 988 LINE",
"127 988 LINE",
"127 892 LINE",
"407 892 LINE"
);
}
);
width = 958;
}
);
unicode = 0442;
},
{
glyphname = uni0443;
layers = (
{
anchors = (
{
name = top;
position = "{523, 986}";
}
);
layerId = "9209D6FA-1952-4593-83C2-3566FC124D27";
name = Light;
paths = (
{
closed = 1;
nodes = (
"114 -244 LINE",
"717 -274 OFFCURVE",
"616 -12 OFFCURVE",
"649 88 CURVE",
"993 986 LINE",
"870 986 LINE",
"612 229 LINE",
"234 986 LINE",
"100 986 LINE",
"576 154 LINE",
"580 194 OFFCURVE",
"702 -185 OFFCURVE",
"124 -140 CURVE"
);
}
);
width = 1045;
}
);
unicode = 0443;
},
{
glyphname = uni0444;
layers = (
{
layerId = "9209D6FA-1952-4593-83C2-3566FC124D27";
name = Light;
paths = (
{
closed = 1;
nodes = (
"603 -356 LINE",
"699 -356 LINE",
"699 75 LINE",
"754 49 OFFCURVE",
"834 40 OFFCURVE",
"900 40 CURVE SMOOTH",
"1091 40 OFFCURVE",
"1243 236 OFFCURVE",
"1243 507 CURVE SMOOTH",
"1243 780 OFFCURVE",
"1105 952 OFFCURVE",
"909 952 CURVE SMOOTH",
"843 952 OFFCURVE",
"759 934 OFFCURVE",
"699 907 CURVE",
"699 1219 LINE",
"603 1219 LINE",
"603 907 LINE",
"546 933 OFFCURVE",
"453 952 OFFCURVE",
"391 952 CURVE SMOOTH",
"194 952 OFFCURVE",
"59 779 OFFCURVE",
"59 506 CURVE SMOOTH",
"59 233 OFFCURVE",
"211 40 OFFCURVE",
"400 40 CURVE SMOOTH",
"466 40 OFFCURVE",
"546 49 OFFCURVE",
"603 75 CURVE"
);
},
{
closed = 1;
nodes = (
"543 133 OFFCURVE",
"467 125 OFFCURVE",
"406 125 CURVE SMOOTH",
"257 125 OFFCURVE",
"169 311 OFFCURVE",
"169 507 CURVE SMOOTH",
"169 705 OFFCURVE",
"241 868 OFFCURVE",
"390 868 CURVE SMOOTH",
"453 868 OFFCURVE",
"535 863 OFFCURVE",
"603 827 CURVE",
"603 164 LINE"
);
},
{
closed = 1;
nodes = (
"1134 310 OFFCURVE",
"1042 125 OFFCURVE",
"896 125 CURVE SMOOTH",
"833 125 OFFCURVE",
"762 131 OFFCURVE",
"699 167 CURVE",
"699 821 LINE",
"765 857 OFFCURVE",
"845 867 OFFCURVE",
"911 867 CURVE SMOOTH",
"1058 867 OFFCURVE",
"1134 705 OFFCURVE",
"1134 506 CURVE SMOOTH"
);
}
);
width = 1377;
}
);
unicode = 0444;
},
{
glyphname = uni0447;
layers = (
{
layerId = "9209D6FA-1952-4593-83C2-3566FC124D27";
name = Light;
paths = (
{
closed = 1;
nodes = (
"672 0 LINE",
"792 0 LINE",
"792 988 LINE",
"672 988 LINE",
"672 379 LINE",
"676 414 OFFCURVE",
"572 456 OFFCURVE",
"502 456 CURVE SMOOTH",
"368 456 OFFCURVE",
"280 470 OFFCURVE",
"280 742 CURVE SMOOTH",
"280 988 LINE",
"159 988 LINE",
"159 745 LINE SMOOTH",
"159 493 OFFCURVE",
"287 368 OFFCURVE",
"484 370 CURVE",
"594 370 OFFCURVE",
"711 361 OFFCURVE",
"672 328 CURVE"
);
}
);
width = 1002;
}
);
unicode = 0447;
},
{
glyphname = uni0446;
layers = (
{
layerId = "9209D6FA-1952-4593-83C2-3566FC124D27";
name = Light;
paths = (
{
closed = 1;
nodes = (
"891 -257 LINE",
"1041 -257 LINE",
"1041 126 LINE",
"952 126 LINE",
"952 988 LINE",
"832 988 LINE",
"832 72 LINE",
"313 72 LINE",
"313 988 LINE",
"194 988 LINE",
"194 0 LINE",
"905 0 LINE"
);
}
);
width = 1120;
}
);
unicode = 0446;
},
{
glyphname = uni0448;
layers = (
{
layerId = "9209D6FA-1952-4593-83C2-3566FC124D27";
name = Light;
paths = (
{
closed = 1;
nodes = (
"270 0 LINE",
"1203 0 LINE",
"1203 988 LINE",
"1086 988 LINE",
"1086 71 LINE",
"795 71 LINE",
"795 988 LINE",
"677 988 LINE",
"677 71 LINE",
"385 71 LINE",
"385 988 LINE",
"270 988 LINE"
);
}
);
width = 1394;
}
);
unicode = 0448;
},
{
glyphname = uni0449;
layers = (
{
layerId = "9209D6FA-1952-4593-83C2-3566FC124D27";
name = Light;
paths = (
{
closed = 1;
nodes = (
"1124 -262 LINE",
"1272 -262 LINE",
"1272 125 LINE",
"1182 125 LINE",
"1182 988 LINE",
"1050 988 LINE",
"1050 72 LINE",
"782 72 LINE",
"782 988 LINE",
"650 988 LINE",
"650 72 LINE",
"326 72 LINE",
"326 988 LINE",
"196 988 LINE",
"196 0 LINE",
"1135 0 LINE"
);
}
);
width = 1352;
}
);
unicode = 0449;
},
{
glyphname = uni045F;
layers = (
{
layerId = "9209D6FA-1952-4593-83C2-3566FC124D27";
name = Light;
paths = (
{
closed = 1;
nodes = (
"512 -219 LINE",
"574 -219 LINE",
"575 0 LINE",
"861 0 LINE",
"861 988 LINE",
"778 988 LINE",
"778 72 LINE",
"243 72 LINE",
"243 988 LINE",
"161 988 LINE",
"161 0 LINE",
"511 0 LINE"
);
}
);
width = 1031;
}
);
unicode = 045F;
},
{
glyphname = uni044C;
layers = (
{
layerId = "9209D6FA-1952-4593-83C2-3566FC124D27";
name = Light;
paths = (
{
closed = 1;
nodes = (
"194 0 LINE",
"514 0 LINE SMOOTH",
"785 0 OFFCURVE",
"848 179 OFFCURVE",
"848 322 CURVE SMOOTH",
"848 455 OFFCURVE",
"795 624 OFFCURVE",
"512 624 CURVE SMOOTH",
"314 624 LINE",
"314 987 LINE",
"194 987 LINE"
);
},
{
closed = 1;
nodes = (
"313 79 LINE",
"313 538 LINE",
"520 538 LINE SMOOTH",
"661 538 OFFCURVE",
"713 428 OFFCURVE",
"713 324 CURVE SMOOTH",
"713 225 OFFCURVE",
"673 79 OFFCURVE",
"527 79 CURVE SMOOTH"
);
}
);
width = 953;
}
);
unicode = 044C;
},
{
glyphname = uni044A;
layers = (
{
layerId = "9209D6FA-1952-4593-83C2-3566FC124D27";
name = Light;
paths = (
{
closed = 1;
nodes = (
"213 0 LINE",
"522 0 LINE SMOOTH",
"792 0 OFFCURVE",
"856 181 OFFCURVE",
"856 324 CURVE SMOOTH",
"856 458 OFFCURVE",
"803 627 OFFCURVE",
"521 627 CURVE SMOOTH",
"334 627 LINE",
"334 988 LINE",
"77 988 LINE",
"77 914 LINE",
"213 914 LINE"
);
},
{
closed = 1;
nodes = (
"333 79 LINE",
"333 540 LINE",
"530 540 LINE SMOOTH",
"669 540 OFFCURVE",
"721 432 OFFCURVE",
"721 326 CURVE SMOOTH",
"721 226 OFFCURVE",
"681 79 OFFCURVE",
"536 79 CURVE SMOOTH"
);
}
);
width = 961;
}
);
unicode = 044A;
},
{
glyphname = uni044B;
layers = (
{
layerId = "9209D6FA-1952-4593-83C2-3566FC124D27";
name = Light;
paths = (
{
closed = 1;
nodes = (
"149 0 LINE",
"531 0 LINE SMOOTH",
"775 0 OFFCURVE",
"870 162 OFFCURVE",
"870 326 CURVE SMOOTH",
"870 490 OFFCURVE",
"769 635 OFFCURVE",
"525 635 CURVE SMOOTH",
"323 635 LINE",
"323 999 LINE",
"149 999 LINE"
);
},
{
closed = 1;
nodes = (
"323 122 LINE",
"323 511 LINE",
"527 511 LINE SMOOTH",
"647 511 OFFCURVE",
"696 419 OFFCURVE",
"696 329 CURVE SMOOTH",
"696 239 OFFCURVE",
"653 122 OFFCURVE",
"533 122 CURVE SMOOTH"
);
},
{
closed = 1;
nodes = (
"1074 0 LINE",
"1248 0 LINE",
"1248 998 LINE",
"1074 998 LINE"
);
}
);
width = 1397;
}
);
unicode = 044B;
},
{
glyphname = uni0459;
layers = (
{
layerId = "9209D6FA-1952-4593-83C2-3566FC124D27";
name = Light;
paths = (
{
closed = 1;
nodes = (
"107 -23 LINE",
"141 -23 LINE SMOOTH",
"419 -23 OFFCURVE",
"422 83 OFFCURVE",
"422 381 CURVE SMOOTH",
"422 870 LINE",
"851 870 LINE",
"851 0 LINE",
"1202 0 LINE SMOOTH",
"1446 0 OFFCURVE",
"1541 162 OFFCURVE",
"1541 326 CURVE SMOOTH",
"1541 490 OFFCURVE",
"1440 635 OFFCURVE",
"1196 635 CURVE SMOOTH",
"1004 635 LINE",
"1004 999 LINE",
"269 999 LINE",
"269 372 LINE SMOOTH",
"269 168 OFFCURVE",
"267 116 OFFCURVE",
"141 116 CURVE SMOOTH",
"98 116 LINE"
);
},
{
closed = 1;
nodes = (
"1004 120 LINE",
"1004 511 LINE",
"1218 511 LINE SMOOTH",
"1338 511 OFFCURVE",
"1393 419 OFFCURVE",
"1393 329 CURVE SMOOTH",
"1393 239 OFFCURVE",
"1344 120 OFFCURVE",
"1224 120 CURVE SMOOTH"
);
}
);
width = 1648;
}
);
unicode = 0459;
},
{
glyphname = uni045A;
layers = (
{
layerId = "9209D6FA-1952-4593-83C2-3566FC124D27";
name = Light;
paths = (
{
closed = 1;
nodes = (
"161 0 LINE",
"243 0 LINE",
"243 493 LINE",
"742 493 LINE",
"742 0 LINE",
"1038 0 LINE SMOOTH",
"1311 0 OFFCURVE",
"1371 178 OFFCURVE",
"1371 325 CURVE SMOOTH",
"1371 454 OFFCURVE",
"1299 630 OFFCURVE",
"1027 630 CURVE SMOOTH",
"826 630 LINE",
"826 988 LINE",
"742 988 LINE",
"742 562 LINE",
"243 562 LINE",
"243 988 LINE",
"161 988 LINE"
);
},
{
closed = 1;
nodes = (
"826 73 LINE",
"826 543 LINE",
"1074 543 LINE SMOOTH",
"1214 543 OFFCURVE",
"1271 428 OFFCURVE",
"1271 326 CURVE SMOOTH",
"1271 228 OFFCURVE",
"1223 73 OFFCURVE",
"1084 73 CURVE SMOOTH"
);
}
);
width = 1537;
}
);
unicode = 045A;
},
{
glyphname = uni044D;
layers = (
{
layerId = "9209D6FA-1952-4593-83C2-3566FC124D27";
name = Light;
paths = (
{
closed = 1;
nodes = (
"216 9 OFFCURVE",
"337 -26 OFFCURVE",
"466 -26 CURVE SMOOTH",
"815 -26 OFFCURVE",
"948 259 OFFCURVE",
"948 478 CURVE SMOOTH",
"948 721 OFFCURVE",
"843 1016 OFFCURVE",
"453 1016 CURVE SMOOTH",
"359 1016 OFFCURVE",
"227 985 OFFCURVE",
"159 923 CURVE",
"193 852 LINE",
"268 897 OFFCURVE",
"347 932 OFFCURVE",
"455 932 CURVE SMOOTH",
"716 932 OFFCURVE",
"835 759 OFFCURVE",
"851 537 CURVE",
"439 537 LINE",
"439 443 LINE",
"851 443 LINE",
"836 227 OFFCURVE",
"688 60 OFFCURVE",
"460 60 CURVE SMOOTH",
"384 60 OFFCURVE",
"298 77 OFFCURVE",
"196 135 CURVE",
"167 62 LINE"
);
}
);
width = 1117;
}
);
unicode = 044D;
},
{
glyphname = uni044E;
layers = (
{
layerId = "9209D6FA-1952-4593-83C2-3566FC124D27";
name = Light;
paths = (
{
closed = 1;
nodes = (
"445 178 OFFCURVE",
"560 -26 OFFCURVE",
"850 -26 CURVE SMOOTH",
"1159 -26 OFFCURVE",
"1250 220 OFFCURVE",
"1250 493 CURVE SMOOTH",
"1250 779 OFFCURVE",
"1171 1016 OFFCURVE",
"855 1016 CURVE SMOOTH",
"563 1016 OFFCURVE",
"446 799 OFFCURVE",
"440 530 CURVE",
"243 530 LINE",
"243 988 LINE",
"161 988 LINE",
"161 0 LINE",
"243 0 LINE",
"243 451 LINE",
"440 451 LINE"
);
},
{
closed = 1;
nodes = (
"1154 273 OFFCURVE",
"1092 60 OFFCURVE",
"855 60 CURVE SMOOTH",
"612 60 OFFCURVE",
"539 274 OFFCURVE",
"539 486 CURVE SMOOTH",
"539 703 OFFCURVE",
"609 930 OFFCURVE",
"850 930 CURVE SMOOTH",
"1101 930 OFFCURVE",
"1154 715 OFFCURVE",
"1154 491 CURVE SMOOTH"
);
}
);
width = 1421;
}
);
unicode = 044E;
},
{
glyphname = uni044F;
layers = (
{
layerId = "9209D6FA-1952-4593-83C2-3566FC124D27";
name = Light;
paths = (
{
closed = 1;
nodes = (
"140 0 LINE",
"275 0 LINE",
"456 404 LINE",
"773 404 LINE",
"773 0 LINE",
"891 0 LINE",
"891 988 LINE",
"466 988 LINE SMOOTH",
"192 988 OFFCURVE",
"123 817 OFFCURVE",
"123 685 CURVE SMOOTH",
"123 582 OFFCURVE",
"177 453 OFFCURVE",
"338 410 CURVE"
);
},
{
closed = 1;
nodes = (
"432 487 LINE",
"290 487 OFFCURVE",
"245 559 OFFCURVE",
"245 685 CURVE SMOOTH",
"245 784 OFFCURVE",
"289 908 OFFCURVE",
"432 908 CURVE SMOOTH",
"773 908 LINE",
"773 487 LINE"
);
}
);
width = 1102;
}
);
unicode = 044F;
},
{
glyphname = uni0452;
layers = (
{
layerId = "9209D6FA-1952-4593-83C2-3566FC124D27";
name = Light;
paths = (
{
closed = 1;
nodes = (
"742 -262 LINE",
"804 -262 LINE SMOOTH",
"1074 -262 OFFCURVE",
"1093 -143 OFFCURVE",
"1093 137 CURVE SMOOTH",
"1093 399 LINE SMOOTH",
"1093 661 OFFCURVE",
"987 804 OFFCURVE",
"753 804 CURVE SMOOTH",
"609 804 OFFCURVE",
"500 737 OFFCURVE",
"415 627 CURVE",
"415 1002 LINE",
"805 1002 LINE",
"805 1096 LINE",
"415 1096 LINE",
"415 1369 LINE",
"275 1369 LINE",
"275 1096 LINE",
"188 1096 LINE",
"188 1002 LINE",
"275 1002 LINE",
"275 0 LINE",
"415 0 LINE",
"415 448 LINE",
"441 547 OFFCURVE",
"574 677 OFFCURVE",
"739 677 CURVE SMOOTH",
"920 677 OFFCURVE",
"951 560 OFFCURVE",
"951 332 CURVE SMOOTH",
"951 89 LINE SMOOTH",
"951 -109 OFFCURVE",
"930 -142 OFFCURVE",
"765 -142 CURVE SMOOTH",
"732 -142 LINE"
);
}
);
width = 1247;
}
);
unicode = 0452;
},
{
glyphname = uni045B;
layers = (
{
layerId = "9209D6FA-1952-4593-83C2-3566FC124D27";
name = Light;
paths = (
{
closed = 1;
nodes = (
"264 0 LINE",
"441 0 LINE",
"441 534 LINE",
"474 479 OFFCURVE",
"517 424 OFFCURVE",
"596 424 CURVE SMOOTH",
"743 424 OFFCURVE",
"769 377 OFFCURVE",
"769 163 CURVE SMOOTH",
"769 0 LINE",
"948 0 LINE",
"948 175 LINE SMOOTH",
"948 418 OFFCURVE",
"854 535 OFFCURVE",
"624 535 CURVE SMOOTH",
"499 535 OFFCURVE",
"442 543 OFFCURVE",
"441 596 CURVE",
"441 927 LINE",
"761 927 LINE",
"761 1020 LINE",
"404 1020 LINE",
"404 1324 LINE",
"264 1324 LINE",
"264 1020 LINE",
"102 1020 LINE",
"102 926 LINE",
"264 926 LINE"
);
}
);
width = 1244;
}
);
unicode = 045B;
},
{
glyphname = uni0434.copy_1;
layers = (
{
layerId = "9209D6FA-1952-4593-83C2-3566FC124D27";
name = Light;
paths = (
{
closed = 1;
nodes = (
"39 -275 LINE",
"183 -275 LINE",
"183 0 LINE",
"901 0 LINE",
"901 -275 LINE",
"1049 -275 LINE",
"1049 120 LINE",
"970 120 LINE",
"970 999 LINE",
"331 999 LINE",
"253 451 LINE SMOOTH",
"232 306 OFFCURVE",
"196 175 OFFCURVE",
"127 120 CURVE",
"39 120 LINE"
);
},
{
closed = 1;
nodes = (
"316 120 LINE",
"351 153 OFFCURVE",
"402 292 OFFCURVE",
"428 478 CURVE SMOOTH",
"483 878 LINE",
"795 878 LINE",
"795 120 LINE"
);
}
);
width = 1108;
}
);
},
{
glyphname = uni043B.copy_1;
layers = (
{
layerId = "9209D6FA-1952-4593-83C2-3566FC124D27";
name = Light;
paths = (
{
closed = 1;
nodes = (
"62 -14 LINE",
"333 -14 OFFCURVE",
"393 167 OFFCURVE",
"434 454 CURVE SMOOTH",
"493 870 LINE",
"804 870 LINE",
"804 0 LINE",
"979 0 LINE",
"979 999 LINE",
"341 999 LINE",
"268 480 LINE SMOOTH",
"227 187 OFFCURVE",
"192 118 OFFCURVE",
"48 118 CURVE"
);
}
);
width = 1128;
}
);
},
{
glyphname = uni043C.copy_1;
layers = (
{
layerId = "9209D6FA-1952-4593-83C2-3566FC124D27";
name = Light;
paths = (
{
closed = 1;
nodes = (
"149 0 LINE",
"302 0 LINE",
"302 711 LINE",
"543 205 LINE",
"640 205 LINE",
"869 711 LINE",
"869 0 LINE",
"1022 0 LINE",
"1022 999 LINE",
"870 999 LINE",
"585 385 LINE",
"302 999 LINE",
"149 999 LINE"
);
}
);
width = 1171;
}
);
},
{
glyphname = uni043D.copy_1;
layers = (
{
layerId = "9209D6FA-1952-4593-83C2-3566FC124D27";
name = Light;
paths = (
{
closed = 1;
nodes = (
"130 0 LINE",
"305 0 LINE",
"305 471 LINE",
"800 471 LINE",
"800 0 LINE",
"975 0 LINE",
"975 999 LINE",
"800 999 LINE",
"800 594 LINE",
"305 594 LINE",
"305 999 LINE",
"130 999 LINE"
);
}
);
width = 1104;
}
);
},
{
glyphname = uni044C.copy_1;
layers = (
{
layerId = "9209D6FA-1952-4593-83C2-3566FC124D27";
name = Light;
paths = (
{
closed = 1;
nodes = (
"128 0 LINE",
"510 0 LINE SMOOTH",
"754 0 OFFCURVE",
"849 162 OFFCURVE",
"849 326 CURVE SMOOTH",
"849 490 OFFCURVE",
"748 635 OFFCURVE",
"504 635 CURVE SMOOTH",
"302 635 LINE",
"302 999 LINE",
"128 999 LINE"
);
},
{
closed = 1;
nodes = (
"302 122 LINE",
"302 511 LINE",
"506 511 LINE SMOOTH",
"626 511 OFFCURVE",
"675 419 OFFCURVE",
"675 329 CURVE SMOOTH",
"675 239 OFFCURVE",
"632 122 OFFCURVE",
"512 122 CURVE SMOOTH"
);
}
);
width = 940;
}
);
},
{
glyphname = uni045B.copy_1;
layers = (
{
layerId = "9209D6FA-1952-4593-83C2-3566FC124D27";
name = Light;
paths = (
{
closed = 1;
nodes = (
"192 0 LINE",
"366 0 LINE",
"366 502 LINE",
"395 504 OFFCURVE",
"470 519 OFFCURVE",
"576 519 CURVE SMOOTH",
"727 519 OFFCURVE",
"754 451 OFFCURVE",
"754 233 CURVE SMOOTH",
"754 0 LINE",
"928 0 LINE",
"928 269 LINE SMOOTH",
"928 520 OFFCURVE",
"830 650 OFFCURVE",
"598 650 CURVE SMOOTH",
"473 650 OFFCURVE",
"398 633 OFFCURVE",
"366 630 CURVE",
"366 954 LINE",
"704 954 LINE",
"704 1060 LINE",
"345 1060 LINE",
"345 1347 LINE",
"192 1347 LINE",
"192 1060 LINE",
"64 1060 LINE",
"64 954 LINE",
"192 954 LINE"
);
}
);
width = 1128;
}
);
},
{
glyphname = Alpha;
layers = (
{
anchors = (
{
name = top;
position = "{728, 1349}";
}
);
layerId = "9209D6FA-1952-4593-83C2-3566FC124D27";
name = Light;
paths = (
{
closed = 1;
nodes = (
"163 0 LINE",
"241 0 LINE",
"426 471 LINE",
"1026 471 LINE",
"1202 0 LINE",
"1274 0 LINE",
"765 1349 LINE",
"668 1349 LINE"
);
},
{
closed = 1;
nodes = (
"472 550 LINE",
"456 504 OFFCURVE",
"706 1237 OFFCURVE",
"714 1273 CURVE",
"725 1227 OFFCURVE",
"999 508 OFFCURVE",
"984 550 CURVE"
);
}
);
width = 1457;
}
);
unicode = 0391;
},
{
glyphname = Beta;
layers = (
{
layerId = "9209D6FA-1952-4593-83C2-3566FC124D27";
name = Light;
paths = (
{
closed = 1;
nodes = (
"150 0 LINE",
"570 0 LINE SMOOTH",
"906 0 OFFCURVE",
"1029 153 OFFCURVE",
"1029 376 CURVE SMOOTH",
"1029 539 OFFCURVE",
"943 687 OFFCURVE",
"722 712 CURVE",
"980 776 OFFCURVE",
"978 969 OFFCURVE",
"978 1025 CURVE SMOOTH",
"978 1246 OFFCURVE",
"824 1349 OFFCURVE",
"475 1349 CURVE SMOOTH",
"150 1349 LINE"
);
},
{
closed = 1;
nodes = (
"210 69 LINE",
"210 665 LINE",
"493 665 LINE SMOOTH",
"792 665 OFFCURVE",
"957 599 OFFCURVE",
"957 374 CURVE SMOOTH",
"957 169 OFFCURVE",
"818 69 OFFCURVE",
"555 69 CURVE SMOOTH"
);
},
{
closed = 1;
nodes = (
"210 750 LINE",
"210 1273 LINE",
"486 1273 LINE SMOOTH",
"744 1273 OFFCURVE",
"899 1217 OFFCURVE",
"899 1014 CURVE SMOOTH",
"899 801 OFFCURVE",
"761 750 OFFCURVE",
"569 750 CURVE SMOOTH"
);
}
);
width = 1225;
}
);
unicode = 0392;
},
{
glyphname = Gamma;
layers = (
{
layerId = "9209D6FA-1952-4593-83C2-3566FC124D27";
name = Light;
paths = (
{
closed = 1;
nodes = (
"136 0 LINE",
"298 0 LINE",
"298 1220 LINE",
"916 1220 LINE",
"930 1361 LINE",
"136 1361 LINE"
);
}
);
width = 1005;
}
);
unicode = 0393;
},
{
glyphname = Delta;
layers = (
{
layerId = "9209D6FA-1952-4593-83C2-3566FC124D27";
name = Light;
paths = (
{
closed = 1;
nodes = (
"170 0 LINE",
"1344 0 LINE",
"821 1352 LINE",
"692 1352 LINE"
);
},
{
closed = 1;
nodes = (
"342 111 LINE",
"755 1226 LINE",
"1174 111 LINE"
);
}
);
width = 1525;
}
);
unicode = 0394;
},
{
glyphname = Epsilon;
layers = (
{
anchors = (
{
name = top;
position = "{561, 1349}";
}
);
layerId = "9209D6FA-1952-4593-83C2-3566FC124D27";
name = Light;
paths = (
{
closed = 1;
nodes = (
"142 0 LINE",
"933 0 LINE",
"940 86 LINE",
"232 86 LINE",
"232 651 LINE",
"874 651 LINE",
"874 740 LINE",
"232 740 LINE",
"232 1263 LINE",
"943 1263 LINE",
"947 1349 LINE",
"142 1349 LINE"
);
}
);
width = 1123;
}
);
unicode = 0395;
},
{
glyphname = Zeta;
layers = (
{
layerId = "9209D6FA-1952-4593-83C2-3566FC124D27";
name = Light;
paths = (
{
closed = 1;
nodes = (
"142 0 LINE",
"1035 0 LINE",
"1042 87 LINE",
"242 87 LINE",
"1036 1279 LINE",
"1036 1349 LINE",
"170 1349 LINE",
"171 1261 LINE",
"919 1261 LINE",
"142 92 LINE"
);
}
);
width = 1234;
}
);
unicode = 0396;
},
{
glyphname = Eta;
layers = (
{
layerId = "9209D6FA-1952-4593-83C2-3566FC124D27";
name = Light;
paths = (
{
closed = 1;
nodes = (
"141 0 LINE",
"230 0 LINE",
"230 664 LINE",
"1046 664 LINE",
"1046 0 LINE",
"1136 0 LINE",
"1136 1349 LINE",
"1046 1349 LINE",
"1046 744 LINE",
"230 744 LINE",
"230 1349 LINE",
"141 1349 LINE"
);
}
);
width = 1307;
}
);
unicode = 0397;
},
{
glyphname = Theta;
layers = (
{
layerId = "9209D6FA-1952-4593-83C2-3566FC124D27";
name = Light;
paths = (
{
closed = 1;
nodes = (
"113 542 OFFCURVE",
"152 485 OFFCURVE",
"229 485 CURVE SMOOTH",
"307 485 OFFCURVE",
"346 542 OFFCURVE",
"346 600 CURVE SMOOTH",
"346 658 OFFCURVE",
"307 715 OFFCURVE",
"229 715 CURVE SMOOTH",
"152 715 OFFCURVE",
"113 658 OFFCURVE",
"113 600 CURVE SMOOTH"
);
}
);
width = 484;
}
);
unicode = 0398;
},
{
glyphname = Iota;
layers = (
{
layerId = "9209D6FA-1952-4593-83C2-3566FC124D27";
name = Light;
paths = (
{
closed = 1;
nodes = (
"141 0 LINE",
"230 0 LINE",
"230 1349 LINE",
"141 1349 LINE"
);
}
);
width = 385;
}
);
unicode = 0399;
},
{
glyphname = Lambda;
layers = (
{
layerId = "9209D6FA-1952-4593-83C2-3566FC124D27";
name = Light;
paths = (
{
closed = 1;
nodes = (
"171 0 LINE",
"328 0 LINE",
"756 1210 LINE",
"1192 0 LINE",
"1344 0 LINE",
"838 1355 LINE",
"676 1355 LINE"
);
}
);
width = 1525;
}
);
unicode = 039B;
},
{
glyphname = Mu;
layers = (
{
layerId = "9209D6FA-1952-4593-83C2-3566FC124D27";
name = Light;
paths = (
{
closed = 1;
nodes = (
"124 0 LINE",
"214 0 LINE",
"214 905 LINE",
"200 1243 LINE",
"249 1116 LINE",
"739 79 LINE",
"844 79 LINE",
"1315 1113 LINE",
"1365 1240 LINE",
"1357 910 LINE",
"1357 0 LINE",
"1441 0 LINE",
"1441 1349 LINE",
"1319 1349 LINE",
"784 186 LINE",
"255 1349 LINE",
"124 1349 LINE"
);
}
);
width = 1603;
}
);
unicode = 039C;
},
{
glyphname = Nu;
layers = (
{
layerId = "9209D6FA-1952-4593-83C2-3566FC124D27";
name = Light;
paths = (
{
closed = 1;
nodes = (
"141 0 LINE",
"194 0 LINE",
"194 1034 LINE SMOOTH",
"194 1200 OFFCURVE",
"206 1247 OFFCURVE",
"206 1247 CURVE",
"655 617 OFFCURVE",
"679 625 OFFCURVE",
"1133 0 CURVE",
"1214 0 LINE",
"1214 1349 LINE",
"1161 1349 LINE",
"1161 393 LINE SMOOTH",
"1161 322 OFFCURVE",
"1158 60 OFFCURVE",
"1157 110 CURVE",
"705 739 OFFCURVE",
"682 725 OFFCURVE",
"226 1349 CURVE",
"141 1349 LINE"
);
}
);
width = 1386;
}
);
unicode = 039D;
},
{
glyphname = Xi;
layers = (
{
layerId = "9209D6FA-1952-4593-83C2-3566FC124D27";
name = Light;
paths = (
{
closed = 1;
nodes = (
"113 542 OFFCURVE",
"152 485 OFFCURVE",
"229 485 CURVE SMOOTH",
"307 485 OFFCURVE",
"346 542 OFFCURVE",
"346 600 CURVE SMOOTH",
"346 658 OFFCURVE",
"307 715 OFFCURVE",
"229 715 CURVE SMOOTH",
"152 715 OFFCURVE",
"113 658 OFFCURVE",
"113 600 CURVE SMOOTH"
);
}
);
width = 484;
}
);
unicode = 039E;
},
{
glyphname = Omicron;
layers = (
{
layerId = "9209D6FA-1952-4593-83C2-3566FC124D27";
name = Light;
paths = (
{
closed = 1;
nodes = (
"1310 319 OFFCURVE",
"1137 56 OFFCURVE",
"766 56 CURVE SMOOTH",
"395 56 OFFCURVE",
"220 319 OFFCURVE",
"220 666 CURVE SMOOTH",
"220 1031 OFFCURVE",
"408 1293 OFFCURVE",
"767 1293 CURVE SMOOTH",
"1127 1293 OFFCURVE",
"1310 1029 OFFCURVE",
"1310 666 CURVE SMOOTH"
);
},
{
closed = 1;
nodes = (
"132 259 OFFCURVE",
"335 -23 OFFCURVE",
"767 -23 CURVE SMOOTH",
"1190 -23 OFFCURVE",
"1400 268 OFFCURVE",
"1400 664 CURVE SMOOTH",
"1400 1083 OFFCURVE",
"1176 1371 OFFCURVE",
"768 1371 CURVE SMOOTH",
"347 1371 OFFCURVE",
"132 1087 OFFCURVE",
"132 666 CURVE SMOOTH"
);
}
);
width = 1571;
}
);
unicode = 039F;
},
{
glyphname = Pi;
layers = (
{
layerId = "9209D6FA-1952-4593-83C2-3566FC124D27";
name = Light;
paths = (
{
closed = 1;
nodes = (
"144 0 LINE",
"295 0 LINE",
"295 1228 LINE",
"1071 1228 LINE",
"1071 0 LINE",
"1220 0 LINE",
"1220 1355 LINE",
"144 1355 LINE"
);
}
);
width = 1374;
}
);
unicode = 03A0;
},
{
glyphname = Rho;
layers = (
{
layerId = "9209D6FA-1952-4593-83C2-3566FC124D27";
name = Light;
paths = (
{
closed = 1;
nodes = (
"142 0 LINE",
"232 0 LINE",
"232 642 LINE",
"302 636 OFFCURVE",
"410 626 OFFCURVE",
"469 626 CURVE SMOOTH",
"767 626 OFFCURVE",
"927 758 OFFCURVE",
"927 1019 CURVE SMOOTH",
"927 1237 OFFCURVE",
"733 1349 OFFCURVE",
"506 1349 CURVE SMOOTH",
"142 1349 LINE"
);
},
{
closed = 1;
nodes = (
"837 795 OFFCURVE",
"704 715 OFFCURVE",
"503 715 CURVE SMOOTH",
"429 715 OFFCURVE",
"211 732 OFFCURVE",
"232 731 CURVE",
"232 1253 LINE",
"498 1253 LINE SMOOTH",
"672 1253 OFFCURVE",
"837 1194 OFFCURVE",
"837 1019 CURVE SMOOTH"
);
}
);
width = 1154;
}
);
unicode = 03A1;
},
{
glyphname = Sigma;
layers = (
{
layerId = "9209D6FA-1952-4593-83C2-3566FC124D27";
name = Light;
paths = (
{
closed = 1;
nodes = (
"142 0 LINE",
"933 0 LINE",
"940 86 LINE",
"232 86 LINE",
"232 651 LINE",
"874 651 LINE",
"874 740 LINE",
"232 740 LINE",
"232 1263 LINE",
"943 1263 LINE",
"947 1349 LINE",
"142 1349 LINE"
);
}
);
width = 1123;
}
);
unicode = 03A3;
},
{
glyphname = Tau;
layers = (
{
layerId = "9209D6FA-1952-4593-83C2-3566FC124D27";
name = Light;
paths = (
{
closed = 1;
nodes = (
"537 0 LINE",
"627 0 LINE",
"627 1263 LINE",
"1062 1263 LINE",
"1062 1349 LINE",
"98 1349 LINE",
"98 1263 LINE",
"537 1263 LINE"
);
}
);
width = 1260;
}
);
unicode = 03A4;
},
{
glyphname = Upsilon;
layers = (
{
layerId = "9209D6FA-1952-4593-83C2-3566FC124D27";
name = Light;
paths = (
{
closed = 1;
nodes = (
"598 0 LINE",
"709 0 LINE",
"709 538 LINE",
"1183 1349 LINE",
"1089 1349 LINE",
"652 615 LINE",
"216 1349 LINE",
"123 1349 LINE",
"598 534 LINE"
);
}
);
width = 1359;
}
);
unicode = 03A5;
},
{
glyphname = Phi;
layers = (
{
layerId = "9209D6FA-1952-4593-83C2-3566FC124D27";
name = Light;
paths = (
{
closed = 1;
nodes = (
"721 0 LINE",
"871 0 LINE",
"871 156 LINE",
"1265 178 OFFCURVE",
"1468 407 OFFCURVE",
"1468 701 CURVE SMOOTH",
"1468 999 OFFCURVE",
"1256 1208 OFFCURVE",
"871 1231 CURVE",
"871 1355 LINE",
"721 1355 LINE",
"721 1231 LINE",
"343 1207 OFFCURVE",
"126 999 OFFCURVE",
"126 701 CURVE SMOOTH",
"126 409 OFFCURVE",
"328 181 OFFCURVE",
"721 156 CURVE"
);
},
{
closed = 1;
nodes = (
"721 279 LINE",
"422 304 OFFCURVE",
"287 483 OFFCURVE",
"287 701 CURVE SMOOTH",
"287 926 OFFCURVE",
"433 1084 OFFCURVE",
"721 1108 CURVE"
);
},
{
closed = 1;
nodes = (
"1308 483 OFFCURVE",
"1176 303 OFFCURVE",
"871 279 CURVE",
"871 1108 LINE",
"1163 1085 OFFCURVE",
"1308 927 OFFCURVE",
"1308 701 CURVE SMOOTH"
);
}
);
width = 1611;
}
);
unicode = 03A6;
},
{
glyphname = Chi;
layers = (
{
layerId = "9209D6FA-1952-4593-83C2-3566FC124D27";
name = Light;
paths = (
{
closed = 1;
nodes = (
"166 0 LINE",
"269 0 LINE",
"647 564 LINE",
"1031 0 LINE",
"1123 0 LINE",
"683 677 LINE",
"1140 1349 LINE",
"1032 1349 LINE",
"637 790 LINE",
"239 1349 LINE",
"142 1349 LINE",
"604 674 LINE"
);
}
);
width = 1358;
}
);
unicode = 03A7;
},
{
glyphname = Psi;
layers = (
{
layerId = "9209D6FA-1952-4593-83C2-3566FC124D27";
name = Light;
paths = (
{
closed = 1;
nodes = (
"113 542 OFFCURVE",
"152 485 OFFCURVE",
"229 485 CURVE SMOOTH",
"307 485 OFFCURVE",
"346 542 OFFCURVE",
"346 600 CURVE SMOOTH",
"346 658 OFFCURVE",
"307 715 OFFCURVE",
"229 715 CURVE SMOOTH",
"152 715 OFFCURVE",
"113 658 OFFCURVE",
"113 600 CURVE SMOOTH"
);
}
);
width = 484;
}
);
unicode = 03A8;
},
{
glyphname = Omega;
layers = (
{
anchors = (
{
name = topleft;
position = "{20, 1346}";
}
);
layerId = "9209D6FA-1952-4593-83C2-3566FC124D27";
name = Light;
paths = (
{
closed = 1;
nodes = (
"1220 349 OFFCURVE",
"1072 118 OFFCURVE",
"754 118 CURVE SMOOTH",
"436 118 OFFCURVE",
"288 349 OFFCURVE",
"288 667 CURVE SMOOTH",
"288 998 OFFCURVE",
"444 1228 OFFCURVE",
"755 1228 CURVE SMOOTH",
"1066 1228 OFFCURVE",
"1220 997 OFFCURVE",
"1220 667 CURVE SMOOTH"
);
},
{
closed = 1;
nodes = (
"114 251 OFFCURVE",
"339 -20 OFFCURVE",
"754 -20 CURVE SMOOTH",
"1164 -20 OFFCURVE",
"1395 257 OFFCURVE",
"1395 667 CURVE SMOOTH",
"1395 1092 OFFCURVE",
"1156 1366 OFFCURVE",
"755 1366 CURVE SMOOTH",
"347 1366 OFFCURVE",
"114 1095 OFFCURVE",
"114 668 CURVE SMOOTH"
);
}
);
width = 1511;
}
);
unicode = 03A9;
},
{
glyphname = Alphatonos;
layers = (
{
layerId = "9209D6FA-1952-4593-83C2-3566FC124D27";
name = Light;
paths = (
{
closed = 1;
nodes = (
"113 542 OFFCURVE",
"152 485 OFFCURVE",
"229 485 CURVE SMOOTH",
"307 485 OFFCURVE",
"346 542 OFFCURVE",
"346 600 CURVE SMOOTH",
"346 658 OFFCURVE",
"307 715 OFFCURVE",
"229 715 CURVE SMOOTH",
"152 715 OFFCURVE",
"113 658 OFFCURVE",
"113 600 CURVE SMOOTH"
);
}
);
width = 484;
}
);
unicode = 0386;
},
{
glyphname = Epsilontonos;
layers = (
{
layerId = "9209D6FA-1952-4593-83C2-3566FC124D27";
name = Light;
paths = (
{
closed = 1;
nodes = (
"113 542 OFFCURVE",
"152 485 OFFCURVE",
"229 485 CURVE SMOOTH",
"307 485 OFFCURVE",
"346 542 OFFCURVE",
"346 600 CURVE SMOOTH",
"346 658 OFFCURVE",
"307 715 OFFCURVE",
"229 715 CURVE SMOOTH",
"152 715 OFFCURVE",
"113 658 OFFCURVE",
"113 600 CURVE SMOOTH"
);
}
);
width = 484;
}
);
unicode = 0388;
},
{
glyphname = Etatonos;
layers = (
{
layerId = "9209D6FA-1952-4593-83C2-3566FC124D27";
name = Light;
paths = (
{
closed = 1;
nodes = (
"113 542 OFFCURVE",
"152 485 OFFCURVE",
"229 485 CURVE SMOOTH",
"307 485 OFFCURVE",
"346 542 OFFCURVE",
"346 600 CURVE SMOOTH",
"346 658 OFFCURVE",
"307 715 OFFCURVE",
"229 715 CURVE SMOOTH",
"152 715 OFFCURVE",
"113 658 OFFCURVE",
"113 600 CURVE SMOOTH"
);
}
);
width = 484;
}
);
unicode = 0389;
},
{
glyphname = Iotatonos;
layers = (
{
layerId = "9209D6FA-1952-4593-83C2-3566FC124D27";
name = Light;
paths = (
{
closed = 1;
nodes = (
"113 542 OFFCURVE",
"152 485 OFFCURVE",
"229 485 CURVE SMOOTH",
"307 485 OFFCURVE",
"346 542 OFFCURVE",
"346 600 CURVE SMOOTH",
"346 658 OFFCURVE",
"307 715 OFFCURVE",
"229 715 CURVE SMOOTH",
"152 715 OFFCURVE",
"113 658 OFFCURVE",
"113 600 CURVE SMOOTH"
);
}
);
width = 484;
}
);
unicode = 038A;
},
{
glyphname = Omicrontonos;
layers = (
{
layerId = "9209D6FA-1952-4593-83C2-3566FC124D27";
name = Light;
paths = (
{
closed = 1;
nodes = (
"113 542 OFFCURVE",
"152 485 OFFCURVE",
"229 485 CURVE SMOOTH",
"307 485 OFFCURVE",
"346 542 OFFCURVE",
"346 600 CURVE SMOOTH",
"346 658 OFFCURVE",
"307 715 OFFCURVE",
"229 715 CURVE SMOOTH",
"152 715 OFFCURVE",
"113 658 OFFCURVE",
"113 600 CURVE SMOOTH"
);
}
);
width = 484;
}
);
unicode = 038C;
},
{
glyphname = Upsilontonos;
layers = (
{
layerId = "9209D6FA-1952-4593-83C2-3566FC124D27";
name = Light;
paths = (
{
closed = 1;
nodes = (
"113 542 OFFCURVE",
"152 485 OFFCURVE",
"229 485 CURVE SMOOTH",
"307 485 OFFCURVE",
"346 542 OFFCURVE",
"346 600 CURVE SMOOTH",
"346 658 OFFCURVE",
"307 715 OFFCURVE",
"229 715 CURVE SMOOTH",
"152 715 OFFCURVE",
"113 658 OFFCURVE",
"113 600 CURVE SMOOTH"
);
}
);
width = 484;
}
);
unicode = 038E;
},
{
glyphname = Omegatonos;
layers = (
{
layerId = "9209D6FA-1952-4593-83C2-3566FC124D27";
name = Light;
paths = (
{
closed = 1;
nodes = (
"113 542 OFFCURVE",
"152 485 OFFCURVE",
"229 485 CURVE SMOOTH",
"307 485 OFFCURVE",
"346 542 OFFCURVE",
"346 600 CURVE SMOOTH",
"346 658 OFFCURVE",
"307 715 OFFCURVE",
"229 715 CURVE SMOOTH",
"152 715 OFFCURVE",
"113 658 OFFCURVE",
"113 600 CURVE SMOOTH"
);
}
);
width = 484;
}
);
unicode = 038F;
},
{
glyphname = alpha;
layers = (
{
anchors = (
{
name = top;
position = "{243, 986}";
}
);
layerId = "9209D6FA-1952-4593-83C2-3566FC124D27";
name = Light;
paths = (
{
closed = 1;
nodes = (
"113 542 OFFCURVE",
"152 485 OFFCURVE",
"229 485 CURVE SMOOTH",
"307 485 OFFCURVE",
"346 542 OFFCURVE",
"346 600 CURVE SMOOTH",
"346 658 OFFCURVE",
"307 715 OFFCURVE",
"229 715 CURVE SMOOTH",
"152 715 OFFCURVE",
"113 658 OFFCURVE",
"113 600 CURVE SMOOTH"
);
}
);
width = 484;
}
);
unicode = 03B1;
},
{
glyphname = beta;
layers = (
{
layerId = "9209D6FA-1952-4593-83C2-3566FC124D27";
name = Light;
paths = (
{
closed = 1;
nodes = (
"113 542 OFFCURVE",
"152 485 OFFCURVE",
"229 485 CURVE SMOOTH",
"307 485 OFFCURVE",
"346 542 OFFCURVE",
"346 600 CURVE SMOOTH",
"346 658 OFFCURVE",
"307 715 OFFCURVE",
"229 715 CURVE SMOOTH",
"152 715 OFFCURVE",
"113 658 OFFCURVE",
"113 600 CURVE SMOOTH"
);
}
);
width = 484;
}
);
unicode = 03B2;
},
{
glyphname = gamma;
layers = (
{
layerId = "9209D6FA-1952-4593-83C2-3566FC124D27";
name = Light;
paths = (
{
closed = 1;
nodes = (
"113 542 OFFCURVE",
"152 485 OFFCURVE",
"229 485 CURVE SMOOTH",
"307 485 OFFCURVE",
"346 542 OFFCURVE",
"346 600 CURVE SMOOTH",
"346 658 OFFCURVE",
"307 715 OFFCURVE",
"229 715 CURVE SMOOTH",
"152 715 OFFCURVE",
"113 658 OFFCURVE",
"113 600 CURVE SMOOTH"
);
}
);
width = 484;
}
);
unicode = 03B3;
},
{
glyphname = delta;
layers = (
{
layerId = "9209D6FA-1952-4593-83C2-3566FC124D27";
name = Light;
paths = (
{
closed = 1;
nodes = (
"113 542 OFFCURVE",
"152 485 OFFCURVE",
"229 485 CURVE SMOOTH",
"307 485 OFFCURVE",
"346 542 OFFCURVE",
"346 600 CURVE SMOOTH",
"346 658 OFFCURVE",
"307 715 OFFCURVE",
"229 715 CURVE SMOOTH",
"152 715 OFFCURVE",
"113 658 OFFCURVE",
"113 600 CURVE SMOOTH"
);
}
);
width = 484;
}
);
unicode = 03B4;
},
{
glyphname = epsilon;
layers = (
{
anchors = (
{
name = top;
position = "{243, 986}";
}
);
layerId = "9209D6FA-1952-4593-83C2-3566FC124D27";
name = Light;
paths = (
{
closed = 1;
nodes = (
"113 542 OFFCURVE",
"152 485 OFFCURVE",
"229 485 CURVE SMOOTH",
"307 485 OFFCURVE",
"346 542 OFFCURVE",
"346 600 CURVE SMOOTH",
"346 658 OFFCURVE",
"307 715 OFFCURVE",
"229 715 CURVE SMOOTH",
"152 715 OFFCURVE",
"113 658 OFFCURVE",
"113 600 CURVE SMOOTH"
);
}
);
width = 484;
}
);
unicode = 03B5;
},
{
glyphname = zeta;
layers = (
{
layerId = "9209D6FA-1952-4593-83C2-3566FC124D27";
name = Light;
paths = (
{
closed = 1;
nodes = (
"113 542 OFFCURVE",
"152 485 OFFCURVE",
"229 485 CURVE SMOOTH",
"307 485 OFFCURVE",
"346 542 OFFCURVE",
"346 600 CURVE SMOOTH",
"346 658 OFFCURVE",
"307 715 OFFCURVE",
"229 715 CURVE SMOOTH",
"152 715 OFFCURVE",
"113 658 OFFCURVE",
"113 600 CURVE SMOOTH"
);
}
);
width = 484;
}
);
unicode = 03B6;
},
{
glyphname = eta;
layers = (
{
anchors = (
{
name = top;
position = "{243, 986}";
}
);
layerId = "9209D6FA-1952-4593-83C2-3566FC124D27";
name = Light;
paths = (
{
closed = 1;
nodes = (
"113 542 OFFCURVE",
"152 485 OFFCURVE",
"229 485 CURVE SMOOTH",
"307 485 OFFCURVE",
"346 542 OFFCURVE",
"346 600 CURVE SMOOTH",
"346 658 OFFCURVE",
"307 715 OFFCURVE",
"229 715 CURVE SMOOTH",
"152 715 OFFCURVE",
"113 658 OFFCURVE",
"113 600 CURVE SMOOTH"
);
}
);
width = 484;
}
);
unicode = 03B7;
},
{
glyphname = theta;
layers = (
{
layerId = "9209D6FA-1952-4593-83C2-3566FC124D27";
name = Light;
paths = (
{
closed = 1;
nodes = (
"113 542 OFFCURVE",
"152 485 OFFCURVE",
"229 485 CURVE SMOOTH",
"307 485 OFFCURVE",
"346 542 OFFCURVE",
"346 600 CURVE SMOOTH",
"346 658 OFFCURVE",
"307 715 OFFCURVE",
"229 715 CURVE SMOOTH",
"152 715 OFFCURVE",
"113 658 OFFCURVE",
"113 600 CURVE SMOOTH"
);
}
);
width = 484;
}
);
unicode = 03B8;
},
{
glyphname = iota;
layers = (
{
anchors = (
{
name = top;
position = "{243, 986}";
}
);
layerId = "9209D6FA-1952-4593-83C2-3566FC124D27";
name = Light;
paths = (
{
closed = 1;
nodes = (
"113 542 OFFCURVE",
"152 485 OFFCURVE",
"229 485 CURVE SMOOTH",
"307 485 OFFCURVE",
"346 542 OFFCURVE",
"346 600 CURVE SMOOTH",
"346 658 OFFCURVE",
"307 715 OFFCURVE",
"229 715 CURVE SMOOTH",
"152 715 OFFCURVE",
"113 658 OFFCURVE",
"113 600 CURVE SMOOTH"
);
}
);
width = 484;
}
);
unicode = 03B9;
},
{
glyphname = lambda;
layers = (
{
layerId = "9209D6FA-1952-4593-83C2-3566FC124D27";
name = Light;
paths = (
{
closed = 1;
nodes = (
"113 542 OFFCURVE",
"152 485 OFFCURVE",
"229 485 CURVE SMOOTH",
"307 485 OFFCURVE",
"346 542 OFFCURVE",
"346 600 CURVE SMOOTH",
"346 658 OFFCURVE",
"307 715 OFFCURVE",
"229 715 CURVE SMOOTH",
"152 715 OFFCURVE",
"113 658 OFFCURVE",
"113 600 CURVE SMOOTH"
);
}
);
width = 484;
}
);
unicode = 03BB;
},
{
glyphname = mu;
layers = (
{
layerId = "9209D6FA-1952-4593-83C2-3566FC124D27";
name = Light;
paths = (
{
closed = 1;
nodes = (
"102 544 OFFCURVE",
"143 484 OFFCURVE",
"223 484 CURVE SMOOTH",
"304 484 OFFCURVE",
"344 544 OFFCURVE",
"344 604 CURVE SMOOTH",
"344 664 OFFCURVE",
"304 724 OFFCURVE",
"223 724 CURVE SMOOTH",
"143 724 OFFCURVE",
"102 664 OFFCURVE",
"102 604 CURVE SMOOTH"
);
}
);
width = 451;
}
);
unicode = 03BC;
},
{
glyphname = nu;
layers = (
{
layerId = "9209D6FA-1952-4593-83C2-3566FC124D27";
name = Light;
paths = (
{
closed = 1;
nodes = (
"113 542 OFFCURVE",
"152 485 OFFCURVE",
"229 485 CURVE SMOOTH",
"307 485 OFFCURVE",
"346 542 OFFCURVE",
"346 600 CURVE SMOOTH",
"346 658 OFFCURVE",
"307 715 OFFCURVE",
"229 715 CURVE SMOOTH",
"152 715 OFFCURVE",
"113 658 OFFCURVE",
"113 600 CURVE SMOOTH"
);
}
);
width = 484;
}
);
unicode = 03BD;
},
{
glyphname = xi;
layers = (
{
layerId = "9209D6FA-1952-4593-83C2-3566FC124D27";
name = Light;
paths = (
{
closed = 1;
nodes = (
"113 542 OFFCURVE",
"152 485 OFFCURVE",
"229 485 CURVE SMOOTH",
"307 485 OFFCURVE",
"346 542 OFFCURVE",
"346 600 CURVE SMOOTH",
"346 658 OFFCURVE",
"307 715 OFFCURVE",
"229 715 CURVE SMOOTH",
"152 715 OFFCURVE",
"113 658 OFFCURVE",
"113 600 CURVE SMOOTH"
);
}
);
width = 484;
}
);
unicode = 03BE;
},
{
glyphname = omicron;
layers = (
{
anchors = (
{
name = top;
position = "{606, 986}";
}
);
layerId = "9209D6FA-1952-4593-83C2-3566FC124D27";
name = Light;
paths = (
{
closed = 1;
nodes = (
"935 268 OFFCURVE",
"844 69 OFFCURVE",
"594 69 CURVE SMOOTH",
"345 69 OFFCURVE",
"254 268 OFFCURVE",
"254 488 CURVE SMOOTH",
"254 712 OFFCURVE",
"346 914 OFFCURVE",
"595 914 CURVE SMOOTH",
"842 914 OFFCURVE",
"935 712 OFFCURVE",
"935 487 CURVE SMOOTH"
);
},
{
closed = 1;
nodes = (
"137 200 OFFCURVE",
"320 -23 OFFCURVE",
"598 -23 CURVE SMOOTH",
"865 -23 OFFCURVE",
"1052 203 OFFCURVE",
"1052 490 CURVE SMOOTH",
"1052 790 OFFCURVE",
"884 1005 OFFCURVE",
"591 1005 CURVE SMOOTH",
"306 1005 OFFCURVE",
"137 785 OFFCURVE",
"137 490 CURVE SMOOTH"
);
}
);
width = 1213;
}
);
unicode = 03BF;
},
{
glyphname = rho;
layers = (
{
layerId = "9209D6FA-1952-4593-83C2-3566FC124D27";
name = Light;
paths = (
{
closed = 1;
nodes = (
"130 -449 LINE",
"246 -441 LINE",
"246 -81 LINE SMOOTH",
"246 3 OFFCURVE",
"245 81 OFFCURVE",
"241 160 CURVE",
"306 53 OFFCURVE",
"456 -23 OFFCURVE",
"601 -23 CURVE SMOOTH",
"861 -23 OFFCURVE",
"1056 189 OFFCURVE",
"1056 481 CURVE SMOOTH",
"1056 796 OFFCURVE",
"885 1005 OFFCURVE",
"583 1005 CURVE SMOOTH",
"439 1005 OFFCURVE",
"307 938 OFFCURVE",
"255 788 CURVE",
"242 985 LINE",
"130 985 LINE"
);
},
{
closed = 1;
nodes = (
"940 241 OFFCURVE",
"828 60 OFFCURVE",
"588 60 CURVE SMOOTH",
"319 60 OFFCURVE",
"247 244 OFFCURVE",
"247 507 CURVE",
"246 740 OFFCURVE",
"334 920 OFFCURVE",
"592 920 CURVE SMOOTH",
"837 920 OFFCURVE",
"940 726 OFFCURVE",
"940 490 CURVE SMOOTH"
);
}
);
width = 1229;
}
);
unicode = 03C1;
},
{
glyphname = sigmafinal;
layers = (
{
layerId = "9209D6FA-1952-4593-83C2-3566FC124D27";
name = Light;
paths = (
{
closed = 1;
nodes = (
"113 542 OFFCURVE",
"152 485 OFFCURVE",
"229 485 CURVE SMOOTH",
"307 485 OFFCURVE",
"346 542 OFFCURVE",
"346 600 CURVE SMOOTH",
"346 658 OFFCURVE",
"307 715 OFFCURVE",
"229 715 CURVE SMOOTH",
"152 715 OFFCURVE",
"113 658 OFFCURVE",
"113 600 CURVE SMOOTH"
);
}
);
width = 484;
}
);
unicode = 03C2;
},
{
glyphname = sigma;
layers = (
{
layerId = "9209D6FA-1952-4593-83C2-3566FC124D27";
name = Light;
paths = (
{
closed = 1;
nodes = (
"113 542 OFFCURVE",
"152 485 OFFCURVE",
"229 485 CURVE SMOOTH",
"307 485 OFFCURVE",
"346 542 OFFCURVE",
"346 600 CURVE SMOOTH",
"346 658 OFFCURVE",
"307 715 OFFCURVE",
"229 715 CURVE SMOOTH",
"152 715 OFFCURVE",
"113 658 OFFCURVE",
"113 600 CURVE SMOOTH"
);
}
);
width = 484;
}
);
unicode = 03C3;
},
{
glyphname = tau;
layers = (
{
layerId = "9209D6FA-1952-4593-83C2-3566FC124D27";
name = Light;
paths = (
{
closed = 1;
nodes = (
"113 542 OFFCURVE",
"152 485 OFFCURVE",
"229 485 CURVE SMOOTH",
"307 485 OFFCURVE",
"346 542 OFFCURVE",
"346 600 CURVE SMOOTH",
"346 658 OFFCURVE",
"307 715 OFFCURVE",
"229 715 CURVE SMOOTH",
"152 715 OFFCURVE",
"113 658 OFFCURVE",
"113 600 CURVE SMOOTH"
);
}
);
width = 484;
}
);
unicode = 03C4;
},
{
glyphname = upsilon;
layers = (
{
anchors = (
{
name = top;
position = "{243, 986}";
}
);
layerId = "9209D6FA-1952-4593-83C2-3566FC124D27";
name = Light;
paths = (
{
closed = 1;
nodes = (
"113 542 OFFCURVE",
"152 485 OFFCURVE",
"229 485 CURVE SMOOTH",
"307 485 OFFCURVE",
"346 542 OFFCURVE",
"346 600 CURVE SMOOTH",
"346 658 OFFCURVE",
"307 715 OFFCURVE",
"229 715 CURVE SMOOTH",
"152 715 OFFCURVE",
"113 658 OFFCURVE",
"113 600 CURVE SMOOTH"
);
}
);
width = 484;
}
);
unicode = 03C5;
},
{
glyphname = phi;
layers = (
{
layerId = "9209D6FA-1952-4593-83C2-3566FC124D27";
name = Light;
paths = (
{
closed = 1;
nodes = (
"113 542 OFFCURVE",
"152 485 OFFCURVE",
"229 485 CURVE SMOOTH",
"307 485 OFFCURVE",
"346 542 OFFCURVE",
"346 600 CURVE SMOOTH",
"346 658 OFFCURVE",
"307 715 OFFCURVE",
"229 715 CURVE SMOOTH",
"152 715 OFFCURVE",
"113 658 OFFCURVE",
"113 600 CURVE SMOOTH"
);
}
);
width = 484;
}
);
unicode = 03C6;
},
{
glyphname = chi;
layers = (
{
layerId = "9209D6FA-1952-4593-83C2-3566FC124D27";
name = Light;
paths = (
{
closed = 1;
nodes = (
"168 0 LINE",
"275 0 LINE",
"598 423 LINE",
"925 0 LINE",
"1033 0 LINE",
"648 496 LINE",
"1026 985 LINE",
"903 985 LINE",
"596 580 LINE",
"286 985 LINE",
"180 985 LINE",
"544 500 LINE"
);
}
);
width = 1246;
}
);
unicode = 03C7;
},
{
glyphname = psi;
layers = (
{
layerId = "9209D6FA-1952-4593-83C2-3566FC124D27";
name = Light;
paths = (
{
closed = 1;
nodes = (
"113 542 OFFCURVE",
"152 485 OFFCURVE",
"229 485 CURVE SMOOTH",
"307 485 OFFCURVE",
"346 542 OFFCURVE",
"346 600 CURVE SMOOTH",
"346 658 OFFCURVE",
"307 715 OFFCURVE",
"229 715 CURVE SMOOTH",
"152 715 OFFCURVE",
"113 658 OFFCURVE",
"113 600 CURVE SMOOTH"
);
}
);
width = 484;
}
);
unicode = 03C8;
},
{
glyphname = omega;
layers = (
{
anchors = (
{
name = top;
position = "{243, 986}";
}
);
layerId = "9209D6FA-1952-4593-83C2-3566FC124D27";
name = Light;
paths = (
{
closed = 1;
nodes = (
"113 542 OFFCURVE",
"152 485 OFFCURVE",
"229 485 CURVE SMOOTH",
"307 485 OFFCURVE",
"346 542 OFFCURVE",
"346 600 CURVE SMOOTH",
"346 658 OFFCURVE",
"307 715 OFFCURVE",
"229 715 CURVE SMOOTH",
"152 715 OFFCURVE",
"113 658 OFFCURVE",
"113 600 CURVE SMOOTH"
);
}
);
width = 484;
}
);
unicode = 03C9;
},
{
glyphname = iotatonos;
layers = (
{
layerId = "9209D6FA-1952-4593-83C2-3566FC124D27";
name = Light;
paths = (
{
closed = 1;
nodes = (
"113 542 OFFCURVE",
"152 485 OFFCURVE",
"229 485 CURVE SMOOTH",
"307 485 OFFCURVE",
"346 542 OFFCURVE",
"346 600 CURVE SMOOTH",
"346 658 OFFCURVE",
"307 715 OFFCURVE",
"229 715 CURVE SMOOTH",
"152 715 OFFCURVE",
"113 658 OFFCURVE",
"113 600 CURVE SMOOTH"
);
}
);
width = 484;
}
);
unicode = 03AF;
},
{
glyphname = iotadieresis;
layers = (
{
layerId = "9209D6FA-1952-4593-83C2-3566FC124D27";
name = Light;
paths = (
{
closed = 1;
nodes = (
"225 1155 LINE",
"325 1155 LINE",
"325 1314 LINE",
"225 1314 LINE"
);
},
{
closed = 1;
nodes = (
"413 542 OFFCURVE",
"452 485 OFFCURVE",
"529 485 CURVE SMOOTH",
"607 485 OFFCURVE",
"645 542 OFFCURVE",
"645 600 CURVE SMOOTH",
"645 658 OFFCURVE",
"607 715 OFFCURVE",
"529 715 CURVE SMOOTH",
"452 715 OFFCURVE",
"413 658 OFFCURVE",
"413 600 CURVE SMOOTH"
);
},
{
closed = 1;
nodes = (
"564 1155 LINE",
"665 1155 LINE",
"665 1314 LINE",
"564 1314 LINE"
);
}
);
width = 915;
}
);
unicode = 03CA;
},
{
glyphname = iotadieresistonos;
layers = (
{
layerId = "9209D6FA-1952-4593-83C2-3566FC124D27";
name = Light;
paths = (
{
closed = 1;
nodes = (
"211 542 OFFCURVE",
"250 485 OFFCURVE",
"327 485 CURVE SMOOTH",
"405 485 OFFCURVE",
"444 542 OFFCURVE",
"444 600 CURVE SMOOTH",
"444 658 OFFCURVE",
"405 715 OFFCURVE",
"327 715 CURVE SMOOTH",
"250 715 OFFCURVE",
"211 658 OFFCURVE",
"211 600 CURVE SMOOTH"
);
},
{
closed = 1;
nodes = (
"124 883 OFFCURVE",
"163 826 OFFCURVE",
"240 826 CURVE SMOOTH",
"318 826 OFFCURVE",
"356 883 OFFCURVE",
"356 941 CURVE SMOOTH",
"356 999 OFFCURVE",
"318 1057 OFFCURVE",
"240 1057 CURVE SMOOTH",
"163 1057 OFFCURVE",
"124 999 OFFCURVE",
"124 941 CURVE SMOOTH"
);
}
);
width = 600;
}
);
unicode = 0390;
},
{
glyphname = upsilontonos;
layers = (
{
layerId = "9209D6FA-1952-4593-83C2-3566FC124D27";
name = Light;
paths = (
{
closed = 1;
nodes = (
"113 542 OFFCURVE",
"152 485 OFFCURVE",
"229 485 CURVE SMOOTH",
"307 485 OFFCURVE",
"346 542 OFFCURVE",
"346 600 CURVE SMOOTH",
"346 658 OFFCURVE",
"307 715 OFFCURVE",
"229 715 CURVE SMOOTH",
"152 715 OFFCURVE",
"113 658 OFFCURVE",
"113 600 CURVE SMOOTH"
);
}
);
width = 484;
}
);
unicode = 03CD;
},
{
glyphname = upsilondieresis;
layers = (
{
layerId = "9209D6FA-1952-4593-83C2-3566FC124D27";
name = Light;
paths = (
{
closed = 1;
nodes = (
"113 542 OFFCURVE",
"152 485 OFFCURVE",
"229 485 CURVE SMOOTH",
"307 485 OFFCURVE",
"346 542 OFFCURVE",
"346 600 CURVE SMOOTH",
"346 658 OFFCURVE",
"307 715 OFFCURVE",
"229 715 CURVE SMOOTH",
"152 715 OFFCURVE",
"113 658 OFFCURVE",
"113 600 CURVE SMOOTH"
);
}
);
width = 484;
}
);
unicode = 03CB;
},
{
glyphname = upsilondieresistonos;
layers = (
{
layerId = "9209D6FA-1952-4593-83C2-3566FC124D27";
name = Light;
paths = (
{
closed = 1;
nodes = (
"113 542 OFFCURVE",
"152 485 OFFCURVE",
"229 485 CURVE SMOOTH",
"307 485 OFFCURVE",
"346 542 OFFCURVE",
"346 600 CURVE SMOOTH",
"346 658 OFFCURVE",
"307 715 OFFCURVE",
"229 715 CURVE SMOOTH",
"152 715 OFFCURVE",
"113 658 OFFCURVE",
"113 600 CURVE SMOOTH"
);
}
);
width = 484;
}
);
unicode = 03B0;
},
{
glyphname = omicrontonos;
layers = (
{
layerId = "9209D6FA-1952-4593-83C2-3566FC124D27";
name = Light;
paths = (
{
closed = 1;
nodes = (
"113 542 OFFCURVE",
"152 485 OFFCURVE",
"229 485 CURVE SMOOTH",
"307 485 OFFCURVE",
"346 542 OFFCURVE",
"346 600 CURVE SMOOTH",
"346 658 OFFCURVE",
"307 715 OFFCURVE",
"229 715 CURVE SMOOTH",
"152 715 OFFCURVE",
"113 658 OFFCURVE",
"113 600 CURVE SMOOTH"
);
}
);
width = 484;
}
);
unicode = 03CC;
},
{
glyphname = omegatonos;
layers = (
{
layerId = "9209D6FA-1952-4593-83C2-3566FC124D27";
name = Light;
paths = (
{
closed = 1;
nodes = (
"113 542 OFFCURVE",
"152 485 OFFCURVE",
"229 485 CURVE SMOOTH",
"307 485 OFFCURVE",
"346 542 OFFCURVE",
"346 600 CURVE SMOOTH",
"346 658 OFFCURVE",
"307 715 OFFCURVE",
"229 715 CURVE SMOOTH",
"152 715 OFFCURVE",
"113 658 OFFCURVE",
"113 600 CURVE SMOOTH"
);
}
);
width = 484;
}
);
unicode = 03CE;
},
{
glyphname = alphatonos;
layers = (
{
layerId = "9209D6FA-1952-4593-83C2-3566FC124D27";
name = Light;
paths = (
{
closed = 1;
nodes = (
"113 542 OFFCURVE",
"152 485 OFFCURVE",
"229 485 CURVE SMOOTH",
"307 485 OFFCURVE",
"346 542 OFFCURVE",
"346 600 CURVE SMOOTH",
"346 658 OFFCURVE",
"307 715 OFFCURVE",
"229 715 CURVE SMOOTH",
"152 715 OFFCURVE",
"113 658 OFFCURVE",
"113 600 CURVE SMOOTH"
);
}
);
width = 484;
}
);
unicode = 03AC;
},
{
glyphname = epsilontonos;
layers = (
{
layerId = "9209D6FA-1952-4593-83C2-3566FC124D27";
name = Light;
paths = (
{
closed = 1;
nodes = (
"113 542 OFFCURVE",
"152 485 OFFCURVE",
"229 485 CURVE SMOOTH",
"307 485 OFFCURVE",
"346 542 OFFCURVE",
"346 600 CURVE SMOOTH",
"346 658 OFFCURVE",
"307 715 OFFCURVE",
"229 715 CURVE SMOOTH",
"152 715 OFFCURVE",
"113 658 OFFCURVE",
"113 600 CURVE SMOOTH"
);
}
);
width = 484;
}
);
unicode = 03AD;
},
{
glyphname = etatonos;
layers = (
{
layerId = "9209D6FA-1952-4593-83C2-3566FC124D27";
name = Light;
paths = (
{
closed = 1;
nodes = (
"113 542 OFFCURVE",
"152 485 OFFCURVE",
"229 485 CURVE SMOOTH",
"307 485 OFFCURVE",
"346 542 OFFCURVE",
"346 600 CURVE SMOOTH",
"346 658 OFFCURVE",
"307 715 OFFCURVE",
"229 715 CURVE SMOOTH",
"152 715 OFFCURVE",
"113 658 OFFCURVE",
"113 600 CURVE SMOOTH"
);
}
);
width = 484;
}
);
unicode = 03AE;
},
{
glyphname = ordfeminine;
layers = (
{
layerId = "9209D6FA-1952-4593-83C2-3566FC124D27";
name = Light;
paths = (
{
closed = 1;
nodes = (
"176 882 OFFCURVE",
"253 795 OFFCURVE",
"372 795 CURVE SMOOTH",
"461 795 OFFCURVE",
"505 835 OFFCURVE",
"536 896 CURVE",
"532 819 LINE",
"615 819 LINE",
"606 957 OFFCURVE",
"607 929 OFFCURVE",
"607 947 CURVE SMOOTH",
"611 1246 LINE SMOOTH",
"611 1416 OFFCURVE",
"519 1488 OFFCURVE",
"414 1488 CURVE SMOOTH",
"308 1488 OFFCURVE",
"231 1460 OFFCURVE",
"175 1342 CURVE",
"237 1300 LINE SMOOTH",
"287 1400 OFFCURVE",
"344 1399 OFFCURVE",
"417 1399 CURVE SMOOTH",
"520 1399 OFFCURVE",
"544 1343 OFFCURVE",
"548 1225 CURVE",
"548 1212 LINE",
"292 1200 OFFCURVE",
"176 1165 OFFCURVE",
"176 1003 CURVE SMOOTH"
);
},
{
closed = 1;
nodes = (
"159 639 LINE",
"638 639 LINE",
"638 715 LINE",
"159 715 LINE"
);
},
{
closed = 1;
nodes = (
"573 1023 OFFCURVE",
"537 879 OFFCURVE",
"389 879 CURVE SMOOTH",
"302 879 OFFCURVE",
"245 912 OFFCURVE",
"245 1001 CURVE SMOOTH",
"245 1160 OFFCURVE",
"456 1140 OFFCURVE",
"548 1147 CURVE",
"548 1164 LINE"
);
}
);
width = 817;
}
);
unicode = 00AA;
},
{
glyphname = ordmasculine;
layers = (
{
layerId = "9209D6FA-1952-4593-83C2-3566FC124D27";
name = Light;
paths = (
{
closed = 1;
nodes = (
"571 967 OFFCURVE",
"510 856 OFFCURVE",
"396 856 CURVE SMOOTH",
"277 856 OFFCURVE",
"217 962 OFFCURVE",
"217 1098 CURVE SMOOTH",
"217 1229 OFFCURVE",
"280 1340 OFFCURVE",
"392 1340 CURVE SMOOTH",
"508 1340 OFFCURVE",
"571 1230 OFFCURVE",
"571 1095 CURVE SMOOTH"
);
},
{
closed = 1;
nodes = (
"103 904 OFFCURVE",
"203 752 OFFCURVE",
"396 752 CURVE SMOOTH",
"580 752 OFFCURVE",
"683 905 OFFCURVE",
"683 1097 CURVE SMOOTH",
"683 1292 OFFCURVE",
"580 1447 OFFCURVE",
"394 1447 CURVE SMOOTH",
"209 1447 OFFCURVE",
"103 1294 OFFCURVE",
"103 1101 CURVE SMOOTH"
);
}
);
width = 788;
}
);
unicode = 00BA;
},
{
glyphname = zero;
layers = (
{
layerId = "9209D6FA-1952-4593-83C2-3566FC124D27";
name = Light;
paths = (
{
closed = 1;
nodes = (
"908 224 OFFCURVE",
"773 63 OFFCURVE",
"581 63 CURVE SMOOTH",
"389 63 OFFCURVE",
"243 223 OFFCURVE",
"243 673 CURVE",
"241 1098 OFFCURVE",
"388 1273 OFFCURVE",
"581 1273 CURVE SMOOTH",
"773 1273 OFFCURVE",
"908 1137 OFFCURVE",
"908 675 CURVE SMOOTH"
);
},
{
closed = 1;
nodes = (
"132 241 OFFCURVE",
"278 -31 OFFCURVE",
"581 -31 CURVE SMOOTH",
"884 -31 OFFCURVE",
"1018 241 OFFCURVE",
"1018 670 CURVE SMOOTH",
"1018 1128 OFFCURVE",
"863 1368 OFFCURVE",
"581 1368 CURVE SMOOTH",
"298 1368 OFFCURVE",
"132 1126 OFFCURVE",
"132 670 CURVE SMOOTH"
);
}
);
width = 1150;
}
);
unicode = 0030;
},
{
glyphname = one;
layers = (
{
layerId = "9209D6FA-1952-4593-83C2-3566FC124D27";
name = Light;
paths = (
{
closed = 1;
nodes = (
"193 0 LINE",
"947 0 LINE",
"947 88 LINE",
"608 88 LINE",
"652 44 LINE",
"652 1354 LINE",
"540 1354 LINE",
"472 1306 OFFCURVE",
"293 1255 OFFCURVE",
"231 1246 CURVE",
"231 1153 LINE",
"303 1161 OFFCURVE",
"497 1215 OFFCURVE",
"574 1274 CURVE",
"538 1290 LINE",
"538 46 LINE",
"580 88 LINE",
"193 88 LINE"
);
}
);
width = 1120;
}
);
unicode = 0031;
},
{
glyphname = two;
layers = (
{
layerId = "9209D6FA-1952-4593-83C2-3566FC124D27";
name = Light;
paths = (
{
closed = 1;
nodes = (
"140 0 LINE",
"945 0 LINE",
"950 88 LINE",
"172 88 LINE",
"181 46 LINE",
"701 556 LINE SMOOTH",
"883 734 OFFCURVE",
"938 806 OFFCURVE",
"938 1012 CURVE SMOOTH",
"938 1299 OFFCURVE",
"651 1372 OFFCURVE",
"512 1372 CURVE SMOOTH",
"364 1372 OFFCURVE",
"216 1320 OFFCURVE",
"136 1269 CURVE",
"171 1188 LINE",
"272 1247 OFFCURVE",
"394 1282 OFFCURVE",
"512 1282 CURVE SMOOTH",
"632 1282 OFFCURVE",
"830 1237 OFFCURVE",
"830 995 CURVE SMOOTH",
"830 812 OFFCURVE",
"756 749 OFFCURVE",
"623 618 CURVE SMOOTH",
"109 111 LINE"
);
}
);
width = 1120;
}
);
unicode = 0032;
},
{
glyphname = three;
layers = (
{
layerId = "9209D6FA-1952-4593-83C2-3566FC124D27";
name = Light;
paths = (
{
closed = 1;
nodes = (
"174 75 OFFCURVE",
"338 -18 OFFCURVE",
"513 -18 CURVE SMOOTH",
"804 -18 OFFCURVE",
"972 129 OFFCURVE",
"972 366 CURVE SMOOTH",
"972 581 OFFCURVE",
"837 698 OFFCURVE",
"655 729 CURVE",
"827 763 OFFCURVE",
"937 848 OFFCURVE",
"937 1048 CURVE SMOOTH",
"937 1264 OFFCURVE",
"737 1372 OFFCURVE",
"512 1372 CURVE SMOOTH",
"383 1372 OFFCURVE",
"247 1335 OFFCURVE",
"135 1266 CURVE",
"174 1186 LINE",
"270 1247 OFFCURVE",
"393 1282 OFFCURVE",
"507 1282 CURVE SMOOTH",
"677 1282 OFFCURVE",
"833 1211 OFFCURVE",
"833 1036 CURVE SMOOTH",
"833 803 OFFCURVE",
"608 782 OFFCURVE",
"414 774 CURVE",
"380 774 LINE",
"380 680 LINE",
"406 680 OFFCURVE",
"385 680 OFFCURVE",
"412 680 CURVE",
"656 675 OFFCURVE",
"868 627 OFFCURVE",
"868 362 CURVE SMOOTH",
"868 160 OFFCURVE",
"729 72 OFFCURVE",
"514 72 CURVE SMOOTH",
"381 72 OFFCURVE",
"244 137 OFFCURVE",
"197 168 CURVE",
"156 88 LINE"
);
}
);
width = 1120;
}
);
unicode = 0033;
},
{
glyphname = four;
layers = (
{
layerId = "9209D6FA-1952-4593-83C2-3566FC124D27";
name = Light;
paths = (
{
closed = 1;
nodes = (
"757 0 LINE",
"861 0 LINE",
"861 366 LINE",
"1022 366 LINE",
"1032 452 LINE",
"861 452 LINE",
"861 1354 LINE",
"767 1354 LINE",
"116 480 LINE",
"116 366 LINE",
"757 366 LINE"
);
},
{
closed = 1;
nodes = (
"227 454 LINE",
"756 1197 LINE",
"756 454 LINE"
);
}
);
width = 1120;
}
);
unicode = 0034;
},
{
glyphname = five;
layers = (
{
layerId = "9209D6FA-1952-4593-83C2-3566FC124D27";
name = Light;
paths = (
{
closed = 1;
nodes = (
"262 16 OFFCURVE",
"393 -19 OFFCURVE",
"516 -19 CURVE SMOOTH",
"770 -19 OFFCURVE",
"995 130 OFFCURVE",
"995 433 CURVE SMOOTH",
"995 651 OFFCURVE",
"857 840 OFFCURVE",
"575 840 CURVE SMOOTH",
"479 840 OFFCURVE",
"398 820 OFFCURVE",
"306 759 CURVE",
"343 1265 LINE",
"924 1265 LINE",
"934 1354 LINE",
"254 1354 LINE",
"207 656 LINE",
"309 647 LINE",
"366 709 OFFCURVE",
"470 750 OFFCURVE",
"573 750 CURVE SMOOTH",
"804 750 OFFCURVE",
"881 597 OFFCURVE",
"881 428 CURVE SMOOTH",
"881 192 OFFCURVE",
"709 72 OFFCURVE",
"505 72 CURVE SMOOTH",
"401 72 OFFCURVE",
"288 104 OFFCURVE",
"185 168 CURVE",
"147 86 LINE"
);
}
);
width = 1120;
}
);
unicode = 0035;
},
{
glyphname = six;
layers = (
{
layerId = "9209D6FA-1952-4593-83C2-3566FC124D27";
name = Light;
paths = (
{
closed = 1;
nodes = (
"170 201 OFFCURVE",
"298 -18 OFFCURVE",
"590 -18 CURVE SMOOTH",
"868 -18 OFFCURVE",
"1019 173 OFFCURVE",
"1019 403 CURVE SMOOTH",
"1019 654 OFFCURVE",
"849 837 OFFCURVE",
"640 837 CURVE SMOOTH",
"535 837 OFFCURVE",
"385 785 OFFCURVE",
"300 737 CURVE",
"852 1354 LINE",
"725 1354 LINE",
"725 1354 OFFCURVE",
"594 1228 OFFCURVE",
"473 1081 CURVE SMOOTH",
"227 787 OFFCURVE",
"170 658 OFFCURVE",
"170 434 CURVE SMOOTH"
);
},
{
closed = 1;
nodes = (
"916 232 OFFCURVE",
"802 72 OFFCURVE",
"589 72 CURVE SMOOTH",
"373 72 OFFCURVE",
"250 243 OFFCURVE",
"250 412 CURVE SMOOTH",
"250 579 OFFCURVE",
"381 735 OFFCURVE",
"611 735 CURVE SMOOTH",
"813 735 OFFCURVE",
"916 583 OFFCURVE",
"916 400 CURVE SMOOTH"
);
}
);
width = 1196;
}
);
unicode = 0036;
},
{
glyphname = seven;
layers = (
{
layerId = "9209D6FA-1952-4593-83C2-3566FC124D27";
name = Light;
paths = (
{
closed = 1;
nodes = (
"353 1 LINE",
"456 1 LINE",
"963 1270 LINE",
"963 1354 LINE",
"188 1354 LINE",
"214 1266 LINE",
"856 1266 LINE"
);
}
);
width = 1120;
}
);
unicode = 0037;
},
{
glyphname = eight;
layers = (
{
layerId = "9209D6FA-1952-4593-83C2-3566FC124D27";
name = Light;
paths = (
{
closed = 1;
nodes = (
"132 94 OFFCURVE",
"323 -18 OFFCURVE",
"560 -18 CURVE SMOOTH",
"800 -18 OFFCURVE",
"988 95 OFFCURVE",
"988 329 CURVE SMOOTH",
"988 508 OFFCURVE",
"869 656 OFFCURVE",
"676 707 CURVE",
"845 758 OFFCURVE",
"956 866 OFFCURVE",
"956 1040 CURVE SMOOTH",
"956 1246 OFFCURVE",
"801 1372 OFFCURVE",
"561 1372 CURVE SMOOTH",
"319 1372 OFFCURVE",
"162 1246 OFFCURVE",
"162 1040 CURVE SMOOTH",
"162 868 OFFCURVE",
"283 747 OFFCURVE",
"443 704 CURVE",
"241 642 OFFCURVE",
"132 527 OFFCURVE",
"132 329 CURVE SMOOTH"
);
},
{
closed = 1;
nodes = (
"886 156 OFFCURVE",
"784 72 OFFCURVE",
"560 72 CURVE SMOOTH",
"343 72 OFFCURVE",
"230 165 OFFCURVE",
"230 341 CURVE SMOOTH",
"230 519 OFFCURVE",
"374 617 OFFCURVE",
"560 654 CURVE",
"748 617 OFFCURVE",
"886 510 OFFCURVE",
"886 341 CURVE SMOOTH"
);
},
{
closed = 1;
nodes = (
"844 891 OFFCURVE",
"753 787 OFFCURVE",
"560 746 CURVE",
"369 787 OFFCURVE",
"273 891 OFFCURVE",
"273 1046 CURVE SMOOTH",
"273 1193 OFFCURVE",
"388 1282 OFFCURVE",
"560 1282 CURVE SMOOTH",
"734 1282 OFFCURVE",
"844 1193 OFFCURVE",
"844 1046 CURVE SMOOTH"
);
}
);
width = 1120;
}
);
unicode = 0038;
},
{
glyphname = nine;
layers = (
{
layerId = "9209D6FA-1952-4593-83C2-3566FC124D27";
name = Light;
paths = (
{
closed = 1;
nodes = (
"313 -7 LINE",
"437 -7 LINE",
"790 420 LINE",
"963 648 OFFCURVE",
"993 762 OFFCURVE",
"993 942 CURVE SMOOTH",
"993 1167 OFFCURVE",
"863 1372 OFFCURVE",
"581 1372 CURVE SMOOTH",
"315 1372 OFFCURVE",
"161 1178 OFFCURVE",
"161 957 CURVE SMOOTH",
"161 716 OFFCURVE",
"355 560 OFFCURVE",
"557 560 CURVE SMOOTH",
"727 560 OFFCURVE",
"810.034 625.933 OFFCURVE",
"859.109 687.79 CURVE",
"830.527 635.935 OFFCURVE",
"769.169 553.682 OFFCURVE",
"709 475 CURVE"
);
},
{
closed = 1;
nodes = (
"896 771 OFFCURVE",
"766 650 OFFCURVE",
"575 650 CURVE SMOOTH",
"381 650 OFFCURVE",
"258 782 OFFCURVE",
"258 957 CURVE SMOOTH",
"258 1121 OFFCURVE",
"376 1282 OFFCURVE",
"583 1282 CURVE SMOOTH",
"792 1282 OFFCURVE",
"896 1129 OFFCURVE",
"896 964 CURVE SMOOTH"
);
}
);
width = 1120;
}
);
unicode = 0039;
},
{
glyphname = fraction;
layers = (
{
layerId = "9209D6FA-1952-4593-83C2-3566FC124D27";
name = Light;
paths = (
{
closed = 1;
nodes = (
"135 0 LINE",
"193 0 LINE",
"985 1448 LINE",
"926 1448 LINE"
);
}
);
width = 1107;
}
);
unicode = 2044;
},
{
glyphname = threequarters;
layers = (
{
layerId = "9209D6FA-1952-4593-83C2-3566FC124D27";
name = Light;
paths = (
{
closed = 1;
nodes = (
"190 620 OFFCURVE",
"248 582 OFFCURVE",
"321 582 CURVE SMOOTH",
"442 582 OFFCURVE",
"564 682 OFFCURVE",
"564 825 CURVE SMOOTH",
"564 929 OFFCURVE",
"524 990 OFFCURVE",
"436 1029 CURVE",
"488 1062 OFFCURVE",
"546 1111 OFFCURVE",
"546 1225 CURVE SMOOTH",
"546 1363 OFFCURVE",
"422 1457 OFFCURVE",
"319 1457 CURVE SMOOTH",
"254 1457 OFFCURVE",
"193 1407 OFFCURVE",
"155 1346 CURVE",
"185 1262 LINE",
"239 1321 OFFCURVE",
"273 1359 OFFCURVE",
"327 1359 CURVE SMOOTH",
"393 1359 OFFCURVE",
"456 1323 OFFCURVE",
"456 1226 CURVE SMOOTH",
"456 1112 OFFCURVE",
"364 1084 OFFCURVE",
"277 1084 CURVE SMOOTH",
"267 1084 LINE",
"267 985 LINE",
"284 984 LINE",
"396 984 OFFCURVE",
"476 947 OFFCURVE",
"476 830 CURVE SMOOTH",
"476 737 OFFCURVE",
"395 671 OFFCURVE",
"317 671 CURVE SMOOTH",
"270 671 OFFCURVE",
"243 703 OFFCURVE",
"191 766 CURVE SMOOTH",
"149 691 LINE"
);
},
{
closed = 1;
nodes = (
"1263 54 LINE",
"1313 54 LINE",
"1313 252 LINE",
"1402 252 LINE",
"1389 336 LINE",
"1314 336 LINE",
"1314 823 LINE",
"1250 823 LINE",
"905 309 LINE",
"905 252 LINE",
"1263 252 LINE"
);
},
{
closed = 1;
nodes = (
"373 -13 LINE",
"434 -13 LINE",
"1230 1448 LINE",
"1149 1448 LINE"
);
},
{
closed = 1;
nodes = (
"986 336 LINE",
"1265 709 LINE",
"1262 571 OFFCURVE",
"1260 559 OFFCURVE",
"1259 336 CURVE"
);
}
);
width = 1566;
}
);
unicode = 00BE;
},
{
glyphname = uni00B2;
layers = (
{
layerId = "9209D6FA-1952-4593-83C2-3566FC124D27";
name = Light;
paths = (
{
closed = 1;
nodes = (
"120 592 LINE",
"558 592 LINE",
"558 708 LINE",
"268 708 LINE",
"431 878 OFFCURVE",
"560 1021 OFFCURVE",
"560 1188 CURVE SMOOTH",
"560 1324 OFFCURVE",
"469 1411 OFFCURVE",
"350 1411 CURVE SMOOTH",
"248 1411 OFFCURVE",
"164 1350 OFFCURVE",
"128 1244 CURVE",
"196 1167 LINE",
"228 1248 OFFCURVE",
"275 1296 OFFCURVE",
"344 1296 CURVE SMOOTH",
"416 1296 OFFCURVE",
"457 1252 OFFCURVE",
"457 1186 CURVE SMOOTH",
"457 1077 OFFCURVE",
"315 919 OFFCURVE",
"120 700 CURVE"
);
}
);
width = 683;
}
);
unicode = 00B2;
},
{
glyphname = uni2074;
layers = (
{
layerId = "9209D6FA-1952-4593-83C2-3566FC124D27";
name = Light;
paths = (
{
closed = 1;
nodes = (
"424 632 LINE",
"474 632 LINE",
"473 837 LINE",
"564 837 LINE",
"559 904 LINE",
"476 904 LINE",
"476 1425 LINE",
"405 1425 LINE",
"132 907 LINE",
"132 837 LINE",
"424 837 LINE"
);
},
{
closed = 1;
nodes = (
"171 904 LINE",
"426 1334 LINE",
"424 904 LINE"
);
}
);
width = 675;
}
);
unicode = 2074;
},
{
glyphname = asterisk;
layers = (
{
layerId = "9209D6FA-1952-4593-83C2-3566FC124D27";
name = Light;
paths = (
{
closed = 1;
nodes = (
"354 548 LINE",
"544 907 LINE",
"747 549 LINE",
"827 599 OFFCURVE",
"766 567 OFFCURVE",
"846 617 CURVE",
"715 784 OFFCURVE",
"640 891 OFFCURVE",
"603 943 CURVE",
"958 1024 LINE",
"925 1141 LINE",
"579 995 LINE",
"615 1390 LINE",
"485 1390 LINE",
"520 995 LINE",
"175 1141 LINE",
"144 1024 LINE",
"492 943 LINE",
"257 617 LINE"
);
}
);
width = 1123;
}
);
unicode = 002A;
},
{
glyphname = backslash;
layers = (
{
layerId = "9209D6FA-1952-4593-83C2-3566FC124D27";
name = Light;
paths = (
{
closed = 1;
nodes = (
"667 -56 LINE",
"746 -56 LINE",
"205 1354 LINE",
"127 1354 LINE"
);
}
);
width = 897;
}
);
unicode = 005C;
},
{
glyphname = bullet;
layers = (
{
layerId = "9209D6FA-1952-4593-83C2-3566FC124D27";
name = Light;
paths = (
{
closed = 1;
nodes = (
"96 512 OFFCURVE",
"236 415 OFFCURVE",
"377 415 CURVE SMOOTH",
"520 415 OFFCURVE",
"665 515 OFFCURVE",
"665 714 CURVE SMOOTH",
"665 913 OFFCURVE",
"524 1012 OFFCURVE",
"382 1012 CURVE SMOOTH",
"239 1012 OFFCURVE",
"96 911 OFFCURVE",
"96 710 CURVE SMOOTH"
);
}
);
width = 761;
}
);
unicode = 2022;
},
{
glyphname = colon;
layers = (
{
layerId = "9209D6FA-1952-4593-83C2-3566FC124D27";
name = Light;
paths = (
{
closed = 1;
nodes = (
"157 -34 LINE",
"292 -34 LINE",
"292 142 LINE",
"157 142 LINE"
);
},
{
closed = 1;
nodes = (
"157 843 LINE",
"292 843 LINE",
"292 1023 LINE",
"157 1023 LINE"
);
}
);
width = 461;
}
);
unicode = 003A;
},
{
glyphname = comma;
layers = (
{
layerId = "9209D6FA-1952-4593-83C2-3566FC124D27";
name = Light;
paths = (
{
closed = 1;
nodes = (
"142 -22 OFFCURVE",
"165 -41 OFFCURVE",
"138 -266 CURVE",
"173 -266 LINE",
"256 -42 OFFCURVE",
"239 -50 OFFCURVE",
"295 162 CURVE",
"292 192 LINE",
"155 192 LINE"
);
}
);
width = 431;
}
);
unicode = 002C;
},
{
glyphname = ellipsis;
layers = (
{
layerId = "9209D6FA-1952-4593-83C2-3566FC124D27";
name = Light;
paths = (
{
closed = 1;
nodes = (
"107 49 OFFCURVE",
"148 -11 OFFCURVE",
"228 -11 CURVE SMOOTH",
"309 -11 OFFCURVE",
"349 49 OFFCURVE",
"349 109 CURVE SMOOTH",
"349 169 OFFCURVE",
"309 229 OFFCURVE",
"228 229 CURVE SMOOTH",
"147 229 OFFCURVE",
"107 169 OFFCURVE",
"107 109 CURVE SMOOTH"
);
},
{
closed = 1;
nodes = (
"557 49 OFFCURVE",
"598 -11 OFFCURVE",
"678 -11 CURVE SMOOTH",
"759 -11 OFFCURVE",
"799 49 OFFCURVE",
"799 109 CURVE SMOOTH",
"799 169 OFFCURVE",
"759 229 OFFCURVE",
"678 229 CURVE SMOOTH",
"597 229 OFFCURVE",
"557 169 OFFCURVE",
"557 109 CURVE SMOOTH"
);
},
{
closed = 1;
nodes = (
"1006 49 OFFCURVE",
"1047 -11 OFFCURVE",
"1127 -11 CURVE SMOOTH",
"1208 -11 OFFCURVE",
"1249 49 OFFCURVE",
"1249 109 CURVE SMOOTH",
"1249 169 OFFCURVE",
"1208 229 OFFCURVE",
"1127 229 CURVE SMOOTH",
"1046 229 OFFCURVE",
"1006 169 OFFCURVE",
"1006 109 CURVE SMOOTH"
);
}
);
width = 1354;
}
);
unicode = 2026;
},
{
glyphname = exclam;
layers = (
{
layerId = "9209D6FA-1952-4593-83C2-3566FC124D27";
name = Light;
paths = (
{
closed = 1;
nodes = (
"171 382 LINE",
"212 382 LINE",
"258 1301 LINE",
"258 1378 LINE",
"121 1378 LINE",
"121 1301 LINE"
);
},
{
closed = 1;
nodes = (
"92 41 OFFCURVE",
"116 -14 OFFCURVE",
"193 -14 CURVE SMOOTH",
"273 -14 OFFCURVE",
"295 41 OFFCURVE",
"295 89 CURVE SMOOTH",
"295 137 OFFCURVE",
"273 191 OFFCURVE",
"193 191 CURVE SMOOTH",
"116 191 OFFCURVE",
"92 137 OFFCURVE",
"92 89 CURVE SMOOTH"
);
}
);
width = 384;
}
);
unicode = 0021;
},
{
glyphname = exclamdown;
layers = (
{
layerId = "9209D6FA-1952-4593-83C2-3566FC124D27";
name = Light;
paths = (
{
closed = 1;
nodes = (
"199 6 LINE",
"336 6 LINE",
"336 84 LINE",
"282 1003 LINE",
"241 1003 LINE",
"199 84 LINE"
);
},
{
closed = 1;
nodes = (
"169 1247 OFFCURVE",
"192 1192 OFFCURVE",
"270 1192 CURVE SMOOTH",
"348 1192 OFFCURVE",
"373 1247 OFFCURVE",
"373 1294 CURVE SMOOTH",
"373 1342 OFFCURVE",
"348 1398 OFFCURVE",
"270 1398 CURVE SMOOTH",
"191 1398 OFFCURVE",
"169 1341 OFFCURVE",
"169 1294 CURVE SMOOTH"
);
}
);
width = 553;
}
);
unicode = 00A1;
},
{
glyphname = numbersign;
layers = (
{
layerId = "9209D6FA-1952-4593-83C2-3566FC124D27";
name = Light;
paths = (
{
closed = 1;
nodes = (
"235 -26 LINE",
"301 -26 LINE",
"375 376 LINE",
"640 376 LINE",
"559 -26 LINE",
"655 -26 LINE",
"740 376 LINE",
"842 376 LINE",
"851 449 LINE",
"746 449 LINE",
"816 872 LINE",
"913 872 LINE",
"925 940 LINE",
"827 940 LINE",
"883 1326 LINE",
"819 1326 LINE",
"756 940 LINE",
"494 940 LINE",
"571 1326 LINE",
"471 1326 LINE",
"390 940 LINE",
"241 940 LINE",
"232 871 LINE",
"374 871 LINE",
"312 449 LINE",
"172 449 LINE",
"163 376 LINE",
"302 376 LINE"
);
},
{
closed = 1;
nodes = (
"389 449 LINE",
"479 872 LINE",
"743 872 LINE",
"653 449 LINE"
);
}
);
width = 1105;
}
);
unicode = 0023;
},
{
glyphname = period;
layers = (
{
layerId = "9209D6FA-1952-4593-83C2-3566FC124D27";
name = Light;
paths = (
{
closed = 1;
nodes = (
"115 36 OFFCURVE",
"138 -20 OFFCURVE",
"216 -20 CURVE SMOOTH",
"295 -20 OFFCURVE",
"318 35 OFFCURVE",
"318 83 CURVE SMOOTH",
"318 131 OFFCURVE",
"295 186 OFFCURVE",
"216 186 CURVE SMOOTH",
"137 186 OFFCURVE",
"115 131 OFFCURVE",
"115 83 CURVE SMOOTH"
);
}
);
width = 433;
}
);
unicode = 002E;
},
{
glyphname = periodcentered;
layers = (
{
layerId = "9209D6FA-1952-4593-83C2-3566FC124D27";
name = Light;
paths = (
{
closed = 1;
nodes = (
"107 511 LINE",
"260 511 LINE",
"260 691 LINE",
"107 691 LINE"
);
}
);
width = 372;
}
);
unicode = 00B7;
},
{
glyphname = question;
layers = (
{
layerId = "9209D6FA-1952-4593-83C2-3566FC124D27";
name = Light;
paths = (
{
closed = 1;
nodes = (
"595 926 OFFCURVE",
"300 555 OFFCURVE",
"325 374 CURVE",
"379 378 LINE",
"517 708 OFFCURVE",
"700 853 OFFCURVE",
"700 1120 CURVE SMOOTH",
"700 1292 OFFCURVE",
"603 1403 OFFCURVE",
"390 1403 CURVE SMOOTH",
"323 1403 OFFCURVE",
"191 1388 OFFCURVE",
"115 1320 CURVE",
"133 1224 LINE",
"171 1248 OFFCURVE",
"260 1296 OFFCURVE",
"364 1296 CURVE SMOOTH",
"496 1296 OFFCURVE",
"593 1254 OFFCURVE",
"595 1119 CURVE"
);
},
{
closed = 1;
nodes = (
"273 42 OFFCURVE",
"296 -14 OFFCURVE",
"375 -14 CURVE SMOOTH",
"457 -14 OFFCURVE",
"482 41 OFFCURVE",
"482 89 CURVE SMOOTH",
"482 137 OFFCURVE",
"457 191 OFFCURVE",
"375 191 CURVE SMOOTH",
"296 191 OFFCURVE",
"273 137 OFFCURVE",
"273 89 CURVE SMOOTH"
);
}
);
width = 854;
}
);
unicode = 003F;
},
{
glyphname = quotedbl;
layers = (
{
layerId = "9209D6FA-1952-4593-83C2-3566FC124D27";
name = Light;
paths = (
{
closed = 1;
nodes = (
"129 976 LINE",
"167 976 LINE",
"194 1392 LINE",
"118 1392 LINE"
);
},
{
closed = 1;
nodes = (
"354 972 LINE",
"394 972 LINE",
"418 1392 LINE",
"343 1392 LINE"
);
}
);
width = 551;
}
);
unicode = 0022;
},
{
glyphname = quotesingle;
layers = (
{
layerId = "9209D6FA-1952-4593-83C2-3566FC124D27";
name = Light;
paths = (
{
closed = 1;
nodes = (
"88 923 LINE",
"156 923 LINE",
"169 1359 LINE",
"78 1359 LINE"
);
}
);
width = 251;
}
);
unicode = 0027;
},
{
glyphname = semicolon;
layers = (
{
layerId = "9209D6FA-1952-4593-83C2-3566FC124D27";
name = Light;
paths = (
{
closed = 1;
nodes = (
"122 -279 LINE",
"183 -279 LINE",
"296 134 LINE",
"174 134 LINE"
);
},
{
closed = 1;
nodes = (
"168 843 LINE",
"303 843 LINE",
"303 1024 LINE",
"168 1024 LINE"
);
}
);
width = 449;
}
);
unicode = 003B;
},
{
glyphname = slash;
layers = (
{
layerId = "9209D6FA-1952-4593-83C2-3566FC124D27";
name = Light;
paths = (
{
closed = 1;
nodes = (
"100 -218 LINE",
"170 -218 LINE",
"833 1314 LINE",
"761 1314 LINE"
);
}
);
width = 933;
}
);
unicode = 002F;
},
{
glyphname = underscore;
layers = (
{
layerId = "9209D6FA-1952-4593-83C2-3566FC124D27";
name = Light;
paths = (
{
closed = 1;
nodes = (
"92 -280 LINE",
"903 -280 LINE",
"903 -193 LINE",
"92 -193 LINE"
);
}
);
width = 1007;
}
);
unicode = 005F;
},
{
glyphname = braceleft;
layers = (
{
layerId = "9209D6FA-1952-4593-83C2-3566FC124D27";
name = Light;
paths = (
{
closed = 1;
nodes = (
"316 -130 OFFCURVE",
"379 -263 OFFCURVE",
"584 -263 CURVE SMOOTH",
"584 -188 LINE",
"445 -186 OFFCURVE",
"395 -112 OFFCURVE",
"395 61 CURVE SMOOTH",
"395 302 LINE",
"396 402 OFFCURVE",
"357 530 OFFCURVE",
"227 566 CURVE",
"365 681 OFFCURVE",
"395 732 OFFCURVE",
"395 844 CURVE SMOOTH",
"395 1086 LINE SMOOTH",
"395 1266 OFFCURVE",
"448 1331 OFFCURVE",
"584 1333 CURVE",
"584 1411 LINE SMOOTH",
"406 1410 OFFCURVE",
"316 1292 OFFCURVE",
"316 1121 CURVE SMOOTH",
"316 924 LINE SMOOTH",
"316 757 OFFCURVE",
"298 610 OFFCURVE",
"117 610 CURVE SMOOTH",
"117 532 LINE",
"304 529 OFFCURVE",
"316 388 OFFCURVE",
"316 217 CURVE SMOOTH",
"316 72 LINE SMOOTH"
);
}
);
width = 752;
}
);
unicode = 007B;
},
{
glyphname = braceright;
layers = (
{
layerId = "9209D6FA-1952-4593-83C2-3566FC124D27";
name = Light;
paths = (
{
closed = 1;
nodes = (
"117 -263 LINE SMOOTH",
"295 -262 OFFCURVE",
"385 -144 OFFCURVE",
"385 27 CURVE SMOOTH",
"385 224 LINE SMOOTH",
"385 391 OFFCURVE",
"403 538 OFFCURVE",
"584 538 CURVE SMOOTH",
"584 616 LINE",
"397 619 OFFCURVE",
"385 760 OFFCURVE",
"385 931 CURVE SMOOTH",
"385 1076 LINE SMOOTH",
"385 1278 OFFCURVE",
"322 1411 OFFCURVE",
"117 1411 CURVE SMOOTH",
"117 1336 LINE",
"256 1334 OFFCURVE",
"306 1260 OFFCURVE",
"306 1087 CURVE SMOOTH",
"306 846 LINE",
"305 746 OFFCURVE",
"344 618 OFFCURVE",
"474 582 CURVE",
"336 467 OFFCURVE",
"306 416 OFFCURVE",
"306 304 CURVE SMOOTH",
"306 62 LINE SMOOTH",
"306 -118 OFFCURVE",
"253 -183 OFFCURVE",
"117 -185 CURVE"
);
}
);
width = 752;
}
);
unicode = 007D;
},
{
glyphname = bracketleft;
layers = (
{
layerId = "9209D6FA-1952-4593-83C2-3566FC124D27";
name = Light;
paths = (
{
closed = 1;
nodes = (
"107 -287 LINE",
"506 -287 LINE",
"506 -207 LINE",
"200 -207 LINE",
"200 1272 LINE",
"506 1272 LINE",
"506 1354 LINE",
"107 1354 LINE"
);
}
);
width = 599;
}
);
unicode = 005B;
},
{
glyphname = bracketright;
layers = (
{
layerId = "9209D6FA-1952-4593-83C2-3566FC124D27";
name = Light;
paths = (
{
closed = 1;
nodes = (
"96 -287 LINE",
"494 -287 LINE",
"494 1354 LINE",
"96 1354 LINE",
"96 1272 LINE",
"402 1272 LINE",
"402 -207 LINE",
"96 -207 LINE"
);
}
);
width = 601;
}
);
unicode = 005D;
},
{
glyphname = parenleft;
layers = (
{
layerId = "9209D6FA-1952-4593-83C2-3566FC124D27";
name = Light;
paths = (
{
closed = 1;
nodes = (
"129 313 OFFCURVE",
"214 -33 OFFCURVE",
"368 -247 CURVE",
"476 -247 LINE",
"289 40 OFFCURVE",
"244 356 OFFCURVE",
"244 655 CURVE SMOOTH",
"244 925 OFFCURVE",
"284 1163 OFFCURVE",
"477 1464 CURVE",
"366 1464 LINE",
"206 1225 OFFCURVE",
"129 945 OFFCURVE",
"129 650 CURVE"
);
}
);
width = 600;
}
);
unicode = 0028;
},
{
glyphname = parenright;
layers = (
{
layerId = "9209D6FA-1952-4593-83C2-3566FC124D27";
name = Light;
paths = (
{
closed = 1;
nodes = (
"362 356 OFFCURVE",
"317 40 OFFCURVE",
"130 -247 CURVE",
"238 -247 LINE",
"392 -33 OFFCURVE",
"477 313 OFFCURVE",
"477 650 CURVE",
"477 945 OFFCURVE",
"400 1225 OFFCURVE",
"240 1464 CURVE",
"129 1464 LINE",
"322 1163 OFFCURVE",
"362 925 OFFCURVE",
"362 655 CURVE SMOOTH"
);
}
);
width = 619;
}
);
unicode = 0029;
},
{
glyphname = emdash;
layers = (
{
layerId = "9209D6FA-1952-4593-83C2-3566FC124D27";
name = Light;
paths = (
{
closed = 1;
nodes = (
"168 520 LINE",
"2203 520 LINE",
"2203 621 LINE",
"168 621 LINE"
);
}
);
width = 2388;
}
);
unicode = 2014;
},
{
glyphname = endash;
layers = (
{
layerId = "9209D6FA-1952-4593-83C2-3566FC124D27";
name = Light;
paths = (
{
closed = 1;
nodes = (
"128 520 LINE",
"1052 520 LINE",
"1052 621 LINE",
"128 621 LINE"
);
}
);
width = 1206;
}
);
unicode = 2013;
},
{
glyphname = hyphen;
layers = (
{
layerId = "9209D6FA-1952-4593-83C2-3566FC124D27";
name = Light;
paths = (
{
closed = 1;
nodes = (
"138 482 LINE",
"562 482 LINE",
"562 573 LINE",
"138 573 LINE"
);
}
);
width = 722;
}
);
unicode = 002D;
},
{
glyphname = uni00AD;
layers = (
{
layerId = "9209D6FA-1952-4593-83C2-3566FC124D27";
name = Light;
paths = (
{
closed = 1;
nodes = (
"126 127 LINE",
"887 127 LINE",
"887 219 LINE",
"126 219 LINE"
);
}
);
width = 1017;
}
);
unicode = 00AD;
},
{
glyphname = guillemotleft;
layers = (
{
layerId = "9209D6FA-1952-4593-83C2-3566FC124D27";
name = Light;
paths = (
{
closed = 1;
nodes = (
"376 147 LINE",
"449 165 LINE",
"206 506 LINE",
"456 841 LINE",
"379 860 LINE",
"119 496 LINE",
"159 453 LINE"
);
},
{
closed = 1;
nodes = (
"704 147 LINE",
"756 165 LINE",
"534 506 LINE",
"758 841 LINE",
"706 860 LINE",
"442 516 LINE"
);
}
);
width = 936;
}
);
unicode = 00AB;
},
{
glyphname = guillemotright;
layers = (
{
layerId = "9209D6FA-1952-4593-83C2-3566FC124D27";
name = Light;
paths = (
{
closed = 1;
nodes = (
"188 147 LINE",
"453 492 LINE",
"189 860 LINE",
"135 841 LINE",
"359 506 LINE",
"135 165 LINE"
);
},
{
closed = 1;
nodes = (
"527 147 LINE",
"771 492 LINE",
"530 860 LINE",
"459 841 LINE",
"700 506 LINE",
"454 165 LINE"
);
}
);
width = 911;
}
);
unicode = 00BB;
},
{
glyphname = guilsinglleft;
layers = (
{
layerId = "9209D6FA-1952-4593-83C2-3566FC124D27";
name = Light;
paths = (
{
closed = 1;
nodes = (
"338 173 LINE",
"406 173 LINE",
"222 536 LINE",
"412 891 LINE",
"340 891 LINE",
"144 536 LINE"
);
}
);
width = 597;
}
);
unicode = 2039;
},
{
glyphname = guilsinglright;
layers = (
{
layerId = "9209D6FA-1952-4593-83C2-3566FC124D27";
name = Light;
paths = (
{
closed = 1;
nodes = (
"173 173 LINE",
"244 173 LINE",
"437 537 LINE",
"248 891 LINE",
"177 891 LINE",
"362 537 LINE"
);
}
);
width = 607;
}
);
unicode = 203A;
},
{
glyphname = quotedblbase;
layers = (
{
layerId = "9209D6FA-1952-4593-83C2-3566FC124D27";
name = Light;
paths = (
{
closed = 1;
nodes = (
"60 -235 LINE",
"118 -235 LINE",
"214 177 LINE",
"127 177 LINE"
);
},
{
closed = 1;
nodes = (
"330 -235 LINE",
"384 -235 LINE",
"486 177 LINE",
"393 177 LINE"
);
}
);
width = 594;
}
);
unicode = 201E;
},
{
glyphname = quotedblleft;
layers = (
{
layerId = "9209D6FA-1952-4593-83C2-3566FC124D27";
name = Light;
paths = (
{
closed = 1;
nodes = (
"151 826 LINE",
"288 1073 LINE",
"323 1711 LINE",
"208 1466 LINE"
);
},
{
closed = 1;
nodes = (
"438 826 LINE",
"586 1073 LINE",
"609 1711 LINE",
"503 1466 LINE"
);
}
);
width = 758;
}
);
unicode = 201C;
},
{
glyphname = quotedblright;
layers = (
{
layerId = "9209D6FA-1952-4593-83C2-3566FC124D27";
name = Light;
paths = (
{
closed = 1;
nodes = (
"75 1066 LINE",
"134 1066 LINE",
"246 1468 LINE",
"148 1468 LINE"
);
},
{
closed = 1;
nodes = (
"332 1071 LINE",
"397 1071 LINE",
"505 1468 LINE",
"407 1468 LINE"
);
}
);
width = 575;
}
);
unicode = 201D;
},
{
glyphname = quoteleft;
layers = (
{
layerId = "9209D6FA-1952-4593-83C2-3566FC124D27";
name = Light;
paths = (
{
closed = 1;
nodes = (
"151 826 LINE",
"292 1072 LINE",
"317 1711 LINE",
"211 1466 LINE"
);
}
);
width = 466;
}
);
unicode = 2018;
},
{
glyphname = quoteright;
layers = (
{
layerId = "9209D6FA-1952-4593-83C2-3566FC124D27";
name = Light;
paths = (
{
closed = 1;
nodes = (
"153 1058 LINE",
"212 1058 LINE",
"315 1468 LINE",
"227 1468 LINE"
);
}
);
width = 457;
}
);
unicode = 2019;
},
{
glyphname = quotesinglbase;
layers = (
{
layerId = "9209D6FA-1952-4593-83C2-3566FC124D27";
name = Light;
paths = (
{
closed = 1;
nodes = (
"89 -235 LINE",
"150 -235 LINE",
"253 177 LINE",
"161 177 LINE"
);
}
);
width = 388;
}
);
unicode = 201A;
},
{
glyphname = .notdef;
layers = (
{
layerId = "9209D6FA-1952-4593-83C2-3566FC124D27";
name = Light;
paths = (
{
closed = 1;
nodes = (
"172 416 LINE",
"172 573 LINE",
"690 573 LINE",
"690 416 LINE"
);
},
{
closed = 1;
nodes = (
"86 329 LINE",
"776 329 LINE",
"776 660 LINE",
"86 660 LINE"
);
}
);
width = 861;
}
);
},
{
glyphname = cent;
layers = (
{
layerId = "9209D6FA-1952-4593-83C2-3566FC124D27";
name = Light;
paths = (
{
closed = 1;
nodes = (
"575 122 LINE",
"649 122 LINE",
"649 226 LINE",
"730 231 OFFCURVE",
"828 261 OFFCURVE",
"877 318 CURVE",
"854 385 LINE",
"802 348 OFFCURVE",
"731 314 OFFCURVE",
"649 308 CURVE",
"649 1195 LINE",
"708 1193 OFFCURVE",
"775 1179 OFFCURVE",
"855 1127 CURVE",
"882 1194 LINE",
"840 1242 OFFCURVE",
"751 1276 OFFCURVE",
"649 1280 CURVE",
"649 1424 LINE",
"575 1424 LINE",
"575 1279 LINE",
"281 1252 OFFCURVE",
"143 973 OFFCURVE",
"141 742 CURVE",
"141 512 OFFCURVE",
"277 250 OFFCURVE",
"575 226 CURVE"
);
},
{
closed = 1;
nodes = (
"575 303 LINE",
"368 328 OFFCURVE",
"233 517 OFFCURVE",
"233 734 CURVE SMOOTH",
"233 960 OFFCURVE",
"376 1163 OFFCURVE",
"575 1189 CURVE"
);
}
);
width = 1001;
}
);
unicode = 00A2;
},
{
glyphname = currency;
layers = (
{
layerId = "9209D6FA-1952-4593-83C2-3566FC124D27";
name = Light;
paths = (
{
closed = 1;
nodes = (
"1069 212 LINE",
"1109 258 LINE",
"941 423 LINE",
"994 488 OFFCURVE",
"1025 569 OFFCURVE",
"1025 660 CURVE SMOOTH",
"1025 743 OFFCURVE",
"995 824 OFFCURVE",
"940 897 CURVE",
"1110 1060 LINE",
"1069 1107 LINE",
"897 945 LINE",
"829 1004 OFFCURVE",
"741 1037 OFFCURVE",
"645 1037 CURVE SMOOTH",
"549 1037 OFFCURVE",
"461 1007 OFFCURVE",
"391 946 CURVE",
"220 1107 LINE",
"175 1063 LINE",
"349 897 LINE",
"295 830 OFFCURVE",
"263 747 OFFCURVE",
"263 660 CURVE SMOOTH",
"263 572 OFFCURVE",
"294 492 OFFCURVE",
"349 423 CURVE",
"176 260 LINE",
"220 213 LINE",
"392 375 LINE",
"461 315 OFFCURVE",
"548 284 OFFCURVE",
"645 284 CURVE SMOOTH",
"742 284 OFFCURVE",
"828 315 OFFCURVE",
"897 374 CURVE"
);
},
{
closed = 1;
nodes = (
"960 491 OFFCURVE",
"821 353 OFFCURVE",
"645 353 CURVE SMOOTH",
"470 353 OFFCURVE",
"329 490 OFFCURVE",
"329 660 CURVE SMOOTH",
"329 830 OFFCURVE",
"470 968 OFFCURVE",
"645 968 CURVE SMOOTH",
"820 968 OFFCURVE",
"960 829 OFFCURVE",
"960 660 CURVE SMOOTH"
);
}
);
width = 1303;
}
);
unicode = 00A4;
},
{
glyphname = sterling;
layers = (
{
layerId = "9209D6FA-1952-4593-83C2-3566FC124D27";
name = Light;
paths = (
{
closed = 1;
nodes = (
"136 -13 LINE",
"981 -13 LINE",
"996 87 LINE",
"396 87 LINE",
"396 629 LINE",
"791 629 LINE",
"791 714 LINE",
"396 714 LINE",
"396 884 LINE SMOOTH",
"396 1123 OFFCURVE",
"456 1288 OFFCURVE",
"672 1288 CURVE SMOOTH",
"771 1288 OFFCURVE",
"857 1253 OFFCURVE",
"939 1187 CURVE",
"985 1259 LINE",
"910 1323 OFFCURVE",
"810 1373 OFFCURVE",
"677 1373 CURVE SMOOTH",
"329 1373 OFFCURVE",
"302 1091 OFFCURVE",
"302 816 CURVE SMOOTH",
"302 714 LINE",
"128 714 LINE",
"128 630 LINE",
"302 630 LINE",
"302 85 LINE",
"125 72 LINE"
);
}
);
width = 1122;
}
);
unicode = 00A3;
},
{
glyphname = yen;
layers = (
{
layerId = "9209D6FA-1952-4593-83C2-3566FC124D27";
name = Light;
paths = (
{
closed = 1;
nodes = (
"601 0 LINE",
"661 0 LINE",
"661 282 LINE",
"982 282 LINE",
"982 361 LINE",
"661 361 LINE",
"661 567 LINE",
"980 567 LINE",
"980 650 LINE",
"671 650 LINE",
"1059 1353 LINE",
"989 1353 LINE",
"633 699 LINE",
"287 1353 LINE",
"212 1353 LINE",
"581 650 LINE",
"268 650 LINE",
"268 567 LINE",
"601 567 LINE",
"601 361 LINE",
"266 361 LINE",
"266 282 LINE",
"601 282 LINE"
);
}
);
width = 1286;
}
);
unicode = 00A5;
},
{
glyphname = approxequal;
layers = (
{
layerId = "9209D6FA-1952-4593-83C2-3566FC124D27";
name = Light;
paths = (
{
closed = 1;
nodes = (
"229 612 OFFCURVE",
"137 511 OFFCURVE",
"118 322 CURVE",
"203 354 LINE",
"229 470 OFFCURVE",
"281 539 OFFCURVE",
"381 539 CURVE SMOOTH",
"430 539 OFFCURVE",
"490 505 OFFCURVE",
"555 460 CURVE",
"667 386 OFFCURVE",
"749 354 OFFCURVE",
"815 354 CURVE SMOOTH",
"985 354 OFFCURVE",
"1025 458 OFFCURVE",
"1043 642 CURVE",
"953 612 LINE",
"946 499 OFFCURVE",
"899 423 OFFCURVE",
"810 423 CURVE SMOOTH",
"749 423 OFFCURVE",
"681 477 OFFCURVE",
"611 520 CURVE",
"539 566 OFFCURVE",
"464 612 OFFCURVE",
"376 612 CURVE SMOOTH"
);
},
{
closed = 1;
nodes = (
"231 971 OFFCURVE",
"132 869 OFFCURVE",
"114 684 CURVE",
"203 721 LINE",
"225 836 OFFCURVE",
"276 902 OFFCURVE",
"377 902 CURVE SMOOTH",
"426 902 OFFCURVE",
"487 870 OFFCURVE",
"552 825 CURVE",
"661 749 OFFCURVE",
"741 717 OFFCURVE",
"813 717 CURVE SMOOTH",
"977 717 OFFCURVE",
"1021 820 OFFCURVE",
"1040 1005 CURVE",
"949 971 LINE",
"942 856 OFFCURVE",
"896 783 OFFCURVE",
"807 783 CURVE SMOOTH",
"754 783 OFFCURVE",
"703 813 OFFCURVE",
"613 872 CURVE",
"520 935 OFFCURVE",
"457 971 OFFCURVE",
"377 971 CURVE SMOOTH"
);
}
);
width = 1197;
}
);
unicode = 2248;
},
{
glyphname = asciitilde;
layers = (
{
layerId = "9209D6FA-1952-4593-83C2-3566FC124D27";
name = Light;
paths = (
{
closed = 1;
nodes = (
"110 474 LINE SMOOTH",
"157 561 OFFCURVE",
"240 631 OFFCURVE",
"325 631 CURVE SMOOTH",
"391 631 OFFCURVE",
"470 595 OFFCURVE",
"582 546 CURVE",
"655 513 OFFCURVE",
"724 488 OFFCURVE",
"779 488 CURVE SMOOTH",
"887 488 OFFCURVE",
"943 552 OFFCURVE",
"988 676 CURVE",
"957 735 LINE SMOOTH",
"937 658 OFFCURVE",
"857 577 OFFCURVE",
"776 577 CURVE SMOOTH",
"717 577 OFFCURVE",
"635 620 OFFCURVE",
"542 659 CURVE SMOOTH",
"441 704 OFFCURVE",
"399 722 OFFCURVE",
"326 722 CURVE SMOOTH",
"214 722 OFFCURVE",
"131 645 OFFCURVE",
"91 541 CURVE"
);
}
);
width = 1127;
}
);
unicode = 007E;
},
{
glyphname = divide;
layers = (
{
layerId = "9209D6FA-1952-4593-83C2-3566FC124D27";
name = Light;
paths = (
{
closed = 1;
nodes = (
"416 21 LINE",
"523 21 LINE",
"523 193 LINE",
"416 193 LINE"
);
},
{
closed = 1;
nodes = (
"61 497 LINE",
"914 497 LINE",
"914 600 LINE",
"61 600 LINE"
);
},
{
closed = 1;
nodes = (
"416 892 LINE",
"571 892 LINE",
"571 1070 LINE",
"416 1070 LINE"
);
}
);
width = 996;
}
);
unicode = 00F7;
},
{
glyphname = equal;
layers = (
{
layerId = "9209D6FA-1952-4593-83C2-3566FC124D27";
name = Light;
paths = (
{
closed = 1;
nodes = (
"148 354 LINE",
"997 354 LINE",
"997 442 LINE",
"148 442 LINE"
);
},
{
closed = 1;
nodes = (
"146 758 LINE",
"997 758 LINE",
"997 843 LINE",
"146 843 LINE"
);
}
);
width = 1161;
}
);
unicode = 003D;
},
{
glyphname = greater;
layers = (
{
layerId = "9209D6FA-1952-4593-83C2-3566FC124D27";
name = Light;
paths = (
{
closed = 1;
nodes = (
"137 116 LINE",
"1012 525 LINE",
"1012 591 LINE",
"140 1049 LINE",
"140 948 LINE",
"916 563 LINE",
"137 215 LINE"
);
}
);
width = 1142;
}
);
unicode = 003E;
},
{
glyphname = greaterequal;
layers = (
{
layerId = "9209D6FA-1952-4593-83C2-3566FC124D27";
name = Light;
paths = (
{
closed = 1;
nodes = (
"157 225 LINE",
"982 674 LINE",
"982 730 LINE",
"162 1209 LINE",
"162 1111 LINE",
"920 702 LINE",
"157 321 LINE"
);
},
{
closed = 1;
nodes = (
"119 10 LINE",
"1007 10 LINE",
"1007 108 LINE",
"119 107 LINE"
);
}
);
width = 1141;
}
);
unicode = 2265;
},
{
glyphname = infinity;
layers = (
{
layerId = "9209D6FA-1952-4593-83C2-3566FC124D27";
name = Light;
paths = (
{
closed = 1;
nodes = (
"106 401 OFFCURVE",
"225 231 OFFCURVE",
"432 231 CURVE SMOOTH",
"584 231 OFFCURVE",
"702 334 OFFCURVE",
"811 478 CURVE",
"935 313 OFFCURVE",
"1050 231 OFFCURVE",
"1188 231 CURVE SMOOTH",
"1369 231 OFFCURVE",
"1511 376 OFFCURVE",
"1511 584 CURVE SMOOTH",
"1511 782 OFFCURVE",
"1397 925 OFFCURVE",
"1190 925 CURVE SMOOTH",
"1031 925 OFFCURVE",
"916 822 OFFCURVE",
"811 678 CURVE",
"699 827 OFFCURVE",
"584 925 OFFCURVE",
"428 925 CURVE SMOOTH",
"249 925 OFFCURVE",
"106 781 OFFCURVE",
"106 600 CURVE SMOOTH"
);
},
{
closed = 1;
nodes = (
"660 453 OFFCURVE",
"555 347 OFFCURVE",
"434 347 CURVE SMOOTH",
"299 347 OFFCURVE",
"209 463 OFFCURVE",
"209 581 CURVE SMOOTH",
"209 706 OFFCURVE",
"292 813 OFFCURVE",
"427 813 CURVE SMOOTH",
"558 813 OFFCURVE",
"661 713 OFFCURVE",
"746 579 CURVE"
);
},
{
closed = 1;
nodes = (
"1399 461 OFFCURVE",
"1332 347 OFFCURVE",
"1190 347 CURVE SMOOTH",
"1074 347 OFFCURVE",
"989 428 OFFCURVE",
"877 581 CURVE",
"958 701 OFFCURVE",
"1060 813 OFFCURVE",
"1186 813 CURVE SMOOTH",
"1310 813 OFFCURVE",
"1399 718 OFFCURVE",
"1399 605 CURVE SMOOTH"
);
}
);
width = 1622;
}
);
unicode = 221E;
},
{
glyphname = integral;
layers = (
{
layerId = "9209D6FA-1952-4593-83C2-3566FC124D27";
name = Light;
paths = (
{
closed = 1;
nodes = (
"75 -383 OFFCURVE",
"102 -390 OFFCURVE",
"148 -390 CURVE SMOOTH",
"329 -390 OFFCURVE",
"384 -234 OFFCURVE",
"384 -23 CURVE SMOOTH",
"384 1255 LINE SMOOTH",
"384 1393 OFFCURVE",
"407 1465 OFFCURVE",
"516 1465 CURVE SMOOTH",
"548 1465 OFFCURVE",
"582 1461 OFFCURVE",
"603 1451 CURVE",
"602 1577 LINE",
"565 1588 OFFCURVE",
"538 1598 OFFCURVE",
"492 1598 CURVE SMOOTH",
"311 1598 OFFCURVE",
"253 1440 OFFCURVE",
"253 1229 CURVE SMOOTH",
"253 -46 LINE SMOOTH",
"253 -184 OFFCURVE",
"231 -258 OFFCURVE",
"122 -258 CURVE SMOOTH",
"90 -258 OFFCURVE",
"58 -256 OFFCURVE",
"37 -246 CURVE",
"38 -372 LINE"
);
}
);
width = 672;
}
);
unicode = 222B;
},
{
glyphname = less;
layers = (
{
layerId = "9209D6FA-1952-4593-83C2-3566FC124D27";
name = Light;
paths = (
{
closed = 1;
nodes = (
"978 109 LINE",
"978 109 OFFCURVE",
"979 207 OFFCURVE",
"979 207 CURVE SMOOTH",
"199 563 LINE",
"981 939 LINE",
"981 1041 LINE",
"107 592 LINE",
"107 527 LINE"
);
}
);
width = 1129;
}
);
unicode = 003C;
},
{
glyphname = lessequal;
layers = (
{
layerId = "9209D6FA-1952-4593-83C2-3566FC124D27";
name = Light;
paths = (
{
closed = 1;
nodes = (
"974 222 LINE",
"974 319 LINE",
"220 708 LINE",
"974 1106 LINE",
"974 1206 LINE",
"160 730 LINE",
"160 671 LINE"
);
},
{
closed = 1;
nodes = (
"115 10 LINE",
"1010 10 LINE",
"1010 107 LINE",
"115 108 LINE"
);
}
);
width = 1144;
}
);
unicode = 2264;
},
{
glyphname = logicalnot;
layers = (
{
layerId = "9209D6FA-1952-4593-83C2-3566FC124D27";
name = Light;
paths = (
{
closed = 1;
nodes = (
"918 242 LINE",
"991 242 LINE",
"991 738 LINE",
"101 738 LINE",
"101 646 LINE",
"918 646 LINE"
);
}
);
width = 1127;
}
);
unicode = 00AC;
},
{
glyphname = minus;
layers = (
{
layerId = "9209D6FA-1952-4593-83C2-3566FC124D27";
name = Light;
paths = (
{
closed = 1;
nodes = (
"68 526 LINE",
"946 526 LINE",
"946 629 LINE",
"68 629 LINE"
);
}
);
width = 1037;
}
);
unicode = 2212;
},
{
glyphname = multiply;
layers = (
{
layerId = "9209D6FA-1952-4593-83C2-3566FC124D27";
name = Light;
paths = (
{
closed = 1;
nodes = (
"91 188 LINE",
"325 485 LINE",
"559 188 LINE",
"630 240 LINE",
"630 240 OFFCURVE",
"323 601 OFFCURVE",
"372 558 CURVE",
"630 874 LINE",
"564 927 LINE",
"325 630 LINE",
"87 927 LINE",
"18 873 LINE",
"278 558 LINE",
"18 241 LINE"
);
}
);
width = 687;
}
);
unicode = 00D7;
},
{
glyphname = notequal;
layers = (
{
layerId = "9209D6FA-1952-4593-83C2-3566FC124D27";
name = Light;
paths = (
{
closed = 1;
nodes = (
"306 48 LINE",
"445 341 LINE",
"954 341 LINE",
"952 423 LINE",
"479 423 LINE",
"654 754 LINE",
"954 754 LINE",
"949 834 LINE",
"689 834 LINE",
"797 1111 LINE",
"738 1120 LINE",
"604 834 LINE",
"111 834 LINE",
"116 753 LINE",
"568 753 LINE",
"399 423 LINE",
"111 423 LINE",
"116 341 LINE",
"357 341 LINE",
"249 61 LINE"
);
}
);
width = 1087;
}
);
unicode = 2260;
},
{
glyphname = partialdiff;
layers = (
{
layerId = "9209D6FA-1952-4593-83C2-3566FC124D27";
name = Light;
paths = (
{
closed = 1;
nodes = (
"115 165 OFFCURVE",
"225 -25 OFFCURVE",
"476 -25 CURVE SMOOTH",
"835 -25 OFFCURVE",
"985 412 OFFCURVE",
"985 834 CURVE SMOOTH",
"985 1293 OFFCURVE",
"837 1503 OFFCURVE",
"566 1503 CURVE SMOOTH",
"454 1503 OFFCURVE",
"350 1465 OFFCURVE",
"274 1413 CURVE",
"286 1279 LINE",
"359 1330 OFFCURVE",
"451 1371 OFFCURVE",
"544 1371 CURVE SMOOTH",
"741 1371 OFFCURVE",
"847 1188 OFFCURVE",
"847 892 CURVE SMOOTH",
"847 867 OFFCURVE",
"846 837 OFFCURVE",
"846 820 CURVE",
"784 923 OFFCURVE",
"688 980 OFFCURVE",
"563 980 CURVE SMOOTH",
"300 980 OFFCURVE",
"115 733 OFFCURVE",
"115 411 CURVE SMOOTH"
);
},
{
closed = 1;
nodes = (
"805 349 OFFCURVE",
"674 108 OFFCURVE",
"477 108 CURVE SMOOTH",
"338 108 OFFCURVE",
"249 228 OFFCURVE",
"249 410 CURVE SMOOTH",
"249 648 OFFCURVE",
"397 851 OFFCURVE",
"586 851 CURVE SMOOTH",
"717 851 OFFCURVE",
"802 752 OFFCURVE",
"834 642 CURVE"
);
}
);
width = 1105;
}
);
unicode = 2202;
},
{
glyphname = percent;
layers = (
{
layerId = "9209D6FA-1952-4593-83C2-3566FC124D27";
name = Light;
paths = (
{
closed = 1;
nodes = (
"526 878 OFFCURVE",
"468 768 OFFCURVE",
"352 768 CURVE SMOOTH",
"238 768 OFFCURVE",
"179 871 OFFCURVE",
"179 1005 CURVE SMOOTH",
"179 1133 OFFCURVE",
"236 1254 OFFCURVE",
"352 1254 CURVE SMOOTH",
"465 1254 OFFCURVE",
"526 1138 OFFCURVE",
"526 1005 CURVE SMOOTH"
);
},
{
closed = 1;
nodes = (
"64 808 OFFCURVE",
"174 662 OFFCURVE",
"352 662 CURVE SMOOTH",
"529 662 OFFCURVE",
"643 808 OFFCURVE",
"643 1005 CURVE SMOOTH",
"643 1206 OFFCURVE",
"530 1355 OFFCURVE",
"352 1355 CURVE SMOOTH",
"175 1355 OFFCURVE",
"64 1203 OFFCURVE",
"64 1005 CURVE SMOOTH"
);
},
{
closed = 1;
nodes = (
"335 -4 LINE",
"458 -4 LINE",
"1206 1330 LINE",
"1058 1330 LINE"
);
},
{
closed = 1;
nodes = (
"1478 208 OFFCURVE",
"1408 89 OFFCURVE",
"1272 89 CURVE SMOOTH",
"1137 89 OFFCURVE",
"1067 203 OFFCURVE",
"1067 336 CURVE SMOOTH",
"1067 464 OFFCURVE",
"1136 582 OFFCURVE",
"1272 582 CURVE SMOOTH",
"1407 582 OFFCURVE",
"1478 469 OFFCURVE",
"1478 336 CURVE SMOOTH"
);
},
{
closed = 1;
nodes = (
"952 139 OFFCURVE",
"1062 -14 OFFCURVE",
"1272 -14 CURVE SMOOTH",
"1480 -14 OFFCURVE",
"1593 139 OFFCURVE",
"1593 336 CURVE SMOOTH",
"1593 537 OFFCURVE",
"1483 686 OFFCURVE",
"1272 686 CURVE SMOOTH",
"1065 686 OFFCURVE",
"952 534 OFFCURVE",
"952 336 CURVE SMOOTH"
);
}
);
width = 1657;
}
);
unicode = 0025;
},
{
glyphname = perthousand;
layers = (
{
layerId = "9209D6FA-1952-4593-83C2-3566FC124D27";
name = Light;
paths = (
{
closed = 1;
nodes = (
"532 946 OFFCURVE",
"482 836 OFFCURVE",
"381 836 CURVE SMOOTH",
"275 836 OFFCURVE",
"226 940 OFFCURVE",
"226 1074 CURVE SMOOTH",
"226 1200 OFFCURVE",
"275 1309 OFFCURVE",
"378 1309 CURVE SMOOTH",
"483 1309 OFFCURVE",
"532 1206 OFFCURVE",
"532 1072 CURVE SMOOTH"
);
},
{
closed = 1;
nodes = (
"108 865 OFFCURVE",
"205 724 OFFCURVE",
"378 724 CURVE SMOOTH",
"550 724 OFFCURVE",
"649 873 OFFCURVE",
"649 1070 CURVE SMOOTH",
"649 1283 OFFCURVE",
"556 1419 OFFCURVE",
"379 1419 CURVE SMOOTH",
"204 1419 OFFCURVE",
"108 1273 OFFCURVE",
"108 1074 CURVE SMOOTH"
);
},
{
closed = 1;
nodes = (
"246 -20 LINE",
"369 -20 LINE",
"1168 1408 LINE",
"1025 1408 LINE"
);
},
{
closed = 1;
nodes = (
"1198 197 OFFCURVE",
"1138 85 OFFCURVE",
"1017 85 CURVE SMOOTH",
"896 85 OFFCURVE",
"836 188 OFFCURVE",
"836 322 CURVE SMOOTH",
"836 448 OFFCURVE",
"895 555 OFFCURVE",
"1016 555 CURVE SMOOTH",
"1141 555 OFFCURVE",
"1198 455 OFFCURVE",
"1198 322 CURVE SMOOTH"
);
},
{
closed = 1;
nodes = (
"717 113 OFFCURVE",
"815 -27 OFFCURVE",
"1015 -27 CURVE SMOOTH",
"1216 -27 OFFCURVE",
"1315 123 OFFCURVE",
"1315 320 CURVE SMOOTH",
"1315 531 OFFCURVE",
"1221 669 OFFCURVE",
"1017 669 CURVE SMOOTH",
"813 669 OFFCURVE",
"717 520 OFFCURVE",
"717 322 CURVE SMOOTH"
);
},
{
closed = 1;
nodes = (
"1904 195 OFFCURVE",
"1843 85 OFFCURVE",
"1722 85 CURVE SMOOTH",
"1597 85 OFFCURVE",
"1536 188 OFFCURVE",
"1536 322 CURVE SMOOTH",
"1536 448 OFFCURVE",
"1596 555 OFFCURVE",
"1720 555 CURVE SMOOTH",
"1840 555 OFFCURVE",
"1904 452 OFFCURVE",
"1904 322 CURVE SMOOTH"
);
},
{
closed = 1;
nodes = (
"1421 113 OFFCURVE",
"1519 -27 OFFCURVE",
"1717 -27 CURVE SMOOTH",
"1918 -27 OFFCURVE",
"2018 123 OFFCURVE",
"2018 320 CURVE SMOOTH",
"2018 535 OFFCURVE",
"1922 669 OFFCURVE",
"1722 669 CURVE SMOOTH",
"1519 669 OFFCURVE",
"1421 520 OFFCURVE",
"1421 322 CURVE SMOOTH"
);
}
);
width = 2129;
}
);
unicode = 2030;
},
{
glyphname = plus;
layers = (
{
layerId = "9209D6FA-1952-4593-83C2-3566FC124D27";
name = Light;
paths = (
{
closed = 1;
nodes = (
"490 145 LINE",
"564 145 LINE",
"564 548 LINE",
"916 548 LINE",
"916 627 LINE",
"565 627 LINE",
"565 1022 LINE",
"491 1022 LINE",
"491 627 LINE",
"129 627 LINE",
"129 548 LINE",
"490 548 LINE"
);
}
);
width = 1065;
}
);
unicode = 002B;
},
{
glyphname = plusminus;
layers = (
{
layerId = "9209D6FA-1952-4593-83C2-3566FC124D27";
name = Light;
paths = (
{
closed = 1;
nodes = (
"517 193 LINE",
"589 193 LINE",
"589 598 LINE",
"1001 598 LINE",
"1001 682 LINE",
"586 682 LINE",
"586 1094 LINE",
"516 1094 LINE",
"516 682 LINE",
"107 682 LINE",
"107 598 LINE",
"517 598 LINE"
);
},
{
closed = 1;
nodes = (
"107 0 LINE",
"1004 0 LINE",
"1004 99 LINE",
"107 99 LINE"
);
}
);
width = 1122;
}
);
unicode = 00B1;
},
{
glyphname = product;
layers = (
{
layerId = "9209D6FA-1952-4593-83C2-3566FC124D27";
name = Light;
paths = (
{
closed = 1;
nodes = (
"136 0 LINE",
"298 0 LINE",
"298 1221 LINE",
"1039 1221 LINE",
"1039 0 LINE",
"1200 0 LINE",
"1200 1361 LINE",
"136 1361 LINE"
);
}
);
width = 1335;
}
);
unicode = 220F;
},
{
glyphname = radical;
layers = (
{
layerId = "9209D6FA-1952-4593-83C2-3566FC124D27";
name = Light;
paths = (
{
closed = 1;
nodes = (
"558 -151 LINE",
"684 -151 LINE",
"1085 1563 LINE",
"982 1563 LINE",
"858 1055 OFFCURVE",
"735 548 OFFCURVE",
"612 40 CURVE",
"558 209 LINE",
"339 809 LINE",
"102 758 LINE",
"116 648 LINE",
"255 676 LINE"
);
}
);
width = 1160;
}
);
unicode = 221A;
},
{
glyphname = summation;
layers = (
{
layerId = "9209D6FA-1952-4593-83C2-3566FC124D27";
name = Light;
paths = (
{
closed = 1;
nodes = (
"110 -341 LINE",
"1109 -341 LINE",
"1109 -224 LINE",
"226 -224 LINE",
"847 563 LINE",
"248 1326 LINE",
"1075 1326 LINE",
"1075 1433 LINE",
"132 1433 LINE",
"132 1363 LINE",
"694 555 LINE",
"110 -273 LINE"
);
}
);
width = 1236;
}
);
unicode = 2211;
},
{
glyphname = uni2206;
layers = (
{
layerId = "9209D6FA-1952-4593-83C2-3566FC124D27";
name = Light;
paths = (
{
closed = 1;
nodes = (
"99 0 LINE",
"1173 0 LINE",
"1173 78 LINE",
"723 1402 LINE",
"550 1402 LINE",
"99 78 LINE"
);
},
{
closed = 1;
nodes = (
"282 158 LINE",
"602 1087 LINE",
"632 1194 LINE",
"664 1087 LINE",
"990 158 LINE"
);
}
);
width = 1270;
}
);
unicode = 2206;
},
{
glyphname = ampersand;
layers = (
{
layerId = "9209D6FA-1952-4593-83C2-3566FC124D27";
name = Light;
paths = (
{
closed = 1;
nodes = (
"68 134 OFFCURVE",
"172 -34 OFFCURVE",
"536 -34 CURVE SMOOTH",
"745 -34 OFFCURVE",
"890 32 OFFCURVE",
"1001 127 CURVE",
"1123 -19 LINE",
"1204 4 OFFCURVE",
"1137 -4 OFFCURVE",
"1217 24 CURVE",
"1072 220 LINE",
"1130 289 OFFCURVE",
"1174 363 OFFCURVE",
"1207 443 CURVE",
"1142 511 LINE",
"1109 430 OFFCURVE",
"1069 356 OFFCURVE",
"1012 300 CURVE",
"592 737 LINE",
"790 823 OFFCURVE",
"924 928 OFFCURVE",
"924 1081 CURVE SMOOTH",
"924 1257 OFFCURVE",
"773 1352 OFFCURVE",
"574 1352 CURVE SMOOTH",
"333 1352 OFFCURVE",
"214 1228 OFFCURVE",
"214 1065 CURVE SMOOTH",
"214 944 OFFCURVE",
"271 876 OFFCURVE",
"385 757 CURVE",
"181 660 OFFCURVE",
"68 537 OFFCURVE",
"68 339 CURVE SMOOTH"
);
},
{
closed = 1;
nodes = (
"817 137 OFFCURVE",
"703 82 OFFCURVE",
"547 82 CURVE SMOOTH",
"305 82 OFFCURVE",
"181 191 OFFCURVE",
"181 349 CURVE SMOOTH",
"181 495 OFFCURVE",
"298 602 OFFCURVE",
"464 681 CURVE",
"667 475 OFFCURVE",
"716 421 OFFCURVE",
"917 216 CURVE"
);
},
{
closed = 1;
nodes = (
"789 938 OFFCURVE",
"668 875 OFFCURVE",
"516 805 CURVE",
"419 892 OFFCURVE",
"352 961 OFFCURVE",
"352 1059 CURVE SMOOTH",
"352 1175 OFFCURVE",
"442 1247 OFFCURVE",
"574 1247 CURVE SMOOTH",
"684 1247 OFFCURVE",
"789 1186 OFFCURVE",
"789 1065 CURVE SMOOTH"
);
}
);
width = 1256;
}
);
unicode = 0026;
},
{
glyphname = asciicircum;
layers = (
{
layerId = "9209D6FA-1952-4593-83C2-3566FC124D27";
name = Light;
paths = (
{
closed = 1;
nodes = (
"175 566 LINE",
"249 566 LINE",
"603 1307 LINE",
"983 566 LINE",
"1053 566 LINE",
"638 1402 LINE",
"569 1402 LINE"
);
}
);
width = 1242;
}
);
unicode = 005E;
},
{
glyphname = bar;
layers = (
{
layerId = "9209D6FA-1952-4593-83C2-3566FC124D27";
name = Light;
paths = (
{
closed = 1;
nodes = (
"59 -381 LINE",
"139 -381 LINE",
"139 1457 LINE",
"59 1457 LINE"
);
}
);
width = 209;
}
);
unicode = 007C;
},
{
glyphname = brokenbar;
layers = (
{
layerId = "9209D6FA-1952-4593-83C2-3566FC124D27";
name = Light;
paths = (
{
closed = 1;
nodes = (
"35 -380 LINE",
"116 -380 LINE",
"116 250 LINE",
"35 250 LINE"
);
},
{
closed = 1;
nodes = (
"35 830 LINE",
"116 830 LINE",
"116 1457 LINE",
"35 1457 LINE"
);
}
);
width = 159;
}
);
unicode = 00A6;
},
{
glyphname = copyright;
layers = (
{
layerId = "9209D6FA-1952-4593-83C2-3566FC124D27";
name = Light;
paths = (
{
closed = 1;
nodes = (
"447 460 OFFCURVE",
"631 253 OFFCURVE",
"890 253 CURVE SMOOTH",
"1006 253 OFFCURVE",
"1138 290 OFFCURVE",
"1196 327 CURVE",
"1170 417 LINE",
"1128 384 OFFCURVE",
"1012 346 OFFCURVE",
"914 346 CURVE SMOOTH",
"649 346 OFFCURVE",
"552 530 OFFCURVE",
"552 744 CURVE SMOOTH",
"552 929 OFFCURVE",
"639 1124 OFFCURVE",
"885 1124 CURVE SMOOTH",
"984 1124 OFFCURVE",
"1085 1100 OFFCURVE",
"1135 1059 CURVE",
"1192 1134 LINE",
"1116 1187 OFFCURVE",
"1018 1220 OFFCURVE",
"909 1220 CURVE SMOOTH",
"627 1220 OFFCURVE",
"447 1019 OFFCURVE",
"447 737 CURVE SMOOTH"
);
},
{
closed = 1;
nodes = (
"1529 342 OFFCURVE",
"1337 30 OFFCURVE",
"871 30 CURVE SMOOTH",
"430 30 OFFCURVE",
"234 345 OFFCURVE",
"234 729 CURVE SMOOTH",
"234 1102 OFFCURVE",
"430 1419 OFFCURVE",
"865 1419 CURVE SMOOTH",
"1334 1419 OFFCURVE",
"1529 1100 OFFCURVE",
"1529 722 CURVE SMOOTH"
);
},
{
closed = 1;
nodes = (
"146 179 OFFCURVE",
"527 -40 OFFCURVE",
"871 -40 CURVE SMOOTH",
"1248 -40 OFFCURVE",
"1618 179 OFFCURVE",
"1618 726 CURVE SMOOTH",
"1618 1269 OFFCURVE",
"1243 1486 OFFCURVE",
"865 1486 CURVE SMOOTH",
"521 1486 OFFCURVE",
"146 1272 OFFCURVE",
"146 726 CURVE SMOOTH"
);
}
);
width = 1775;
}
);
unicode = 00A9;
},
{
glyphname = dagger;
layers = (
{
layerId = "9209D6FA-1952-4593-83C2-3566FC124D27";
name = Light;
paths = (
{
closed = 1;
nodes = (
"393 115 LINE",
"462 115 LINE",
"462 1006 LINE",
"722 1006 LINE",
"722 1042 LINE",
"456 1042 LINE",
"456 1461 LINE",
"393 1461 LINE",
"393 1042 LINE",
"128 1042 LINE",
"128 1006 LINE",
"393 1006 LINE"
);
}
);
width = 874;
}
);
unicode = 2020;
},
{
glyphname = daggerdbl;
layers = (
{
layerId = "9209D6FA-1952-4593-83C2-3566FC124D27";
name = Light;
paths = (
{
closed = 1;
nodes = (
"438 198 LINE",
"502 198 LINE",
"502 484 LINE",
"799 484 LINE",
"799 584 LINE",
"502 584 LINE",
"503 1031 LINE",
"807 1031 LINE",
"807 1127 LINE",
"503 1127 LINE",
"503 1465 LINE",
"438 1465 LINE",
"438 1127 LINE",
"141 1127 LINE",
"141 1031 LINE",
"438 1031 LINE",
"438 584 LINE",
"135 584 LINE",
"135 484 LINE",
"438 484 LINE"
);
}
);
width = 959;
}
);
unicode = 2021;
},
{
glyphname = degree;
layers = (
{
layerId = "9209D6FA-1952-4593-83C2-3566FC124D27";
name = Light;
paths = (
{
closed = 1;
nodes = (
"580 1024 OFFCURVE",
"493 926 OFFCURVE",
"380 926 CURVE SMOOTH",
"268 926 OFFCURVE",
"182 1022 OFFCURVE",
"182 1127 CURVE SMOOTH",
"182 1232 OFFCURVE",
"270 1327 OFFCURVE",
"380 1327 CURVE SMOOTH",
"493 1327 OFFCURVE",
"580 1232 OFFCURVE",
"580 1127 CURVE SMOOTH"
);
},
{
closed = 1;
nodes = (
"102 956 OFFCURVE",
"248 832 OFFCURVE",
"379 832 CURVE SMOOTH",
"519 832 OFFCURVE",
"659 964 OFFCURVE",
"659 1123 CURVE SMOOTH",
"659 1287 OFFCURVE",
"516 1415 OFFCURVE",
"379 1415 CURVE SMOOTH",
"246 1415 OFFCURVE",
"102 1287 OFFCURVE",
"102 1123 CURVE SMOOTH"
);
}
);
width = 780;
}
);
unicode = 00B0;
},
{
glyphname = paragraph;
layers = (
{
layerId = "9209D6FA-1952-4593-83C2-3566FC124D27";
name = Light;
paths = (
{
closed = 1;
nodes = (
"500 -151 LINE",
"559 -151 LINE",
"559 1375 LINE",
"814 1375 LINE",
"814 -151 LINE",
"872 -151 LINE",
"872 1375 LINE",
"936 1375 LINE",
"936 1461 LINE",
"478 1461 LINE SMOOTH",
"161 1461 OFFCURVE",
"122 1254 OFFCURVE",
"122 1147 CURVE SMOOTH",
"122 992 OFFCURVE",
"282 809 OFFCURVE",
"500 814 CURVE"
);
}
);
width = 1035;
}
);
unicode = 00B6;
},
{
glyphname = registered;
layers = (
{
layerId = "9209D6FA-1952-4593-83C2-3566FC124D27";
name = Light;
paths = (
{
closed = 1;
nodes = (
"601 289 LINE",
"698 289 LINE",
"698 673 LINE",
"900 673 LINE",
"1021 588 OFFCURVE",
"1054 467 OFFCURVE",
"1159 289 CURVE",
"1268 289 LINE",
"1047 636 OFFCURVE",
"1098 625 OFFCURVE",
"992 687 CURVE",
"1205 702 OFFCURVE",
"1268 830 OFFCURVE",
"1268 942 CURVE SMOOTH",
"1268 1093 OFFCURVE",
"1167 1190 OFFCURVE",
"886 1190 CURVE SMOOTH",
"601 1190 LINE"
);
},
{
closed = 1;
nodes = (
"699 777 LINE",
"699 1084 LINE",
"899 1084 LINE SMOOTH",
"1064 1084 OFFCURVE",
"1130 1059 OFFCURVE",
"1130 931 CURVE SMOOTH",
"1130 809 OFFCURVE",
"1052 777 OFFCURVE",
"909 777 CURVE SMOOTH"
);
},
{
closed = 1;
nodes = (
"1532 342 OFFCURVE",
"1339 30 OFFCURVE",
"872 30 CURVE SMOOTH",
"430 30 OFFCURVE",
"234 345 OFFCURVE",
"234 729 CURVE SMOOTH",
"234 1102 OFFCURVE",
"431 1419 OFFCURVE",
"865 1419 CURVE SMOOTH",
"1335 1419 OFFCURVE",
"1532 1100 OFFCURVE",
"1532 722 CURVE SMOOTH"
);
},
{
closed = 1;
nodes = (
"146 179 OFFCURVE",
"528 -40 OFFCURVE",
"872 -40 CURVE SMOOTH",
"1250 -40 OFFCURVE",
"1620 179 OFFCURVE",
"1620 726 CURVE SMOOTH",
"1620 1269 OFFCURVE",
"1244 1486 OFFCURVE",
"865 1486 CURVE SMOOTH",
"522 1486 OFFCURVE",
"146 1272 OFFCURVE",
"146 726 CURVE SMOOTH"
);
}
);
width = 1780;
}
);
unicode = 00AE;
},
{
glyphname = section;
layers = (
{
layerId = "9209D6FA-1952-4593-83C2-3566FC124D27";
name = Light;
paths = (
{
closed = 1;
nodes = (
"207 -10 OFFCURVE",
"299 -26 OFFCURVE",
"408 -26 CURVE SMOOTH",
"637 -26 OFFCURVE",
"792 74 OFFCURVE",
"792 253 CURVE SMOOTH",
"792 355 OFFCURVE",
"741 420 OFFCURVE",
"656 468 CURVE",
"741 522 OFFCURVE",
"802 610 OFFCURVE",
"802 718 CURVE SMOOTH",
"802 852 OFFCURVE",
"707 930 OFFCURVE",
"521 1006 CURVE",
"346 1075 OFFCURVE",
"291 1117 OFFCURVE",
"291 1193 CURVE SMOOTH",
"291 1279 OFFCURVE",
"371 1316 OFFCURVE",
"499 1316 CURVE SMOOTH",
"576 1316 OFFCURVE",
"653 1299 OFFCURVE",
"739 1260 CURVE",
"747 1305 OFFCURVE",
"755 1347 OFFCURVE",
"763 1392 CURVE",
"681 1425 OFFCURVE",
"611 1443 OFFCURVE",
"523 1443 CURVE SMOOTH",
"300 1443 OFFCURVE",
"147 1361 OFFCURVE",
"147 1189 CURVE SMOOTH",
"147 1081 OFFCURVE",
"196 1018 OFFCURVE",
"281 964 CURVE",
"192 918 OFFCURVE",
"130 833 OFFCURVE",
"130 725 CURVE SMOOTH",
"130 575 OFFCURVE",
"223 497 OFFCURVE",
"424 420 CURVE",
"582 355 OFFCURVE",
"647 328 OFFCURVE",
"647 242 CURVE SMOOTH",
"647 156 OFFCURVE",
"562 99 OFFCURVE",
"410 99 CURVE SMOOTH",
"324 99 OFFCURVE",
"219 124 OFFCURVE",
"134 168 CURVE",
"134 27 LINE"
);
},
{
closed = 1;
nodes = (
"663 626 OFFCURVE",
"605 570 OFFCURVE",
"533 526 CURVE",
"481 548 LINE",
"331 607 OFFCURVE",
"268 653 OFFCURVE",
"268 740 CURVE SMOOTH",
"268 817 OFFCURVE",
"327 874 OFFCURVE",
"399 905 CURVE",
"552 849 OFFCURVE",
"663 806 OFFCURVE",
"663 699 CURVE SMOOTH"
);
}
);
width = 927;
}
);
unicode = 00A7;
},
{
glyphname = trademark;
layers = (
{
layerId = "9209D6FA-1952-4593-83C2-3566FC124D27";
name = Light;
paths = (
{
closed = 1;
nodes = (
"813 527 LINE",
"866 527 LINE",
"866 1354 LINE",
"1160 625 LINE",
"1218 625 LINE",
"1531 1348 LINE",
"1531 527 LINE",
"1589 527 LINE",
"1589 1371 LINE",
"1499 1371 LINE",
"1196 676 LINE",
"907 1371 LINE",
"813 1371 LINE"
);
},
{
closed = 1;
nodes = (
"334 527 LINE",
"391 527 LINE",
"391 1322 LINE",
"647 1322 LINE",
"647 1371 LINE",
"91 1371 LINE",
"90 1322 LINE",
"334 1322 LINE"
);
}
);
width = 1722;
}
);
unicode = 2122;
},
{
glyphname = uni2116;
layers = (
{
layerId = "9209D6FA-1952-4593-83C2-3566FC124D27";
name = Light;
paths = (
{
closed = 1;
nodes = (
"2085 0 LINE",
"2138 0 LINE",
"2138 1034 LINE SMOOTH",
"2138 1200 OFFCURVE",
"2149 1247 OFFCURVE",
"2149 1247 CURVE",
"2598 617 OFFCURVE",
"2621 625 OFFCURVE",
"3075 0 CURVE",
"3156 0 LINE",
"3156 1349 LINE",
"3105 1349 LINE",
"3105 393 LINE SMOOTH",
"3105 322 OFFCURVE",
"3100 60 OFFCURVE",
"3099 110 CURVE",
"2647 739 OFFCURVE",
"2626 725 OFFCURVE",
"2170 1349 CURVE",
"2085 1349 LINE"
);
},
{
closed = 1;
nodes = (
"-92 268 OFFCURVE",
"-184 69 OFFCURVE",
"-434 69 CURVE SMOOTH",
"-683 69 OFFCURVE",
"-774 268 OFFCURVE",
"-774 488 CURVE SMOOTH",
"-774 712 OFFCURVE",
"-682 914 OFFCURVE",
"-433 914 CURVE SMOOTH",
"-186 914 OFFCURVE",
"-92 712 OFFCURVE",
"-92 487 CURVE SMOOTH"
);
},
{
closed = 1;
nodes = (
"-891 200 OFFCURVE",
"-708 -23 OFFCURVE",
"-430 -23 CURVE SMOOTH",
"-162 -23 OFFCURVE",
"24 203 OFFCURVE",
"24 490 CURVE SMOOTH",
"24 790 OFFCURVE",
"-143 1005 OFFCURVE",
"-437 1005 CURVE SMOOTH",
"-722 1005 OFFCURVE",
"-891 785 OFFCURVE",
"-891 490 CURVE SMOOTH"
);
}
);
width = 2524;
}
);
unicode = 2116;
},
{
glyphname = lozenge;
layers = (
{
layerId = "9209D6FA-1952-4593-83C2-3566FC124D27";
name = Light;
paths = (
{
closed = 1;
nodes = (
"492 -46 LINE",
"573 -46 LINE",
"954 720 LINE",
"580 1483 LINE",
"497 1483 LINE",
"116 717 LINE"
);
},
{
closed = 1;
nodes = (
"772 494 OFFCURVE",
"651 269 OFFCURVE",
"530 49 CURVE",
"408 265 OFFCURVE",
"298 496 OFFCURVE",
"177 719 CURVE",
"299 941 OFFCURVE",
"419 1164 OFFCURVE",
"542 1382 CURVE",
"658 1159 OFFCURVE",
"775 938 OFFCURVE",
"894 717 CURVE"
);
}
);
width = 1096;
}
);
unicode = 25CA;
},
{
glyphname = commaaccentcomb;
layers = (
{
anchors = (
{
name = _bottom;
position = "{134, 0}";
}
);
layerId = "9209D6FA-1952-4593-83C2-3566FC124D27";
name = Light;
paths = (
{
closed = 1;
nodes = (
"48 -621 LINE",
"109 -621 LINE",
"220 -183 LINE",
"123 -183 LINE"
);
}
);
width = 278;
}
);
unicode = 0326;
},
{
glyphname = dblgravecmb;
layers = (
{
anchors = (
{
name = _top;
position = "{331, 986}";
}
);
layerId = "9209D6FA-1952-4593-83C2-3566FC124D27";
name = Light;
paths = (
{
closed = 1;
nodes = (
"319 1187 LINE",
"352 1187 LINE",
"177 1481 LINE",
"143 1481 LINE"
);
},
{
closed = 1;
nodes = (
"500 1187 LINE",
"519 1187 LINE",
"366 1481 LINE",
"321 1481 LINE"
);
}
);
width = 642;
}
);
unicode = 030F;
},
{
glyphname = uni0307;
layers = (
{
anchors = (
{
name = _top;
position = "{128, 986}";
}
);
layerId = "9209D6FA-1952-4593-83C2-3566FC124D27";
name = Light;
paths = (
{
closed = 1;
nodes = (
"68 1238 LINE",
"187 1238 LINE",
"187 1397 LINE",
"68 1397 LINE"
);
}
);
width = 272;
}
);
unicode = 0307;
},
{
glyphname = uni0311;
layers = (
{
layerId = "9209D6FA-1952-4593-83C2-3566FC124D27";
name = Light;
paths = (
{
closed = 1;
nodes = (
"226 1465 OFFCURVE",
"130 1383 OFFCURVE",
"130 1222 CURVE SMOOTH",
"187 1222 LINE SMOOTH",
"187 1328 OFFCURVE",
"247 1378 OFFCURVE",
"325 1378 CURVE SMOOTH",
"401 1378 OFFCURVE",
"465 1327 OFFCURVE",
"465 1222 CURVE SMOOTH",
"524 1222 LINE SMOOTH",
"524 1382 OFFCURVE",
"420 1465 OFFCURVE",
"322 1465 CURVE SMOOTH"
);
}
);
width = 665;
}
);
unicode = 0311;
},
{
glyphname = uni031B;
layers = (
{
layerId = "9209D6FA-1952-4593-83C2-3566FC124D27";
name = Light;
paths = (
{
closed = 1;
nodes = (
"134 144 OFFCURVE",
"164 142 OFFCURVE",
"190 142 CURVE SMOOTH",
"282 142 OFFCURVE",
"328 223 OFFCURVE",
"328 319 CURVE SMOOTH",
"328 364 OFFCURVE",
"318 411 OFFCURVE",
"299 456 CURVE",
"193 456 LINE",
"207 419 OFFCURVE",
"220 367 OFFCURVE",
"220 322 CURVE SMOOTH",
"220 272 OFFCURVE",
"204 231 OFFCURVE",
"151 231 CURVE SMOOTH",
"136 231 OFFCURVE",
"120 233 OFFCURVE",
"106 233 CURVE",
"106 147 LINE"
);
}
);
width = 437;
}
);
unicode = 031B;
},
{
glyphname = uni02BC;
layers = (
{
layerId = "9209D6FA-1952-4593-83C2-3566FC124D27";
name = Light;
paths = (
{
closed = 1;
nodes = (
"144 1086 LINE",
"220 1086 LINE",
"396 1481 LINE",
"297 1481 LINE"
);
}
);
width = 551;
}
);
unicode = 02BC;
},
{
glyphname = acute;
layers = (
{
anchors = (
{
name = _top;
position = "{261, 986}";
}
);
layerId = "9209D6FA-1952-4593-83C2-3566FC124D27";
name = Light;
paths = (
{
closed = 1;
nodes = (
"81 1176 LINE",
"145 1176 LINE",
"441 1523 LINE",
"258 1523 LINE"
);
}
);
width = 611;
}
);
unicode = 00B4;
},
{
glyphname = breve;
layers = (
{
anchors = (
{
name = _top;
position = "{365, 986}";
}
);
layerId = "9209D6FA-1952-4593-83C2-3566FC124D27";
name = Light;
paths = (
{
closed = 1;
nodes = (
"167 1291 OFFCURVE",
"281 1235 OFFCURVE",
"363 1235 CURVE SMOOTH",
"446 1235 OFFCURVE",
"563 1292 OFFCURVE",
"563 1443 CURVE SMOOTH",
"505 1443 LINE SMOOTH",
"505 1339 OFFCURVE",
"423 1287 OFFCURVE",
"363 1287 CURVE SMOOTH",
"303 1287 OFFCURVE",
"227 1339 OFFCURVE",
"227 1443 CURVE SMOOTH",
"167 1443 LINE SMOOTH"
);
}
);
width = 734;
}
);
unicode = 02D8;
},
{
glyphname = caron;
layers = (
{
anchors = (
{
name = _top;
position = "{364, 986}";
}
);
layerId = "9209D6FA-1952-4593-83C2-3566FC124D27";
name = Light;
paths = (
{
closed = 1;
nodes = (
"266 1179 LINE",
"463 1179 LINE",
"574 1542 LINE",
"516 1542 LINE",
"372 1186 LINE",
"212 1542 LINE",
"154 1542 LINE"
);
}
);
width = 765;
}
);
unicode = 02C7;
},
{
glyphname = cedilla;
layers = (
{
anchors = (
{
name = _bottom;
position = "{206, 0}";
}
);
layerId = "9209D6FA-1952-4593-83C2-3566FC124D27";
name = Light;
paths = (
{
closed = 1;
nodes = (
"148 -423 LINE",
"236 -423 LINE",
"265 -15 LINE",
"239 -15 LINE"
);
}
);
width = 563;
}
);
unicode = 00B8;
},
{
glyphname = circumflex;
layers = (
{
anchors = (
{
name = _top;
position = "{365, 986}";
}
);
layerId = "9209D6FA-1952-4593-83C2-3566FC124D27";
name = Light;
paths = (
{
closed = 1;
nodes = (
"148 1199 LINE",
"221 1199 LINE",
"372 1483 LINE",
"510 1199 LINE",
"582 1199 LINE",
"462 1542 LINE",
"270 1542 LINE"
);
}
);
width = 764;
}
);
unicode = 02C6;
},
{
glyphname = dieresis;
layers = (
{
anchors = (
{
name = _top;
position = "{361, 986}";
}
);
layerId = "9209D6FA-1952-4593-83C2-3566FC124D27";
name = Light;
paths = (
{
closed = 1;
nodes = (
"140 1155 LINE",
"241 1155 LINE",
"241 1314 LINE",
"140 1314 LINE"
);
},
{
closed = 1;
nodes = (
"479 1155 LINE",
"581 1155 LINE",
"581 1314 LINE",
"479 1314 LINE"
);
}
);
width = 716;
}
);
unicode = 00A8;
},
{
glyphname = dotaccent;
layers = (
{
anchors = (
{
name = _top;
position = "{152, 986}";
}
);
layerId = "9209D6FA-1952-4593-83C2-3566FC124D27";
name = Light;
paths = (
{
closed = 1;
nodes = (
"93 1215 LINE",
"212 1215 LINE",
"212 1374 LINE",
"93 1374 LINE"
);
}
);
width = 299;
}
);
unicode = 02D9;
},
{
glyphname = grave;
layers = (
{
anchors = (
{
name = _top;
position = "{318, 986}";
}
);
layerId = "9209D6FA-1952-4593-83C2-3566FC124D27";
name = Light;
paths = (
{
closed = 1;
nodes = (
"431 1176 LINE",
"486 1176 LINE",
"325 1523 LINE",
"150 1523 LINE"
);
}
);
width = 689;
}
);
unicode = 0060;
},
{
glyphname = hungarumlaut;
layers = (
{
anchors = (
{
name = _top;
position = "{299, 986}";
}
);
layerId = "9209D6FA-1952-4593-83C2-3566FC124D27";
name = Light;
paths = (
{
closed = 1;
nodes = (
"111 1212 LINE",
"163 1212 LINE",
"327 1494 LINE",
"253 1494 LINE"
);
},
{
closed = 1;
nodes = (
"278 1212 LINE",
"333 1212 LINE",
"488 1494 LINE",
"420 1494 LINE"
);
}
);
width = 650;
}
);
unicode = 02DD;
},
{
glyphname = macron;
layers = (
{
anchors = (
{
name = _top;
position = "{539, 986}";
}
);
layerId = "9209D6FA-1952-4593-83C2-3566FC124D27";
name = Light;
paths = (
{
closed = 1;
nodes = (
"145 1426 LINE",
"933 1426 LINE",
"933 1532 LINE",
"145 1532 LINE"
);
}
);
width = 1090;
}
);
unicode = 00AF;
},
{
glyphname = ogonek;
layers = (
{
anchors = (
{
name = _ogonek;
position = "{393, 10}";
}
);
layerId = "9209D6FA-1952-4593-83C2-3566FC124D27";
name = Light;
paths = (
{
closed = 1;
nodes = (
"116 -351 OFFCURVE",
"184 -408 OFFCURVE",
"278 -408 CURVE SMOOTH",
"319 -408 OFFCURVE",
"377 -395 OFFCURVE",
"397 -384 CURVE SMOOTH",
"397 -384 OFFCURVE",
"402 -301 OFFCURVE",
"403 -301 CURVE SMOOTH",
"331 -329 OFFCURVE",
"323 -330 OFFCURVE",
"276 -330 CURVE SMOOTH",
"240 -330 OFFCURVE",
"184 -298 OFFCURVE",
"184 -241 CURVE SMOOTH",
"184 -174 OFFCURVE",
"281 -104 OFFCURVE",
"392 -25 CURVE",
"290 -36 LINE",
"191 -93 OFFCURVE",
"116 -170 OFFCURVE",
"116 -253 CURVE SMOOTH"
);
}
);
width = 560;
}
);
unicode = 02DB;
},
{
glyphname = ring;
layers = (
{
anchors = (
{
name = _top;
position = "{286, 986}";
}
);
layerId = "9209D6FA-1952-4593-83C2-3566FC124D27";
name = Light;
paths = (
{
closed = 1;
nodes = (
"376 1303 OFFCURVE",
"326 1256 OFFCURVE",
"286 1256 CURVE SMOOTH",
"231 1256 OFFCURVE",
"193 1296 OFFCURVE",
"193 1363 CURVE SMOOTH",
"193 1424 OFFCURVE",
"246 1474 OFFCURVE",
"286 1474 CURVE SMOOTH",
"333 1474 OFFCURVE",
"376 1423 OFFCURVE",
"376 1363 CURVE SMOOTH"
);
},
{
closed = 1;
nodes = (
"131 1256 OFFCURVE",
"221 1213 OFFCURVE",
"290 1213 CURVE SMOOTH",
"351 1213 OFFCURVE",
"442 1256 OFFCURVE",
"442 1363 CURVE SMOOTH",
"442 1465 OFFCURVE",
"354 1531 OFFCURVE",
"286 1531 CURVE SMOOTH",
"223 1531 OFFCURVE",
"131 1474 OFFCURVE",
"131 1363 CURVE SMOOTH"
);
}
);
width = 572;
}
);
unicode = 02DA;
},
{
glyphname = tilde;
layers = (
{
anchors = (
{
name = _top;
position = "{417, 986}";
}
);
layerId = "9209D6FA-1952-4593-83C2-3566FC124D27";
name = Light;
paths = (
{
closed = 1;
nodes = (
"251 1393 OFFCURVE",
"158 1379 OFFCURVE",
"158 1216 CURVE SMOOTH",
"217 1222 LINE",
"222 1305 OFFCURVE",
"242 1307 OFFCURVE",
"278 1309 CURVE SMOOTH",
"235 1309 OFFCURVE",
"489 1222 OFFCURVE",
"557 1222 CURVE SMOOTH",
"614 1222 OFFCURVE",
"677 1186 OFFCURVE",
"677 1393 CURVE",
"614 1393 LINE",
"609 1330 OFFCURVE",
"613 1312 OFFCURVE",
"565 1308 CURVE",
"588 1308 OFFCURVE",
"416 1393 OFFCURVE",
"309 1393 CURVE SMOOTH"
);
}
);
width = 892;
}
);
unicode = 02DC;
},
{
glyphname = tonos;
layers = (
{
anchors = (
{
name = _top;
position = "{217, 986}";
}
);
layerId = "9209D6FA-1952-4593-83C2-3566FC124D27";
name = Light;
paths = (
{
closed = 1;
nodes = (
"101 542 OFFCURVE",
"140 485 OFFCURVE",
"217 485 CURVE SMOOTH",
"295 485 OFFCURVE",
"333 542 OFFCURVE",
"333 600 CURVE SMOOTH",
"333 658 OFFCURVE",
"295 715 OFFCURVE",
"217 715 CURVE SMOOTH",
"140 715 OFFCURVE",
"101 658 OFFCURVE",
"101 600 CURVE SMOOTH"
);
}
);
width = 439;
}
);
unicode = 0384;
},
{
glyphname = dieresistonos;
layers = (
{
anchors = (
{
name = _top;
position = "{217, 986}";
}
);
layerId = "9209D6FA-1952-4593-83C2-3566FC124D27";
name = Light;
paths = (
{
closed = 1;
nodes = (
"101 542 OFFCURVE",
"140 485 OFFCURVE",
"217 485 CURVE SMOOTH",
"295 485 OFFCURVE",
"333 542 OFFCURVE",
"333 600 CURVE SMOOTH",
"333 658 OFFCURVE",
"295 715 OFFCURVE",
"217 715 CURVE SMOOTH",
"140 715 OFFCURVE",
"101 658 OFFCURVE",
"101 600 CURVE SMOOTH"
);
}
);
width = 439;
}
);
unicode = 0385;
},
{
glyphname = middot;
layers = (
{
layerId = "9209D6FA-1952-4593-83C2-3566FC124D27";
name = Light;
paths = (
{
closed = 1;
nodes = (
"107 511 LINE",
"260 511 LINE",
"260 691 LINE",
"107 691 LINE"
);
}
